<svg width="140" height="26" viewBox="0 0 140 26" fill="none" xmlns="http://www.w3.org/2000/svg">
<path d="M32.6396 14.3403C32.6396 15.5497 33.6203 16.1037 37.3503 16.1037C40.4399 16.1037 41.375 15.7632 41.375 14.8637C41.375 13.9643 40.7194 13.7508 37.0098 13.573C32.0196 13.3392 30.0378 12.5566 30.0378 9.9904C30.0378 7.42416 32.6091 6.66699 36.8929 6.66699C41.1768 6.66699 43.8294 7.74939 43.8294 10.5799H40.882C40.882 9.31962 39.6269 9.00964 36.5677 9.00964C33.6711 9.00964 32.9851 9.28405 32.9851 10.1378C32.9851 10.9915 33.6711 11.1846 37.0098 11.3777C41.5223 11.6267 44.3172 11.8859 44.3172 14.7621C44.3172 17.8111 41.4258 18.4463 37.2029 18.4463C32.5074 18.4463 29.7125 17.6434 29.7125 14.3403H32.6396Z" fill="white"/>
<path d="M45.054 12.557C45.054 8.76102 47.2137 6.68262 52.2547 6.68262C57.2958 6.68262 59.4504 8.77626 59.4504 12.557C59.4504 16.3378 57.2754 18.4619 52.2547 18.4619C47.2341 18.4619 45.054 16.353 45.054 12.557ZM56.503 12.557C56.503 10.2347 55.3292 9.15231 52.2547 9.15231C49.1803 9.15231 48.0014 10.2195 48.0014 12.557C48.0014 14.8946 49.1956 15.9922 52.2547 15.9922C55.3139 15.9922 56.503 14.8794 56.503 12.557Z" fill="white"/>
<path d="M75.2647 6.83496V18.2789H71.2603L63.4599 9.69594V18.2789H60.5126V6.83496H64.5068L72.3224 15.4331V6.83496H75.2647Z" fill="white"/>
<path d="M107.132 14.8792L109.241 18.2789H105.775L103.925 15.2299H99.184V18.2789H96.2417V6.83496H105.236C107.833 6.83496 109.617 8.4865 109.617 11.0375C109.66 11.858 109.443 12.6714 108.997 13.3614C108.551 14.0513 107.898 14.5826 107.132 14.8792ZM99.184 12.7551H104.418C105.302 12.7551 106.674 12.7551 106.674 11.0375C106.674 9.31989 105.302 9.29957 104.418 9.29957H99.184V12.7551Z" fill="white"/>
<path d="M117.504 12.1501H124.765V18.2786H122.59L122.458 16.4797C121.381 17.6586 119.663 18.4463 117.224 18.4463C113.006 18.4463 110.42 16.3527 110.42 12.5566C110.42 8.76064 113.006 6.66699 117.717 6.66699C122.29 6.66699 124.587 8.45066 124.765 11.2964H121.772C121.61 10.4325 120.822 9.13668 117.707 9.13668C113.88 9.13668 113.357 11.2507 113.357 12.6227C113.357 13.9948 113.896 16.1799 117.707 16.1799C120.553 16.1799 121.696 14.9399 121.772 14.071H117.504V12.1501Z" fill="white"/>
<path d="M124.094 6.83496H127.652L132.047 12.0488L136.443 6.83496H140L133.516 14.5184V18.2789H130.573V14.5184L124.094 6.83496Z" fill="white"/>
<path d="M12.5721 9.2586e-06C10.0879 -0.00300671 7.65868 0.730873 5.59172 2.1088C3.52476 3.48672 1.91295 5.44677 0.960218 7.74096C0.00748535 10.0352 -0.243359 12.5604 0.239425 14.9972C0.722209 17.434 1.91692 19.6728 3.67242 21.4304C5.42791 23.188 7.66529 24.3855 10.1015 24.8712C12.5377 25.357 15.0632 25.1092 17.3586 24.1592C19.6539 23.2093 21.6159 21.5999 22.9964 19.5346C24.3768 17.4693 25.1136 15.041 25.1136 12.5568C25.1136 9.22918 23.7928 6.03762 21.4412 3.6832C19.0896 1.32878 15.8997 0.00404928 12.5721 9.2586e-06ZM2.06316 13.812V11.3016H14.8588V13.812H2.06316ZM21.2363 18.6548H8.44066V16.114H21.2363V18.6548ZM21.2363 8.99965H8.44066V6.4893H21.2363V8.99965Z" fill="white"/>
<path d="M94.5952 6.83496H82.5364V9.19794H94.5952V6.83496Z" fill="white"/>
<path d="M88.5634 11.373H76.5046V13.736H88.5634V11.373Z" fill="white"/>
<path d="M94.5952 15.916H82.5364V18.279H94.5952V15.916Z" fill="white"/>
</svg>
