<svg width="97" height="96" viewBox="0 0 97 96" fill="none" xmlns="http://www.w3.org/2000/svg">
<path d="M72.5 81.9998H68.5V80.9998C68.5 76.5998 64.9 72.9998 60.5 72.9998H51.5V63.8398C50.5 63.9598 49.5 63.9998 48.5 63.9998C47.5 63.9998 46.5 63.9598 45.5 63.8398V72.9998H36.5C32.1 72.9998 28.5 76.5998 28.5 80.9998V81.9998H24.5C22.86 81.9998 21.5 83.3598 21.5 84.9998C21.5 86.6398 22.86 87.9998 24.5 87.9998H72.5C74.14 87.9998 75.5 86.6398 75.5 84.9998C75.5 83.3598 74.14 81.9998 72.5 81.9998Z" fill="#ACD7FF"/>
<path d="M22.5801 46.56C19.9401 45.56 17.6201 43.92 15.7801 42.08C12.0601 37.96 9.62012 33.04 9.62012 27.28C9.62012 21.52 14.1401 17 19.9001 17H22.1401C21.1001 19.12 20.5001 21.48 20.5001 24V36C20.5001 39.76 21.2201 43.32 22.5801 46.56Z" fill="#ACD7FF"/>
<path d="M87.3799 27.28C87.3799 33.04 84.9399 37.96 81.2199 42.08C79.3799 43.92 77.0599 45.56 74.4199 46.56C75.7799 43.32 76.4999 39.76 76.4999 36V24C76.4999 21.48 75.8999 19.12 74.8599 17H77.0999C82.8599 17 87.3799 21.52 87.3799 27.28Z" fill="#ACD7FF"/>
<path d="M60.5 8H36.5C27.66 8 20.5 15.16 20.5 24V36C20.5 51.48 33.02 64 48.5 64C63.98 64 76.5 51.48 76.5 36V24C76.5 15.16 69.34 8 60.5 8ZM59.86 33.8L57.38 36.84C56.98 37.28 56.7 38.16 56.74 38.76L56.98 42.68C57.14 45.08 55.42 46.32 53.18 45.44L49.54 44C48.98 43.8 48.02 43.8 47.46 44L43.82 45.44C41.58 46.32 39.86 45.08 40.02 42.68L40.26 38.76C40.3 38.16 40.02 37.28 39.62 36.84L37.14 33.8C35.58 31.96 36.26 29.92 38.58 29.32L42.38 28.36C42.98 28.2 43.7 27.64 44.02 27.12L46.14 23.84C47.46 21.8 49.54 21.8 50.86 23.84L52.98 27.12C53.3 27.64 54.02 28.2 54.62 28.36L58.42 29.32C60.74 29.92 61.42 31.96 59.86 33.8Z" fill="#0059AC"/>
<path d="M59.86 33.8001L57.38 36.8401C56.98 37.2801 56.7 38.1601 56.74 38.7601L56.98 42.6801C57.14 45.0801 55.42 46.3201 53.18 45.4401L49.54 44.0001C48.98 43.8001 48.02 43.8001 47.46 44.0001L43.82 45.4401C41.58 46.3201 39.86 45.0801 40.02 42.6801L40.26 38.7601C40.3 38.1601 40.02 37.2801 39.62 36.8401L37.14 33.8001C35.58 31.9601 36.26 29.9201 38.58 29.3201L42.38 28.3601C42.98 28.2001 43.7 27.6401 44.02 27.1201L46.14 23.8401C47.46 21.8001 49.54 21.8001 50.86 23.8401L52.98 27.1201C53.3 27.6401 54.02 28.2001 54.62 28.3601L58.42 29.3201C60.74 29.9201 61.42 31.9601 59.86 33.8001Z" fill="url(#paint0_linear_521_4076)"/>
<defs>
<linearGradient id="paint0_linear_521_4076" x1="40" y1="30.5001" x2="61" y2="45.5001" gradientUnits="userSpaceOnUse">
<stop stop-color="#F2C94C"/>
<stop offset="1" stop-color="#FCFF59"/>
</linearGradient>
</defs>
</svg>
