<svg width="112" height="112" viewBox="0 0 112 112" fill="none" xmlns="http://www.w3.org/2000/svg">
<path d="M48.5477 71.8308L56 82.04V104.052L28 91.1292V34.2677C27.9991 33.852 28.087 33.441 28.2578 33.0621C28.4287 32.6832 28.6786 32.3452 28.9908 32.0708L32.1785 29.2277C32.482 28.9526 32.8404 28.7451 33.2301 28.6188C33.6198 28.4925 34.0318 28.4504 34.439 28.4952C34.8461 28.54 35.2391 28.6707 35.592 28.8786C35.945 29.0866 36.2497 29.3671 36.4862 29.7015L61.9877 64.4646L76.0738 73.4246V25.48L63.6246 19.0185L63.0215 49.0862L56.4308 39.9969L56.1292 7L84 20.4831V77.0862L77.6677 82.5138L57.7231 70.9262L35.5815 40.7292L35.28 86.6062L48.4615 93.6277L48.5477 71.8308Z" fill="#CED6DE"/>
</svg>
