<svg width="109" height="112" viewBox="0 0 109 112" fill="none" xmlns="http://www.w3.org/2000/svg">
<path fill-rule="evenodd" clip-rule="evenodd" d="M51.3519 22.2459C40.8625 23.0007 31.9886 28.2295 27.358 36.3836C26.9122 37.1684 26.1842 38.6461 26.2252 38.6825C26.2391 38.6948 27.3874 38.7066 28.7772 38.7088L31.3038 38.713L31.7222 38.0005C37.7562 27.7247 52.3289 23.4081 63.9395 28.4574C64.3714 28.6452 64.526 28.6875 64.6211 28.6435C64.7034 28.6055 64.7305 28.6061 64.703 28.6457C64.6802 28.678 64.6841 28.7155 64.7115 28.729C64.7388 28.7425 64.7177 28.7434 64.6645 28.7309C64.473 28.6862 64.7273 28.8189 65.7053 29.2746C65.863 29.3481 66.0271 29.4342 66.0701 29.4657C66.1132 29.4972 66.2099 29.5087 66.2854 29.4912C66.3608 29.4739 66.4423 29.488 66.4667 29.5227C66.4908 29.5576 66.5402 29.5859 66.5765 29.5859C66.6127 29.5859 66.6278 29.5654 66.6102 29.5402C66.5927 29.5152 66.6295 29.4945 66.6919 29.4945C66.7653 29.4945 66.8053 29.5402 66.8053 29.6236C66.8053 29.6945 66.7891 29.7512 66.7693 29.7495C66.6161 29.7367 66.6376 29.7803 66.8459 29.9054C67.1017 30.0591 67.1941 30.088 67.1279 29.9933C67.1045 29.9598 67.1324 29.9509 67.1952 29.9723C67.2713 29.9981 67.2801 30.0213 67.2254 30.051C67.1739 30.0792 67.216 30.1358 67.3511 30.2209C67.4626 30.2911 67.5848 30.3316 67.6229 30.3108C67.7036 30.2667 67.8966 30.3913 67.8504 30.4577C67.8331 30.4825 67.8974 30.5482 67.9932 30.6039C68.0892 30.6594 68.2947 30.8083 68.4499 30.9347C68.605 31.0613 68.7637 31.1473 68.8023 31.1263C68.841 31.1051 68.8644 31.112 68.8546 31.1413C68.8446 31.1707 69.1174 31.4134 69.4609 31.6811C80.9104 40.5982 80.4484 56.7084 68.5079 64.9129C68.2547 65.0866 68.0377 65.2487 68.0259 65.2729C68.0138 65.2969 67.9695 65.3176 67.9272 65.3187C67.795 65.3224 67.4701 65.5912 67.5169 65.6582C67.545 65.6982 67.5237 65.7092 67.4595 65.6874C67.3901 65.6639 67.3571 65.6872 67.3565 65.7608C67.3556 65.8516 67.3454 65.855 67.2918 65.7814C67.2305 65.6977 67.2196 65.7054 67.2015 65.8443C67.1969 65.8788 67.1418 65.9402 67.0792 65.9807C67.0164 66.0212 66.987 66.0756 67.0134 66.1016C67.04 66.1274 67.0207 66.1278 66.9706 66.1021C66.8987 66.0652 66.9125 66.0329 67.0364 65.9487C67.1226 65.8902 67.1618 65.8416 67.1234 65.8408C67.0851 65.8401 66.9921 65.8903 66.9168 65.9522C66.8415 66.0142 66.7572 66.0469 66.7295 66.0249C66.7017 66.0029 66.7004 66.0176 66.7264 66.0574C66.7549 66.1014 66.7361 66.1301 66.6785 66.1301C66.5416 66.1301 66.2412 66.358 66.3748 66.3605C66.4308 66.3615 66.5118 66.3315 66.5546 66.2937C66.5972 66.2558 66.6525 66.2428 66.6772 66.2647C66.747 66.3264 66.6599 66.3742 66.4518 66.3887C66.3473 66.3959 66.2228 66.4232 66.175 66.4493C66.115 66.4821 66.1039 66.4743 66.1392 66.4237C66.1792 66.3666 66.1601 66.3651 66.0509 66.4167C65.9741 66.4531 65.9115 66.4964 65.9115 66.5131C65.9115 66.53 65.9456 66.525 65.9873 66.5021C66.0379 66.4746 66.0452 66.4864 66.0094 66.5376C65.969 66.5953 65.9866 66.6042 66.0794 66.5726C66.1475 66.5495 66.1796 66.5516 66.1505 66.5773C66.0824 66.6373 65.7787 66.6437 65.8204 66.5842C65.8377 66.5593 65.7641 66.5836 65.6568 66.638C65.5495 66.6924 65.4787 66.7614 65.4995 66.7911C65.5202 66.8209 65.5036 66.8268 65.4625 66.8043C65.4214 66.7817 65.1135 66.895 64.7786 67.0559C64.4436 67.2168 64.1991 67.3497 64.2353 67.3513C64.2714 67.3528 64.2274 67.3902 64.1374 67.4342C64.0476 67.4782 63.9548 67.5037 63.9314 67.4911C63.8488 67.4459 63.4798 67.5941 63.5224 67.6553C63.5471 67.6905 63.5341 67.6997 63.4922 67.6767C63.4519 67.6546 63.366 67.6615 63.3013 67.6918C63.2366 67.722 63.0301 67.8014 62.8425 67.8681C62.6548 67.9348 62.4183 68.0195 62.3166 68.0563C62.2151 68.0932 62.1023 68.1307 62.0661 68.1395C62.03 68.1485 61.654 68.2608 61.2305 68.389C43.6694 73.7036 25.8967 60.0363 29.3954 43.9072C29.4509 43.6516 29.4962 43.4228 29.4962 43.399C29.4962 43.3749 28.4214 43.3553 27.1079 43.3553H24.7194L24.602 43.9799C24.5375 44.3234 24.4775 44.7646 24.4689 44.9603C24.46 45.1561 24.4347 45.342 24.4126 45.3735C24.3906 45.4051 24.357 45.7285 24.3377 46.0925C24.3185 46.4564 24.2844 47.0416 24.2621 47.3931C24.0361 50.9401 25.2608 55.7907 27.2916 59.3907C33.4436 70.2965 47.1832 75.8756 60.5542 72.8974C61.1688 72.7605 61.7604 72.6154 61.8689 72.5751C62.0979 72.4897 62.063 72.4989 62.3783 72.443C62.5139 72.419 62.6248 72.373 62.6248 72.3406C62.6248 72.3081 62.6518 72.2965 62.6848 72.3145C62.7739 72.3631 63.7554 72.0298 63.6952 71.9713C63.6669 71.9438 63.6767 71.938 63.7171 71.9583C63.8062 72.0031 65.1339 71.5381 65.091 71.4771C65.0746 71.4534 65.1354 71.404 65.2263 71.3675C65.4272 71.2865 65.5212 71.2815 65.3855 71.359C65.3284 71.3915 65.3193 71.4157 65.364 71.4162C65.4065 71.4167 65.5383 71.3452 65.657 71.2573C65.7757 71.1694 65.8504 71.1299 65.823 71.1694C65.7892 71.2183 65.8055 71.2305 65.873 71.2076C65.9281 71.1889 65.9666 71.1468 65.9586 71.1137C65.9507 71.0809 65.9854 71.0407 66.0356 71.0247C66.0969 71.005 66.1098 71.0199 66.0747 71.0699C66.0149 71.1554 66.1367 71.1042 66.3165 70.968C66.3765 70.9226 66.4654 70.8778 66.5136 70.8686C66.7608 70.8216 67.0234 70.7019 67.0105 70.6422C67.0024 70.605 67.0551 70.5818 67.1275 70.5907C67.2571 70.6067 67.2571 70.6057 67.1313 70.5181C66.9807 70.4134 66.8698 70.4011 66.9366 70.4965C66.9668 70.5396 66.9545 70.5476 66.9019 70.519C66.7278 70.4239 66.9451 70.3601 67.1398 70.4491C67.3426 70.5418 68.2896 70.1755 68.1636 70.0529C68.136 70.0261 68.1502 70.0227 68.1951 70.0456C68.2411 70.0689 68.4035 70.0099 68.5684 69.9097C68.729 69.812 68.8782 69.7323 68.9001 69.7323C68.935 69.7323 69.6584 69.3059 70.3789 68.8607C71.45 68.1989 72.8683 67.1299 73.9996 66.1316C86.4942 55.105 85.0835 36.8835 71.0037 27.4363C70.1442 26.8595 68.4775 25.8675 68.3679 25.8675C68.353 25.8675 68.2264 25.8037 68.0864 25.7256C67.9466 25.6476 67.8163 25.5978 67.7968 25.6148C67.7776 25.6319 67.7078 25.6153 67.6418 25.5781C67.535 25.5177 67.5344 25.5137 67.6369 25.5419C67.8168 25.5913 67.7719 25.5312 67.5546 25.4318C67.4463 25.3823 67.3575 25.3595 67.3575 25.3813C67.3575 25.403 67.3058 25.3825 67.2424 25.3358C67.1792 25.2891 67.0387 25.2548 66.9302 25.2596C66.7042 25.2698 66.4825 25.1886 66.5344 25.1144C66.5538 25.0867 66.5323 25.049 66.4871 25.0307C66.4416 25.0123 66.4784 25.0105 66.5687 25.0267C66.6591 25.0428 66.5852 24.9906 66.4044 24.9104C66.192 24.8164 66 24.7727 65.8615 24.787C65.7438 24.7992 65.6283 24.7817 65.6047 24.7482C65.5779 24.7097 65.6144 24.6993 65.704 24.7202C65.7821 24.7382 65.8292 24.7292 65.809 24.7002C65.7889 24.6712 65.713 24.6475 65.6408 24.6475C65.5685 24.6475 65.5274 24.6216 65.5495 24.5901C65.5732 24.5559 65.5438 24.5483 65.4768 24.5709C65.4053 24.5951 65.3799 24.5865 65.4072 24.5473C65.431 24.5133 65.4048 24.4699 65.3489 24.4509C65.2897 24.4309 65.2644 24.4409 65.2882 24.4749C65.3106 24.5071 65.2199 24.4679 65.0865 24.3879C64.9531 24.308 64.8181 24.2568 64.7862 24.2741C64.7543 24.2915 64.7283 24.2811 64.7283 24.251C64.7283 24.1674 64.4589 24.1236 64.3272 24.1859C64.2482 24.2233 64.1952 24.2195 64.1635 24.1739C64.1354 24.1337 64.145 24.1224 64.1878 24.1456C64.227 24.1671 64.2755 24.1611 64.2957 24.1324C64.3457 24.0607 63.9669 23.9285 63.8675 23.9828C63.813 24.0125 63.8048 24.002 63.8414 23.9495C63.8809 23.8931 63.865 23.8828 63.7826 23.9108C63.7205 23.9318 63.6858 23.926 63.7056 23.8978C63.7511 23.8326 63.4321 23.7591 63.3347 23.8123C63.2927 23.8353 63.2802 23.8258 63.3053 23.7899C63.4009 23.6532 60.4742 22.9093 58.7138 22.6232C56.5477 22.2711 53.3088 22.105 51.3519 22.2459ZM66.6708 25.1099C66.5491 25.1489 66.5499 25.1525 66.6872 25.1842C66.7666 25.2026 66.8468 25.1957 66.8655 25.1691C66.9172 25.095 66.8144 25.0638 66.6708 25.1099ZM66.601 29.645C66.5782 29.6775 66.5276 29.6865 66.4884 29.665C66.4457 29.6418 66.4359 29.6531 66.464 29.6933C66.508 29.7563 66.7659 29.6876 66.7659 29.6129C66.7659 29.5619 66.6421 29.5859 66.601 29.645ZM51.9107 30.6082C51.7841 30.6214 51.3847 30.6596 51.0233 30.6933C44.5081 31.2997 38.4495 35.1632 35.6173 40.5175C34.9532 41.7729 34.1613 43.9357 34.139 44.5548C34.1341 44.6874 34.1081 44.7839 34.0809 44.7693C34.0539 44.7548 34.0279 44.8293 34.0234 44.9352C34.0137 45.1561 34.0019 45.2311 33.9023 45.7084C33.8623 45.9001 33.8164 46.4182 33.8002 46.8599C33.784 47.3014 33.7538 47.6871 33.733 47.717C33.7121 47.7468 33.7112 47.9476 33.7308 48.1632C33.7504 48.3788 33.7832 48.8428 33.8038 49.1943C33.8466 49.9261 33.976 50.7508 34.1732 51.5472C34.2482 51.8509 34.3244 52.1708 34.3424 52.2584C34.361 52.3493 34.4044 52.4014 34.4437 52.3801C34.4837 52.3583 34.4925 52.3708 34.4646 52.4106C34.4386 52.4478 34.4644 52.6217 34.522 52.7968C34.5795 52.9719 34.6265 53.1281 34.6265 53.1441C34.6263 53.16 34.7157 53.3891 34.8253 53.6529C37.4419 59.9596 43.1744 64.1385 50.596 65.1498C54.0002 65.6139 58.7802 65.0094 61.4088 63.7827C61.5173 63.732 61.6412 63.6905 61.6842 63.6903C61.7274 63.6901 61.784 63.6593 61.8101 63.6219C61.8423 63.5758 61.8214 63.5663 61.7448 63.5923C61.6754 63.6158 61.6482 63.6074 61.6739 63.5708C61.6969 63.5377 61.7725 63.5269 61.8419 63.5463C61.924 63.5693 61.9823 63.5494 62.0081 63.4896C62.0302 63.4389 62.0851 63.4044 62.1302 63.4129C62.2672 63.4389 63.1483 63.0367 63.1042 62.9683C63.0821 62.9338 63.088 62.9248 63.1174 62.9483C63.2057 63.019 64.8924 62.1074 64.8475 62.0132C64.7096 61.7249 63.8277 60.4547 63.7826 60.4793C63.7492 60.4975 63.7432 60.482 63.7692 60.445C63.795 60.4078 63.7552 60.3018 63.6807 60.2092C63.6062 60.1165 63.5451 60.0228 63.5451 60.0008C63.5451 59.9159 63.2968 59.6871 63.2476 59.7267C63.2189 59.7495 63.2166 59.7355 63.2429 59.6953C63.2689 59.6553 63.2238 59.5181 63.1427 59.3903C63.008 59.1786 62.9437 59.1325 62.8076 59.1507C62.7816 59.1542 62.7314 59.1094 62.6961 59.0512C62.6488 58.973 62.6552 58.9451 62.7207 58.9451C62.7695 58.9451 62.7963 58.9756 62.7801 59.013C62.7639 59.0502 62.7963 59.0807 62.8522 59.0807C62.9901 59.0807 62.9818 59.0602 62.7727 58.8844C62.6733 58.8009 62.6311 58.7525 62.679 58.7772C62.7322 58.8044 62.7114 58.7274 62.6258 58.579C62.5105 58.379 62.469 58.3485 62.3909 58.4057C62.3294 58.4509 62.2962 58.4536 62.2962 58.4135C62.2962 58.3795 62.3258 58.3355 62.362 58.3157C62.4058 58.2918 62.4041 58.2403 62.3575 58.1633C62.3013 58.0702 62.2681 58.0607 62.193 58.1157C62.0795 58.1991 62.0664 58.1064 62.1779 58.0079C62.2392 57.9537 62.2392 57.9382 62.1779 57.9382C62.1345 57.9382 62.0991 57.8973 62.0991 57.8476C62.0991 57.7961 62.0676 57.7741 62.0263 57.7968C61.9772 57.8234 61.968 57.7961 61.9978 57.7131C62.0546 57.555 62.0091 57.557 61.8267 57.7202L61.6806 57.851L61.7912 57.6932C61.9316 57.493 61.9321 57.4371 61.7925 57.5388C61.6927 57.6115 61.6905 57.6063 61.7661 57.4808C61.8182 57.3946 61.8221 57.3579 61.7769 57.3826C61.7371 57.4044 61.7046 57.3929 61.7046 57.3572C61.7046 57.3214 61.6754 57.3082 61.6397 57.3277C61.6016 57.3484 61.5918 57.3237 61.6159 57.2682C61.6493 57.1913 61.669 57.188 61.7188 57.2507C61.8663 57.4363 61.7137 57.164 61.4437 56.76C61.282 56.5182 61.1222 56.3354 61.0885 56.3538C61.0547 56.3723 61.0489 56.3561 61.0757 56.3177C61.1321 56.237 60.9366 55.9446 60.8559 55.9886C60.8261 56.0049 60.8053 55.9693 60.8095 55.9094C60.82 55.7608 59.9843 54.4516 59.9062 54.4942C59.8719 54.5129 59.8634 54.5002 59.8874 54.4661C59.9458 54.3822 59.2697 53.343 59.1863 53.3886C59.1494 53.4087 59.1412 53.3951 59.1677 53.3574C59.206 53.3025 58.4234 52.0288 57.7701 51.0825C57.6205 50.8657 57.5902 50.6758 57.6909 50.5858C57.7249 50.5554 57.9135 50.2821 58.1099 49.9787C58.3065 49.675 58.6189 49.198 58.8041 48.9183C59.6514 47.6399 59.7938 47.4046 59.7544 47.3483C59.7313 47.3153 59.7417 47.3041 59.7774 47.3236C59.8132 47.3431 59.9798 47.1447 60.1477 46.8824C60.4126 46.4687 60.7223 45.984 60.7627 45.9205C60.7699 45.9091 61.7291 45.9033 62.8944 45.9071C65.0999 45.9146 65.301 45.8966 65.6625 45.6608C66.2529 45.2755 66.2105 44.258 65.5885 43.8927L65.3642 43.761L62.2796 43.776L59.1948 43.7911L58.6359 44.6335C58.3285 45.0969 58.0101 45.5805 57.9286 45.7084C57.8469 45.8361 57.5983 46.2093 57.3761 46.5376C57.1538 46.8659 56.972 47.1467 56.972 47.1615C56.972 47.1764 56.8127 47.4176 56.6183 47.6976C56.4238 47.9776 55.3247 49.6315 54.176 51.373C53.0271 53.1144 51.8613 54.8793 51.5849 55.2946C51.3085 55.71 50.788 56.5003 50.4285 57.0509L49.7744 58.0519L46.8064 58.0531L43.8384 58.0544L43.224 57.8756C40.271 57.0164 37.686 55.0577 36.4647 52.7541C35.3407 50.634 35.059 47.6411 35.7995 45.6837C37.0995 42.2471 39.9071 39.9715 43.9901 39.0456C44.6681 38.8917 54.2113 38.7175 54.2113 38.8589C54.2113 38.8784 53.9551 39.2771 53.6421 39.7449C53.3292 40.2128 52.8207 40.9747 52.5121 41.4381C52.2037 41.9014 51.7505 42.5794 51.5051 42.9446C51.2599 43.3099 51.0499 43.6331 51.0388 43.6629C51.0267 43.6949 49.7942 43.7201 47.9972 43.7249L44.976 43.7329L44.5487 43.904C42.1666 44.8576 40.8619 46.347 40.8559 48.12C40.8485 50.3056 42.0068 52.0414 44.0327 52.8805L44.6009 53.1159H45.6772H46.7536L48.3275 50.7483C49.1932 49.4462 50.3036 47.7795 50.795 47.0446C51.2865 46.3096 51.7858 45.5515 51.9045 45.3597C52.0233 45.1679 52.1439 44.985 52.1727 44.953C52.2229 44.8973 52.7472 44.1108 55.1157 40.5375C55.7088 39.6429 56.2153 38.8911 56.2417 38.8667C56.2679 38.8425 58.4666 38.8215 61.1279 38.8202L65.9664 38.8175L66.4812 38.9703C70.6264 40.1995 72.6029 43.7435 71.0384 47.1414C70.0295 49.3325 67.9197 50.6635 65.2771 50.7759L64.2153 50.821L65.268 52.3606C65.8468 53.2075 66.3542 53.9532 66.3954 54.0177C66.7691 54.6045 69.227 58.1703 69.2574 58.1694C69.3206 58.1678 69.9474 57.3517 70.3513 56.7451C74.9674 49.8124 73.5644 40.926 66.98 35.3923C66.1288 34.6769 64.3421 33.4205 64.1761 33.4205C64.1595 33.4205 63.9739 33.3205 63.7633 33.1983C63.2338 32.8906 63.1881 32.8683 63.2402 32.9426C63.2645 32.9773 63.2536 33.0225 63.2159 33.0432C63.1783 33.0637 63.1517 33.0589 63.1568 33.0325C63.1789 32.921 63.1459 32.8394 63.0787 32.8394C63.0391 32.8394 62.9205 32.7852 62.815 32.7189C62.6945 32.643 62.5564 32.6073 62.4434 32.6227C62.3443 32.6362 62.3004 32.6362 62.3454 32.6228C62.5492 32.5626 61.6507 32.1081 61.3654 32.1269C61.2951 32.1318 61.2598 32.1093 61.2839 32.0749C61.3098 32.0379 61.2713 32.0404 61.1849 32.0812C61.1072 32.1181 61.0638 32.177 61.0885 32.2123C61.1164 32.2522 61.103 32.2598 61.0532 32.2326C60.9932 32.1998 61.0026 32.1599 61.0906 32.0741C61.1551 32.011 61.1792 31.9669 61.1441 31.976C61.1089 31.9852 61.0157 31.961 60.937 31.9225C60.8583 31.8838 60.74 31.8676 60.674 31.8865C60.5931 31.9097 60.5806 31.904 60.6357 31.8686C60.7385 31.8029 60.2965 31.6499 60.183 31.7119C60.1367 31.7371 60.1245 31.7282 60.1518 31.6892C60.1911 31.6329 59.7849 31.485 59.5683 31.4766C59.5321 31.4753 59.4878 31.458 59.4697 31.4383C59.4061 31.3687 58.6755 31.2088 58.6028 31.2485C58.5623 31.2707 58.5462 31.2645 58.567 31.2349C58.6162 31.1643 57.3085 30.8944 56.1832 30.7426C55.3337 30.6282 52.5606 30.5409 51.9107 30.6082ZM62.2226 32.4854C62.2938 32.5251 62.2819 32.5451 62.1685 32.577C62.0887 32.5993 62.0059 32.6021 61.9846 32.5833C61.9631 32.5645 62.0023 32.5471 62.0715 32.545C62.1921 32.541 62.1917 32.5386 62.0661 32.4909C61.9795 32.4579 61.9683 32.4399 62.0332 32.4377C62.0876 32.4359 62.1728 32.4574 62.2226 32.4854ZM62.5098 43.8612C62.4285 43.875 62.2955 43.875 62.214 43.8612C62.1327 43.8473 62.1992 43.836 62.3619 43.836C62.5247 43.836 62.5913 43.8473 62.5098 43.8612ZM62.3387 58.5946C62.3877 58.6201 62.4277 58.67 62.4277 58.7053C62.4277 58.7407 62.3685 58.7222 62.2962 58.6643C62.224 58.6065 62.167 58.5174 62.17 58.4666C62.1743 58.3877 62.1808 58.3869 62.2125 58.4611C62.233 58.5089 62.2898 58.5691 62.3387 58.5946ZM62.7563 63.1089C62.666 63.1714 62.5477 63.2201 62.4934 63.2171C62.4247 63.2133 62.43 63.2036 62.5107 63.1849C62.5743 63.1702 62.6067 63.1301 62.5826 63.0955C62.5586 63.061 62.5669 63.0482 62.6014 63.067C62.6358 63.0859 62.7069 63.0772 62.7595 63.0479C62.9278 62.9536 62.9259 62.9917 62.7563 63.1089ZM66.8317 66.4786C66.8317 66.5106 66.8095 66.5371 66.7823 66.5376C66.7553 66.538 66.6591 66.5533 66.5687 66.5715L66.4044 66.6045L66.5687 66.5183C66.7702 66.4124 66.8317 66.4032 66.8317 66.4786ZM65.5481 67.0755C65.4895 67.1046 65.424 67.1129 65.4025 67.0941C65.3812 67.075 65.4038 67.0597 65.4529 67.0597C65.5112 67.0597 65.498 67.0292 65.4146 66.9715C65.2967 66.8901 65.3008 66.8888 65.471 66.9532C65.6266 67.012 65.6385 67.0309 65.5481 67.0755ZM67.8834 70.1801C67.8291 70.1976 67.7331 70.252 67.6697 70.3007C67.6065 70.3494 67.5546 70.3686 67.5546 70.3431C67.5546 70.273 67.7719 70.1423 67.8834 70.1453C67.971 70.1478 67.971 70.1516 67.8834 70.1801ZM21.4544 80.2681C21.2794 80.305 21.1584 80.3548 21.186 80.3788C21.2135 80.4027 21.1498 80.4227 21.0443 80.4229C19.6159 80.4272 18.3442 82.55 18.7805 84.2018C19.3748 86.4508 22.5665 87.4311 24.4085 85.9302C24.7716 85.6344 24.7707 85.6238 24.3508 85.2571C23.9537 84.9106 23.8061 84.8846 23.4803 85.1042C22.7801 85.5764 21.6395 85.5099 21.0183 84.9608C19.8707 83.9465 20.3442 81.6066 21.734 81.4243C21.8212 81.413 21.9543 81.3653 22.0298 81.3183C22.1596 81.2377 22.1545 81.2347 21.9372 81.2636C21.7085 81.2938 21.7083 81.2936 21.9042 81.2364C22.0585 81.1912 22.1173 81.1976 22.1745 81.2654C22.2145 81.3129 22.3096 81.352 22.3858 81.352C22.5922 81.352 23.1102 81.5192 23.3937 81.6773C23.7937 81.9005 23.925 81.8682 24.2996 81.4537C24.6924 81.0188 24.6952 81.0016 24.4017 80.8037C23.6294 80.283 22.4241 80.064 21.4544 80.2681ZM27.82 80.2785C27.6393 80.3228 27.4674 80.3603 27.4382 80.3617C27.4089 80.3632 27.4016 80.388 27.422 80.417C27.4422 80.4459 27.4022 80.4565 27.3329 80.4405C27.158 80.4002 26.4351 80.7205 26.0686 81.0008C24.6567 82.081 24.5243 84.2451 25.7917 85.5257C27.4265 87.1776 30.7254 86.8817 31.8401 84.9831C32.0518 84.6228 32.1984 84.2628 32.065 84.4312C31.9546 84.5706 31.9831 84.4746 32.1256 84.2278C32.4134 83.7287 32.2719 82.5053 31.8441 81.794C31.1295 80.6061 29.2971 79.916 27.82 80.2785ZM71.0714 80.2708C70.8816 80.3108 70.7845 80.3543 70.8413 80.3733C70.8956 80.3915 70.9184 80.4269 70.8922 80.4517C70.866 80.4767 70.8067 80.4696 70.7607 80.4359C70.5764 80.3013 69.8075 80.6556 69.2887 81.1142C68.2545 82.0283 68.0038 83.6233 68.6858 84.9506C68.8729 85.3149 69.2151 85.7101 69.3164 85.679C69.3636 85.6644 69.3868 85.6744 69.3681 85.7011C69.3153 85.7765 69.7745 86.1078 70.1799 86.2869C71.4329 86.841 73.1009 86.6721 74.0785 85.8924C74.395 85.6401 74.3916 85.6183 73.9779 85.2571C73.5742 84.9048 73.4446 84.8858 73.0722 85.1242C71.7513 85.9699 70.0948 85.1074 70.0012 83.5248C69.9007 81.8273 71.2482 80.9096 72.8275 81.5996C73.495 81.8912 73.5416 81.8854 73.9144 81.4628C74.3073 81.0173 74.3003 81.0416 74.0847 80.8649C73.4252 80.3245 72.0748 80.0582 71.0714 80.2708ZM33.2873 82.5647C33.2639 83.8389 33.2637 85.2514 33.2869 85.7038L33.3293 86.5262L34.1241 86.51L34.9191 86.4937V83.3709V80.2481H34.1245H33.3301L33.2873 82.5647ZM36.3322 83.3854V86.5227H37.0585H37.7848L37.7652 84.5438L37.7456 82.5649L37.8769 82.7043C37.9493 82.781 38.3634 83.2423 38.7971 83.7296C39.231 84.2168 39.8479 84.9073 40.168 85.2641C40.4882 85.6208 40.8285 86.0088 40.924 86.1263C41.1917 86.4553 41.3711 86.5227 41.9789 86.5227H42.5111V83.3854V80.2481H41.788H41.0649V81.1951C41.0649 81.8542 41.0888 82.1633 41.1437 82.2119C41.2052 82.266 41.2035 82.2816 41.1362 82.2816C41.067 82.2816 41.0547 82.4741 41.0756 83.2402C41.0902 83.7674 41.0862 84.1971 41.067 84.1949C41.0287 84.1909 40.7359 83.8693 39.3769 82.3396C38.8801 81.7805 38.4578 81.3098 38.4383 81.2939C38.4187 81.2779 38.2849 81.134 38.1408 80.9743C37.9969 80.8145 37.8267 80.6331 37.763 80.5713C37.6992 80.5092 37.6469 80.4415 37.6469 80.4207C37.6469 80.3268 37.2708 80.2481 36.8222 80.2481H36.3322V83.3854ZM43.9244 80.3141C43.9056 80.3577 43.8978 81.766 43.9073 83.4436L43.9242 86.4937L44.7281 86.51L45.5319 86.5263L45.5496 85.3771L45.5676 84.2278L45.8686 84.2106C46.2833 84.1868 46.3382 84.24 47.08 85.3876C47.8876 86.6372 47.6338 86.5178 49.4845 86.519C51.3672 86.52 51.3106 86.5495 51.6645 85.3801L51.7407 85.1284L53.1239 85.129L54.5071 85.1297L54.7027 85.6955C54.98 86.4975 55.017 86.5227 55.9172 86.5227C56.3287 86.5227 56.6433 86.499 56.6433 86.468C56.6433 86.4378 56.5443 86.1959 56.4236 85.9306C56.3026 85.6651 56.167 85.3496 56.1225 85.2296C56.0778 85.1094 56.0142 85.0258 55.9814 85.0437C55.9485 85.0617 55.9393 85.0357 55.9608 84.9861C55.9825 84.9364 55.9657 84.8959 55.9235 84.8959C55.8812 84.8959 55.8642 84.8709 55.8855 84.8404C55.907 84.8099 55.8744 84.6857 55.8133 84.5644C55.6846 84.3093 55.6765 84.2876 55.6656 84.1663C55.661 84.1166 55.628 84.0917 55.5924 84.1112C55.5565 84.1307 55.5411 84.1127 55.5577 84.071C55.5743 84.0295 55.2253 83.1588 54.7821 82.1363L53.9766 80.2771H53.1262H52.2755L52.0963 80.6838C51.9977 80.9074 51.932 81.1357 51.9507 81.1911C51.9692 81.2462 51.9516 81.3378 51.9115 81.3943C51.849 81.4825 51.8437 81.4763 51.8739 81.352C51.9001 81.2441 51.8837 81.2561 51.8098 81.3986C51.7549 81.5044 51.7302 81.6194 51.7549 81.6546C51.7836 81.6958 51.7688 81.7018 51.7132 81.6714C51.649 81.6363 51.6364 81.6563 51.6641 81.7496C51.6845 81.8185 51.6785 81.8625 51.6507 81.8475C51.6023 81.821 50.889 83.3786 50.0551 85.3318C49.5798 86.4451 49.6013 86.4196 49.3996 86.1058C48.8272 85.2141 48.1268 84.2593 47.9321 84.1056C47.6929 83.9165 47.6533 83.8503 47.7793 83.8503C47.8206 83.8503 47.9908 83.7541 48.1571 83.6367C49.6767 82.5647 49.3179 80.8536 47.4737 80.378C46.9981 80.2553 43.9735 80.2009 43.9244 80.3141ZM56.752 80.7769C56.6975 81.4547 56.6262 81.41 57.7639 81.41H58.7453L58.7624 83.9518L58.7796 86.4937L59.5848 86.51L60.3899 86.5263V83.9537V81.381H61.3924H62.3949L62.4136 80.8145L62.4324 80.2481H59.6134H56.7944L56.752 80.7769ZM63.2459 80.3223C63.2289 80.3613 63.2229 81.766 63.2323 83.4436L63.2493 86.4937L65.5334 86.509L67.8176 86.5242V85.9716V85.4188H66.3716H64.9254L64.9177 84.8234C64.9133 84.4957 64.906 84.1624 64.9013 84.0826L64.8926 83.9373L65.9935 83.9215L67.0945 83.9055V83.3854V82.8653L65.9935 82.8495L64.8926 82.8335V82.082V81.3303L66.3552 81.343L67.8176 81.3556V80.8019V80.248L65.5472 80.2496C63.8214 80.2509 63.2693 80.2685 63.2459 80.3223ZM76.8612 80.6983C76.6143 81.2884 76.5949 81.3456 76.6769 81.2441C76.7215 81.1889 76.7543 81.1846 76.7856 81.2296C76.8103 81.2649 76.7962 81.2939 76.7539 81.2939C76.7099 81.2939 76.6949 81.3345 76.7186 81.3891C76.7548 81.4725 76.746 81.4743 76.6473 81.4038C76.5728 81.3501 76.5513 81.3475 76.5841 81.3955C76.6111 81.4355 76.602 81.4682 76.5637 81.4682C76.5254 81.4682 76.499 81.4877 76.5049 81.5117C76.5109 81.5357 76.449 81.6859 76.3677 81.8459C76.2168 82.1422 75.6895 83.325 74.854 85.2416C74.5969 85.831 74.402 86.3488 74.4209 86.392C74.4396 86.4353 74.4258 86.4546 74.3899 86.4351C74.3543 86.4156 74.325 86.4273 74.325 86.4612C74.325 86.501 74.591 86.5227 75.0751 86.5227C75.9853 86.5227 76.0261 86.4948 76.3259 85.6638L76.5188 85.1284H77.8815H79.2441L79.4563 85.6915C79.7589 86.4945 79.8012 86.5227 80.698 86.5227C81.0974 86.5227 81.4241 86.5103 81.4241 86.4952C81.4241 86.4265 81.007 85.5439 80.8929 85.3708C80.8227 85.2646 80.7821 85.1534 80.8027 85.1239C80.8233 85.0943 80.8099 85.0703 80.7727 85.0703C80.7355 85.0703 80.724 85.0268 80.747 84.9736C80.7753 84.9086 80.7638 84.8908 80.7121 84.9189C80.6655 84.9444 80.6352 84.9239 80.6352 84.8669C80.6352 84.8152 80.6118 84.7857 80.5831 84.8014C80.5546 84.8171 80.5263 84.7732 80.5203 84.7038C80.5118 84.6041 80.5225 84.5958 80.5714 84.6643C80.6538 84.7795 80.651 84.7207 80.5631 84.4979C80.5235 84.3974 80.4652 84.315 80.4337 84.315C80.4022 84.315 80.3954 84.2715 80.4184 84.2183C80.449 84.1481 80.4365 84.1346 80.3733 84.1693C80.3152 84.2009 80.302 84.1943 80.3335 84.1492C80.3748 84.0902 80.2524 83.7667 79.7806 82.6882C79.7178 82.5445 79.4878 82.0084 79.2699 81.4972C79.052 80.986 78.8364 80.4957 78.7907 80.4079L78.7079 80.2481H77.8788H77.0497L76.8612 80.6983ZM82.0587 82.2814C82.0346 83.3959 82.0346 84.8069 82.0585 85.417L82.1023 86.5262L82.8971 86.51L83.6918 86.4937L83.7098 85.4707L83.7275 84.4476L84.597 84.415C86.4901 84.3442 87.3718 83.6754 87.3718 82.3106C87.3718 80.7303 86.4618 80.2483 83.4887 80.2528L82.1025 80.255L82.0587 82.2814ZM84.5538 81.352C85.3561 81.352 85.7047 81.6187 85.7515 82.2685C85.8089 83.0636 85.5248 83.2902 84.437 83.3175L83.6703 83.3369L83.662 82.3444L83.6539 81.352H83.8535C83.9667 81.352 84.0556 81.3204 84.0584 81.2793C84.0625 81.2212 84.0703 81.2212 84.0969 81.2793C84.1186 81.327 84.2763 81.352 84.5538 81.352ZM29.4343 81.5094C29.9812 81.7241 30.5469 82.3646 30.5483 82.7701C30.5486 82.837 30.593 82.9665 30.6469 83.0579C30.7563 83.2435 30.7782 83.3462 30.6794 83.2112C30.6345 83.1496 30.6154 83.229 30.6147 83.4809C30.6107 84.8721 29.3947 85.703 27.9357 85.3113C26.0663 84.8094 26.1867 81.6316 28.083 81.4233C28.1915 81.4113 28.3028 81.3821 28.3305 81.3585C28.4118 81.2886 29.1181 81.3851 29.4343 81.5094ZM47.0892 81.5117C48.0291 82.1031 47.4646 83.1561 46.1833 83.2016L45.5347 83.2247V82.2979C45.5347 81.7883 45.547 81.3605 45.5619 81.3471C45.6611 81.2591 46.9 81.3926 47.0892 81.5117ZM53.4633 82.3774C53.5131 82.4781 53.5538 82.6039 53.5538 82.6569C53.5538 82.7099 53.5808 82.7386 53.6134 82.7206C53.6463 82.7027 53.6576 82.7404 53.6387 82.8043C53.6187 82.872 53.6367 82.9207 53.6815 82.9207C53.7242 82.9207 53.7412 82.946 53.7195 82.977C53.6978 83.0081 53.7263 83.1126 53.783 83.2095C53.8396 83.3062 53.8727 83.3854 53.8564 83.3854C53.84 83.3854 53.8838 83.5286 53.9532 83.7035C54.0228 83.8785 54.0798 84.0484 54.0798 84.0812C54.0798 84.1191 53.7338 84.1407 53.1267 84.1407C52.5402 84.1407 52.1735 84.1186 52.1735 84.0831C52.1735 84.0514 52.3667 83.5141 52.6027 82.889C52.8385 82.264 53.0115 81.7238 52.9868 81.6886C52.9598 81.6499 52.9722 81.6409 53.0179 81.6659C53.0601 81.6889 53.0956 81.6736 53.0981 81.6314C53.1003 81.5896 53.1631 81.6991 53.2375 81.8749C53.3118 82.0506 53.4133 82.2767 53.4633 82.3774ZM77.9997 81.8749C78.046 82.0348 78.1033 82.155 78.1271 82.142C78.1508 82.129 78.175 82.187 78.1807 82.2707C78.1865 82.3546 78.2218 82.4323 78.2591 82.4433C78.2967 82.4543 78.3091 82.5052 78.2869 82.5562C78.2622 82.6134 78.2733 82.6345 78.3161 82.6112C78.3542 82.5904 78.3842 82.6057 78.3827 82.6452C78.3721 82.9022 78.4044 82.9739 78.5155 82.9394C78.6021 82.9123 78.6127 82.9207 78.5583 82.9729C78.4814 83.0469 78.5547 83.3257 78.793 83.8648L78.9149 84.1407H77.9086H76.9026L77.0971 83.6033C77.2042 83.3077 77.3617 82.8867 77.4474 82.6677C77.5658 82.3648 77.5883 82.2327 77.5413 82.1158C77.4855 81.9772 77.4885 81.9724 77.5715 82.0665C77.6555 82.1617 77.6711 82.145 77.7486 81.8777C77.8549 81.511 77.8941 81.5105 77.9997 81.8749ZM42.4249 83.4871C42.4084 83.543 42.3949 83.4973 42.3949 83.3854C42.3949 83.2735 42.4084 83.2278 42.4249 83.2837C42.4415 83.3397 42.4415 83.4311 42.4249 83.4871ZM55.4979 84.2498C55.4782 84.278 55.5397 84.3695 55.6344 84.4532C55.8088 84.6073 55.7763 84.6612 55.5875 84.5311C55.4669 84.4479 55.3867 84.2831 55.4428 84.2335C55.502 84.1811 55.5384 84.1919 55.4979 84.2498Z" fill="#CED6DE"/>
<path fill-rule="evenodd" clip-rule="evenodd" d="M54.1955 22.1904C54.2772 22.2043 54.3955 22.2038 54.4583 22.1893C54.5213 22.1748 54.4544 22.1634 54.3097 22.1641C54.1652 22.1646 54.1137 22.1766 54.1955 22.1904ZM32.7484 29.7167L32.224 30.1961L32.7663 29.7326C33.27 29.3022 33.3385 29.2374 33.2906 29.2374C33.2808 29.2374 33.0367 29.4531 32.7484 29.7167ZM73.9963 29.7312C74.302 30.0029 74.567 30.2251 74.5849 30.2251C74.603 30.2251 74.3678 30.0029 74.062 29.7312C73.7564 29.4596 73.4915 29.2374 73.4734 29.2374C73.4553 29.2374 73.6905 29.4596 73.9963 29.7312ZM36.362 32.5055L36.1022 32.7525L36.3816 32.5227C36.6414 32.3091 36.6912 32.2586 36.6414 32.2586C36.6306 32.2586 36.505 32.3696 36.362 32.5055ZM66.8316 35.2506C66.9543 35.3625 67.0693 35.4541 67.0875 35.4541C67.1056 35.4541 67.0199 35.3625 66.8973 35.2506C66.7747 35.1387 66.6596 35.0474 66.6415 35.0474C66.6234 35.0474 66.709 35.1387 66.8316 35.2506ZM67.4889 35.8207C67.4889 35.8307 67.5851 35.9158 67.7024 36.0096L67.9162 36.1802L67.723 35.9915C67.5432 35.8154 67.4889 35.7759 67.4889 35.8207ZM45.9125 38.9228C45.9938 38.9367 46.127 38.9367 46.2083 38.9228C46.2896 38.909 46.2232 38.8976 46.0604 38.8976C45.8978 38.8976 45.8312 38.909 45.9125 38.9228ZM25.6384 43.3409C26.174 43.3505 27.0318 43.3505 27.5447 43.3407C28.0576 43.331 27.6196 43.323 26.5711 43.323C25.5228 43.323 25.103 43.331 25.6384 43.3409ZM61.4538 43.7475C62.0571 43.757 63.0628 43.757 63.6887 43.7475C64.3147 43.738 63.8212 43.7302 62.5919 43.73C61.3627 43.73 60.8505 43.7379 61.4538 43.7475ZM28.9869 47.3932C28.9877 47.5211 29.0011 47.5666 29.0167 47.4943C29.0326 47.4221 29.0318 47.3175 29.0154 47.2618C28.999 47.2063 28.9862 47.2655 28.9869 47.3932ZM64.5147 50.7749C64.596 50.7888 64.729 50.7888 64.8103 50.7749C64.8918 50.7611 64.8252 50.7498 64.6624 50.7498C64.4998 50.7498 64.4332 50.7611 64.5147 50.7749ZM45.2881 53.1577C45.3875 53.1709 45.5501 53.1709 45.6497 53.1577C45.7492 53.1444 45.6677 53.1334 45.4688 53.1334C45.27 53.1334 45.1887 53.1444 45.2881 53.1577ZM45.3209 58.0398C46.0531 58.0491 47.251 58.0491 47.9831 58.0398C48.7153 58.0305 48.1161 58.0228 46.652 58.0228C45.1879 58.0228 44.589 58.0305 45.3209 58.0398ZM39.5202 60.3204C39.8077 60.576 40.0578 60.7851 40.0759 60.7851C40.0938 60.7851 39.8735 60.576 39.586 60.3204C39.2985 60.0646 39.0483 59.8555 39.0302 59.8555C39.0123 59.8555 39.2327 60.0646 39.5202 60.3204ZM36.398 63.4176C36.398 63.4276 36.494 63.5127 36.6116 63.6065L36.8251 63.7771L36.6321 63.5884C36.4522 63.4123 36.398 63.3728 36.398 63.4176ZM70.0489 63.6756L69.8223 63.8933L70.0689 63.6931C70.2983 63.5068 70.3456 63.4576 70.2954 63.4576C70.2845 63.4576 70.1736 63.5557 70.0489 63.6756ZM74.288 65.9123L74.0948 66.1012L74.3086 65.9304C74.4261 65.8366 74.5221 65.7517 74.5221 65.7417C74.5221 65.6968 74.468 65.7363 74.288 65.9123ZM73.6655 66.4642L73.3061 66.7983L73.6841 66.4807C74.0352 66.1857 74.0922 66.1302 74.0433 66.1302C74.0331 66.1302 73.863 66.2804 73.6655 66.4642ZM53.8647 73.7249C53.9812 73.7377 54.1884 73.738 54.3248 73.7254C54.4612 73.7129 54.3657 73.7024 54.1125 73.702C53.8596 73.7018 53.7479 73.712 53.8647 73.7249ZM42.5353 80.8291C42.5353 81.1646 42.5461 81.3019 42.5595 81.1341C42.5727 80.9664 42.5727 80.6919 42.5595 80.5242C42.5461 80.3564 42.5353 80.4936 42.5353 80.8291ZM45.5609 82.1944C45.5611 82.6738 45.5713 82.8621 45.5835 82.613C45.5958 82.3638 45.5958 81.9718 45.5833 81.7416C45.5709 81.5113 45.5609 81.7152 45.5609 82.1944ZM65.4049 81.3952C65.6867 81.4062 66.1304 81.4061 66.391 81.3951C66.6513 81.3841 66.4208 81.3752 65.8784 81.3752C65.3362 81.3754 65.123 81.3844 65.4049 81.3952ZM65.5992 82.8477C65.8793 82.8586 66.3378 82.8586 66.6179 82.8477C66.8982 82.8367 66.6688 82.8279 66.1086 82.8279C65.5483 82.8279 65.3189 82.8367 65.5992 82.8477ZM58.708 84.1117C58.708 84.6869 58.718 84.9144 58.7299 84.6172C58.7418 84.3199 58.7418 83.8494 58.7297 83.5714C58.7178 83.2934 58.708 83.5366 58.708 84.1117ZM66.4851 83.9502C66.6017 83.9631 66.8088 83.9634 66.9452 83.9507C67.0816 83.9382 66.9861 83.9277 66.733 83.9274C66.48 83.9272 66.3683 83.9374 66.4851 83.9502ZM60.4153 85.4771C60.4153 85.8765 60.4257 86.0399 60.4385 85.8401C60.4513 85.6405 60.4513 85.3137 60.4385 85.1139C60.4257 84.9142 60.4153 85.0776 60.4153 85.4771ZM22.1516 85.4026C22.2514 85.4159 22.3993 85.4156 22.4802 85.4017C22.5612 85.3879 22.4793 85.3771 22.2986 85.3774C22.1178 85.3779 22.0516 85.3892 22.1516 85.4026ZM71.7122 85.4009C71.7754 85.4156 71.879 85.4156 71.9421 85.4009C72.0055 85.3862 71.9537 85.3744 71.8273 85.3744C71.7007 85.3744 71.6488 85.3862 71.7122 85.4009ZM36.2944 86.1161L36.2993 86.5519L36.8251 86.5554L37.3511 86.5589L36.8445 86.5386L36.3378 86.5183L36.3137 86.0992L36.2894 85.6804L36.2944 86.1161ZM33.4894 86.5655C33.643 86.5776 33.8945 86.5776 34.048 86.5655C34.2018 86.5531 34.0759 86.5431 33.7686 86.5431C33.4613 86.5431 33.3357 86.5531 33.4894 86.5655ZM44.2036 86.5656C44.3933 86.5775 44.7039 86.5775 44.8938 86.5656C45.0836 86.5539 44.9282 86.5443 44.5486 86.5443C44.169 86.5443 44.0138 86.5539 44.2036 86.5656ZM49.2022 86.5661C49.5021 86.577 49.9755 86.5768 50.2539 86.5659C50.5324 86.5551 50.2869 86.5463 49.7085 86.5463C49.1301 86.5464 48.9022 86.5553 49.2022 86.5661ZM55.5442 86.5656C55.717 86.5776 55.9832 86.5775 56.1358 86.5653C56.2884 86.5531 56.1469 86.5433 55.8215 86.5434C55.4963 86.5436 55.3714 86.5536 55.5442 86.5656ZM59.061 86.5658C59.2521 86.5775 59.5479 86.5775 59.7184 86.5655C59.8888 86.5536 59.7326 86.5439 59.3711 86.5441C59.0095 86.5443 58.8701 86.5539 59.061 86.5658ZM63.5969 86.5659C63.8242 86.5773 64.1792 86.5771 64.3856 86.5656C64.5922 86.5543 64.4062 86.5449 63.9723 86.5449C63.5384 86.5451 63.3696 86.5546 63.5969 86.5659ZM74.5057 86.5655C74.6595 86.5776 74.9107 86.5776 75.0645 86.5655C75.218 86.5531 75.0924 86.5431 74.7851 86.5431C74.4778 86.5431 74.3521 86.5531 74.5057 86.5655ZM80.2901 86.5655C80.4438 86.5776 80.6951 86.5776 80.8488 86.5655C81.0024 86.5531 80.8768 86.5431 80.5695 86.5431C80.2621 86.5431 80.1365 86.5531 80.2901 86.5655ZM82.3279 86.5656C82.5176 86.5775 82.8281 86.5775 83.0179 86.5656C83.2077 86.5539 83.0525 86.5443 82.6729 86.5443C82.2933 86.5443 82.1379 86.5539 82.3279 86.5656Z" fill="#5C4A35"/>
<path fill-rule="evenodd" clip-rule="evenodd" d="M53.1416 22.1913C53.2584 22.2041 53.4653 22.2043 53.6017 22.1918C53.7381 22.1793 53.6426 22.1688 53.3895 22.1685C53.1365 22.1681 53.0248 22.1785 53.1416 22.1913ZM55.2135 22.2475C55.2769 22.2622 55.3805 22.2622 55.4437 22.2475C55.5069 22.233 55.4552 22.221 55.3286 22.221C55.202 22.221 55.1503 22.233 55.2135 22.2475ZM64.2681 24.0667C64.3583 24.1182 64.314 24.1505 64.181 24.1302C64.1511 24.1257 64.1457 24.1487 64.1685 24.1816C64.1968 24.2221 64.2543 24.2204 64.3468 24.1767C64.482 24.1127 64.4136 24.0103 64.2353 24.0103C64.1991 24.0103 64.2138 24.0357 64.2681 24.0667ZM65.4223 24.5259C65.394 24.5664 65.4532 24.6044 65.5798 24.6268C65.6913 24.6464 65.7969 24.683 65.8143 24.7078C65.8316 24.7326 65.7792 24.7385 65.6979 24.7208C65.6164 24.7031 65.5734 24.7111 65.6022 24.7386C65.6637 24.7973 66.1748 24.8117 66.1342 24.7535C66.1035 24.7095 65.6298 24.5629 65.59 24.5852C65.576 24.5931 65.5428 24.5682 65.516 24.5302C65.4809 24.4799 65.4553 24.4787 65.4223 24.5259ZM66.503 24.9963C66.4313 25.0371 66.428 25.0528 66.4904 25.0535C66.5378 25.054 66.5594 25.0786 66.5387 25.1085C66.5178 25.1382 66.5353 25.1814 66.5774 25.2044C66.6989 25.2707 67.0944 25.2829 67.0944 25.2204C67.0944 25.1892 67.068 25.1782 67.0358 25.1959C67.0033 25.2135 66.9592 25.1872 66.9375 25.1375C66.916 25.0876 66.8685 25.0633 66.832 25.0831C66.7956 25.103 66.7658 25.0925 66.7658 25.0596C66.7658 25.0268 66.7166 25.0166 66.6564 25.037C66.583 25.062 66.5627 25.0518 66.5947 25.0061C66.6521 24.9241 66.6328 24.9221 66.503 24.9963ZM53.1122 26.3752C53.285 26.3872 53.5511 26.3871 53.7038 26.3749C53.8564 26.3627 53.7149 26.3529 53.3895 26.3531C53.0642 26.3534 52.9394 26.3632 53.1122 26.3752ZM64.6132 28.6368C64.4822 28.6836 64.5179 28.7473 64.679 28.7543C64.7603 28.758 64.7897 28.7482 64.7443 28.7327C64.6988 28.7173 64.6784 28.6808 64.6988 28.6515C64.7392 28.5939 64.7354 28.5933 64.6132 28.6368ZM65.6026 29.1038C65.7032 29.1268 65.7081 29.1457 65.6354 29.2277C65.5588 29.3143 65.5621 29.3163 65.6641 29.2454C65.7954 29.1544 65.7584 29.06 65.5953 29.07C65.4987 29.0758 65.4996 29.0802 65.6026 29.1038ZM66.2101 29.5239C66.1891 29.5537 66.2069 29.5969 66.2491 29.6201C66.2972 29.6462 66.3085 29.6369 66.2791 29.5951C66.2516 29.5555 66.2735 29.528 66.3327 29.528C66.3993 29.528 66.4189 29.5605 66.3912 29.6246C66.3629 29.6899 66.3744 29.7076 66.4264 29.6791C66.4706 29.6549 66.5211 29.6764 66.544 29.7291C66.5723 29.7945 66.6076 29.8042 66.6645 29.7623C66.7089 29.7298 66.7587 29.7153 66.7753 29.7298C66.7919 29.7445 66.8053 29.6976 66.8053 29.6256C66.8053 29.5404 66.7658 29.4947 66.6919 29.4947C66.6294 29.4947 66.5926 29.5154 66.6102 29.5404C66.6277 29.5655 66.6126 29.5861 66.5764 29.5861C66.5402 29.5861 66.4925 29.5599 66.47 29.528C66.4189 29.4548 66.2601 29.4523 66.2101 29.5239ZM67.5904 30.3374C67.5695 30.3671 67.5872 30.4103 67.6295 30.4334C67.6804 30.4613 67.6887 30.4501 67.6542 30.4009C67.6195 30.3511 67.6325 30.3352 67.6934 30.3532C67.7436 30.3679 67.7847 30.4106 67.7847 30.4479C67.7847 30.4853 67.9549 30.6339 68.1626 30.7781C68.3705 30.9222 68.5406 31.0274 68.5406 31.0117C68.5406 30.996 68.3854 30.8746 68.1956 30.7421C68.0058 30.6094 67.85 30.4846 67.8494 30.4646C67.8457 30.3256 67.6617 30.2352 67.5904 30.3374ZM53.1759 30.5572C53.2753 30.5705 53.438 30.5705 53.5374 30.5572C53.6368 30.544 53.5555 30.533 53.3566 30.533C53.1578 30.533 53.0765 30.544 53.1759 30.5572ZM69.658 31.8809C69.7806 31.9928 69.8959 32.0844 69.914 32.0844C69.9319 32.0844 69.8465 31.9928 69.7238 31.8809C69.6012 31.7691 69.486 31.6777 69.468 31.6777C69.4499 31.6777 69.5354 31.7691 69.658 31.8809ZM61.0326 31.9783C61.086 32.0255 61.089 32.0689 61.0426 32.1184C60.9964 32.1676 60.9973 32.2023 61.0456 32.2288C61.0845 32.2499 61.1081 32.2326 61.0982 32.1903C61.0867 32.1416 61.1345 32.1184 61.228 32.1272C61.3093 32.1347 61.3759 32.1137 61.3759 32.0802C61.3759 32.0467 61.3463 32.0355 61.3101 32.0552C61.2741 32.075 61.2444 32.0619 61.2444 32.0262C61.2444 31.9905 61.2148 31.9773 61.1788 31.9972C61.1426 32.0168 61.113 32.0053 61.113 31.9715C61.113 31.9376 61.0775 31.91 61.0341 31.91C60.9737 31.91 60.9734 31.926 61.0326 31.9783ZM62.066 32.4329L61.9347 32.4829L62.066 32.4911L62.1975 32.4992L62.066 32.5491C61.9719 32.5848 61.9638 32.6001 62.0371 32.6031C62.0934 32.6053 62.1969 32.5679 62.2671 32.5199C62.3909 32.4352 62.3909 32.4339 62.269 32.4717C62.182 32.4987 62.1579 32.4897 62.1907 32.4427C62.2447 32.3653 62.2439 32.3653 62.066 32.4329ZM62.4277 32.5509C62.4277 32.5819 62.3758 32.6093 62.3126 32.6118C62.2494 32.6143 62.2298 32.6281 62.269 32.6425C62.3082 32.6568 62.409 32.6461 62.4931 32.6186C62.6212 32.5768 62.6282 32.5628 62.5367 32.5316C62.4767 32.5112 62.4277 32.5199 62.4277 32.5509ZM62.6218 32.6681C62.5505 32.708 62.548 32.7218 62.6123 32.7225C62.6635 32.723 62.6784 32.7527 62.6489 32.796C62.6154 32.8454 62.6352 32.8431 62.7108 32.7889C62.8008 32.7243 62.841 32.7232 62.9221 32.7827C62.9774 32.823 63.0355 32.8446 63.0517 32.8302C63.1202 32.7697 62.714 32.6166 62.6218 32.6681ZM39.4181 35.6719L39.1916 35.8898L39.4381 35.6895C39.5736 35.5795 39.6845 35.4814 39.6845 35.4716C39.6845 35.4272 39.6288 35.4691 39.4181 35.6719ZM67.0944 35.4723C67.0944 35.4823 67.1907 35.5671 67.3082 35.661L67.5217 35.8316L67.3288 35.6428C67.1488 35.4668 67.0944 35.4272 67.0944 35.4723ZM27.3719 38.7511C28.0656 38.7604 29.2192 38.7604 29.9355 38.7511C30.652 38.7416 30.0845 38.7339 28.6746 38.7339C27.2646 38.7339 26.6785 38.7416 27.3719 38.7511ZM62.2139 38.8066C62.2954 38.8205 62.4284 38.8205 62.5097 38.8066C62.5912 38.7928 62.5246 38.7815 62.3618 38.7815C62.1992 38.7815 62.1326 38.7928 62.2139 38.8066ZM49.0349 38.8638C49.0981 38.8785 49.2017 38.8785 49.2648 38.8638C49.3282 38.8492 49.2764 38.8373 49.15 38.8373C49.0234 38.8373 48.9715 38.8492 49.0349 38.8638ZM49.8921 38.8668C50.1375 38.8782 50.5222 38.878 50.7465 38.8667C50.971 38.8553 50.7701 38.8462 50.3002 38.8463C49.8302 38.8465 49.6465 38.8557 49.8921 38.8668ZM45.0261 38.9235C45.1261 38.9369 45.274 38.9365 45.3547 38.9227C45.4356 38.909 45.354 38.898 45.173 38.8985C44.9923 38.8988 44.9263 38.9102 45.0261 38.9235ZM69.6554 40.6975C69.8165 40.8492 69.957 40.9735 69.9676 40.9735C70.0168 40.9735 69.9647 40.9213 69.6744 40.6805L69.3622 40.4215L69.6554 40.6975ZM38.4994 41.7141L38.0742 42.1063L38.5179 41.7303C38.7618 41.5236 38.9616 41.3471 38.9616 41.3381C38.9616 41.2954 38.8946 41.35 38.4994 41.7141ZM28.5759 43.3334C28.9566 43.3766 29.5474 43.3812 29.5191 43.3409C29.5022 43.317 29.2462 43.3012 28.95 43.306C28.6538 43.3109 28.4855 43.3232 28.5759 43.3334ZM59.1838 43.7476C59.167 43.7716 59.35 43.7839 59.5907 43.7751C60.3533 43.7472 60.4427 43.7229 59.8186 43.7134C59.4864 43.7082 59.2008 43.7237 59.1838 43.7476ZM62.2139 43.8613C62.2954 43.8751 62.4284 43.8751 62.5097 43.8613C62.5912 43.8475 62.5246 43.8361 62.3618 43.8361C62.1992 43.8361 62.1326 43.8475 62.2139 43.8613ZM24.3692 45.2728C24.3692 45.3812 24.3867 45.3967 24.4481 45.3425C24.5094 45.2883 24.5094 45.2573 24.4481 45.2031C24.3867 45.1487 24.3692 45.1642 24.3692 45.2728ZM60.3819 46.5074C60.3389 46.5792 60.2608 46.7034 60.2084 46.7833C60.1171 46.9227 60.1176 46.9239 60.2237 46.8123C60.3548 46.6746 60.5385 46.3766 60.4925 46.3766C60.4748 46.3766 60.4251 46.4355 60.3819 46.5074ZM24.2636 46.7493C24.2439 46.7947 24.2385 46.9057 24.2515 46.9962C24.2707 47.1306 24.2811 47.1155 24.3075 46.914C24.3407 46.6599 24.3262 46.6052 24.2636 46.7493ZM28.987 46.9866C28.9877 47.1145 29.0011 47.16 29.0168 47.0876C29.0326 47.0154 29.0319 46.9107 29.0154 46.8552C28.999 46.7997 28.9862 46.8588 28.987 46.9866ZM77.7627 47.248C77.7627 47.4238 77.775 47.4958 77.7901 47.4079C77.8052 47.3201 77.8052 47.1762 77.7901 47.0883C77.775 47.0004 77.7627 47.0723 77.7627 47.248ZM33.703 47.4321C33.703 47.5972 33.7217 47.7157 33.7445 47.6956C33.8039 47.643 33.8111 47.1318 33.7522 47.1318C33.7253 47.1318 33.703 47.267 33.703 47.4321ZM33.7226 48.4101C33.7226 48.5858 33.7351 48.6577 33.7502 48.5698C33.7651 48.4819 33.7651 48.3382 33.7502 48.2503C33.7351 48.1624 33.7226 48.2343 33.7226 48.4101ZM77.7618 48.6133C77.7624 48.7732 77.775 48.8316 77.7901 48.7434C77.8054 48.655 77.8048 48.5243 77.7893 48.4529C77.7737 48.3814 77.7612 48.4536 77.7618 48.6133ZM24.2556 48.933C24.2556 49.0767 24.2685 49.1356 24.2841 49.0637C24.2998 48.9918 24.2998 48.8741 24.2841 48.8022C24.2685 48.7304 24.2556 48.7891 24.2556 48.933ZM28.987 48.904C28.9877 49.0317 29.0011 49.0772 29.0168 49.0048C29.0326 48.9326 29.0319 48.8281 29.0154 48.7726C28.999 48.7169 28.9862 48.7761 28.987 48.904ZM24.3186 49.9206C24.3186 50.0325 24.3322 50.0782 24.3486 50.0223C24.3652 49.9664 24.3652 49.8749 24.3486 49.8189C24.3322 49.763 24.3186 49.8087 24.3186 49.9206ZM65.0404 50.775C65.1217 50.7888 65.2549 50.7888 65.3362 50.775C65.4175 50.7611 65.351 50.7498 65.1883 50.7498C65.0257 50.7498 64.9591 50.7611 65.0404 50.775ZM45.9769 53.1579C46.0935 53.1708 46.3006 53.1711 46.437 53.1584C46.5734 53.1459 46.4779 53.1354 46.2248 53.1351C45.9718 53.1349 45.8601 53.1451 45.9769 53.1579ZM60.8062 55.9339C60.8062 55.9817 60.8207 56.0082 60.8385 55.9924C60.8562 55.9767 60.9153 55.9964 60.9696 56.0361C61.0567 56.0996 61.0575 56.0928 60.9762 55.9774C60.8696 55.826 60.8062 55.8098 60.8062 55.9339ZM61.6187 57.2615C61.5946 57.3175 61.6008 57.349 61.6327 57.3315C61.7097 57.2897 61.7834 57.4652 61.7249 57.5513C61.6998 57.5885 61.7295 57.5828 61.7906 57.5389C61.9319 57.4377 61.9321 57.4924 61.7911 57.6933L61.6806 57.8511L61.8304 57.7169C61.9781 57.5843 61.9228 57.1868 61.7683 57.2711C61.7395 57.287 61.704 57.2683 61.6895 57.2298C61.6731 57.1864 61.6463 57.1984 61.6187 57.2615ZM62.0113 57.6865C61.9424 57.7474 61.9602 57.8329 62.0332 57.7931C62.0694 57.7732 62.099 57.7979 62.099 57.8477C62.099 57.8974 62.1296 57.9383 62.1669 57.9383C62.2113 57.9383 62.2081 57.8926 62.1581 57.8076C62.0585 57.6381 62.0624 57.6413 62.0113 57.6865ZM62.1428 58.0352C62.0594 58.1087 62.099 58.1847 62.1871 58.1202C62.2356 58.0845 62.2996 58.0749 62.3292 58.0985C62.3588 58.1222 62.3616 58.1089 62.3356 58.069C62.2833 57.9886 62.2098 57.9758 62.1428 58.0352ZM62.2962 58.2288C62.2337 58.2644 62.2269 58.2854 62.2777 58.2859C62.3258 58.2864 62.3413 58.3275 62.3165 58.3885C62.2937 58.4445 62.3003 58.47 62.3311 58.4452C62.3618 58.4205 62.4254 58.4729 62.4724 58.5614C62.5499 58.7078 62.5539 58.7093 62.5152 58.5774C62.4918 58.4974 62.4724 58.3995 62.472 58.3595C62.4718 58.3195 62.445 58.2868 62.4127 58.2868C62.3805 58.2868 62.3724 58.2608 62.3948 58.2288C62.4452 58.1566 62.4224 58.1566 62.2962 58.2288ZM62.17 58.4667C62.1669 58.5176 62.2239 58.6066 62.2962 58.6645C62.3684 58.7223 62.4277 58.7408 62.4277 58.7055C62.4277 58.6701 62.3877 58.6203 62.3386 58.5948C62.2897 58.5692 62.233 58.5091 62.2124 58.4612C62.1807 58.387 62.1743 58.3878 62.17 58.4667ZM62.6574 58.752C62.635 58.7842 62.6625 58.8262 62.7189 58.8454C62.7751 58.8644 62.8046 58.9039 62.7842 58.9329C62.7638 58.9621 62.7167 58.9693 62.6795 58.9489C62.6387 58.9267 62.642 58.9619 62.6872 59.0368C62.7289 59.1055 62.7891 59.1472 62.8214 59.1297C62.8536 59.112 62.9445 59.157 63.0234 59.2297L63.167 59.3616L63.0908 59.2309C63.0489 59.159 62.9844 59.1002 62.9472 59.1002C62.9102 59.1002 62.9021 59.0675 62.9293 59.0276C62.9628 58.9783 62.943 58.9806 62.8674 59.0348C62.7427 59.1242 62.7138 59.0448 62.8331 58.9394C62.8915 58.8877 62.8838 58.8629 62.8004 58.8345C62.7404 58.8142 62.7076 58.7742 62.7276 58.7455C62.7476 58.717 62.7493 58.6935 62.7312 58.6935C62.7131 58.6935 62.6799 58.7198 62.6574 58.752ZM71.4292 62.4554L71.2027 62.6733L71.4492 62.473C71.6786 62.2868 71.726 62.2376 71.6758 62.2376C71.6649 62.2376 71.5539 62.3356 71.4292 62.4554ZM62.7595 63.048C62.7069 63.0773 62.6357 63.086 62.6014 63.0672C62.5669 63.0483 62.5599 63.0632 62.5857 63.1C62.6142 63.141 62.5861 63.1687 62.5137 63.1712C62.4037 63.175 62.4041 63.1785 62.5197 63.2187C62.6542 63.2652 62.2871 63.4443 62.1228 63.4121C62.0819 63.4041 62.0302 63.439 62.0081 63.4897C61.9823 63.5495 61.924 63.5694 61.8419 63.5464C61.7725 63.527 61.6968 63.5379 61.6738 63.5709C61.6482 63.6076 61.6753 63.6159 61.7447 63.5924C61.824 63.5656 61.8427 63.5754 61.8076 63.6256C61.78 63.6649 61.9673 63.6037 62.2237 63.4897C62.4803 63.3755 62.6827 63.2581 62.6738 63.2287C62.665 63.1994 62.7169 63.1352 62.7891 63.086C62.9327 62.9883 62.9125 62.9624 62.7595 63.048ZM61.458 63.75C61.238 63.8282 61.2792 63.8679 61.5074 63.7975C61.6159 63.7641 61.7046 63.7263 61.7046 63.7134C61.7046 63.6789 61.6246 63.6908 61.458 63.75ZM68.9351 64.5693L68.6393 64.8063L68.9177 64.6215C69.1598 64.461 69.3152 64.3254 69.2511 64.3309C69.24 64.3317 69.0977 64.4391 68.9351 64.5693ZM74.8796 65.3314L74.6864 65.5201L74.9002 65.3495C75.0177 65.2557 75.1137 65.1706 75.1137 65.1606C75.1137 65.1158 75.0596 65.1553 74.8796 65.3314ZM67.3593 65.6343C67.3154 65.6812 67.2946 65.7532 67.3133 65.7942C67.3335 65.8388 67.3491 65.8254 67.3523 65.7609C67.3555 65.6914 67.3914 65.6645 67.4527 65.6852C67.5165 65.7069 67.5359 65.6897 67.5114 65.6333C67.4661 65.5291 67.4582 65.5291 67.3593 65.6343ZM67.152 65.7526C67.1475 65.7686 67.1401 65.8121 67.1356 65.8494C67.1311 65.8866 67.0863 65.9293 67.0362 65.9441C66.9737 65.9625 66.9615 65.9456 66.9973 65.8908C67.0262 65.8468 67.0247 65.8311 66.9937 65.8559C66.9058 65.9266 66.9011 66.0677 66.9854 66.1102C67.0273 66.1314 67.0399 66.1276 67.0133 66.1017C66.9869 66.0757 67.0141 66.0228 67.0739 65.9842C67.1707 65.9216 67.2569 65.7235 67.1873 65.7235C67.1724 65.7235 67.1565 65.7365 67.152 65.7526ZM66.7658 66.014C66.7658 66.046 66.7438 66.0657 66.7166 66.0579C66.6417 66.0364 66.1742 66.306 66.1742 66.3707C66.1742 66.402 66.1401 66.4089 66.0984 66.386C66.051 66.3602 66.0405 66.3702 66.0701 66.4127C66.0963 66.45 66.1501 66.4631 66.1897 66.4414C66.2293 66.4197 66.3472 66.396 66.4517 66.3888C66.6598 66.3743 66.747 66.3265 66.6772 66.2648C66.6524 66.2429 66.5972 66.256 66.5545 66.2938C66.4563 66.3805 66.2827 66.3845 66.3427 66.2986C66.3674 66.2633 66.4874 66.1976 66.6096 66.1526C66.7939 66.0844 66.9177 65.9558 66.7988 65.9558C66.7807 65.9558 66.7658 65.982 66.7658 66.014ZM65.8516 66.5211C65.8145 66.5778 65.783 66.6034 65.7818 66.5784C65.7809 66.5533 65.72 66.5611 65.6466 66.5958C65.5113 66.6598 65.5255 66.77 65.6688 66.7684C65.7158 66.7679 65.7077 66.745 65.6485 66.7112C65.5394 66.649 65.5549 66.6443 65.9222 66.6306C66.0186 66.627 66.1212 66.6031 66.1503 66.5774C66.1793 66.5518 66.1474 66.5496 66.0793 66.5728C65.9967 66.6008 65.9705 66.5934 66.0003 66.5508C66.0248 66.5156 66.0167 66.4714 65.9822 66.4525C65.9477 66.4337 65.889 66.4646 65.8516 66.5211ZM66.5687 66.5184L66.4044 66.6046L66.5687 66.5716C66.6591 66.5534 66.7553 66.5381 66.7822 66.5377C66.8094 66.5372 66.8317 66.5107 66.8317 66.4787C66.8317 66.4034 66.7702 66.4125 66.5687 66.5184ZM73.0392 66.9581L72.846 67.1469L73.0597 66.9763C73.1771 66.8824 73.2733 66.7975 73.2733 66.7875C73.2733 66.7425 73.2191 66.782 73.0392 66.9581ZM65.4145 66.9716C65.4979 67.0293 65.5111 67.0598 65.4528 67.0598C65.4038 67.0598 65.3811 67.0752 65.4025 67.0942C65.424 67.113 65.4894 67.1047 65.5481 67.0757C65.6385 67.031 65.6266 67.0121 65.4709 66.9533C65.3008 66.8889 65.2966 66.8902 65.4145 66.9716ZM64.1166 67.3528C64.0534 67.418 63.9683 67.4532 63.9276 67.4308C63.8831 67.4067 63.8716 67.4165 63.8987 67.4553C63.9321 67.5029 63.9866 67.503 64.104 67.4558C64.1921 67.4203 64.25 67.3713 64.2328 67.3468C64.2157 67.3221 64.2387 67.2889 64.2841 67.2726C64.3296 67.2564 64.3362 67.2412 64.299 67.2386C64.2619 67.2361 64.1798 67.2874 64.1166 67.3528ZM53.2746 69.541C53.3559 69.5548 53.4889 69.5548 53.5704 69.541C53.6517 69.5271 53.5851 69.5158 53.4225 69.5158C53.2597 69.5158 53.1931 69.5271 53.2746 69.541ZM68.6721 69.8538C68.5629 69.9326 68.552 69.9523 68.6393 69.9125C68.8536 69.8146 68.9725 69.7341 68.9021 69.7346C68.8661 69.7347 68.7625 69.7884 68.6721 69.8538ZM67.6568 70.2283C67.5472 70.3015 67.5423 70.324 67.6229 70.3862C67.6745 70.426 67.6953 70.4349 67.6691 70.4059C67.6063 70.336 67.7406 70.1971 67.8711 70.1971C67.9543 70.1971 67.9494 70.2146 67.8466 70.2875C67.7243 70.374 67.7253 70.3752 67.8687 70.3137C67.9511 70.2783 68.0011 70.2246 67.9798 70.1943C67.9253 70.1161 67.8057 70.1287 67.6568 70.2283ZM66.8673 70.4255C66.8466 70.4552 66.8641 70.4984 66.9064 70.5216C66.9545 70.5479 66.9658 70.5384 66.9366 70.4966C66.8688 70.3997 66.9824 70.4142 67.1312 70.5214C67.2371 70.5975 67.2395 70.608 67.146 70.5819C67.0307 70.5501 66.9349 70.6176 67.006 70.6805C67.0505 70.7197 67.4233 70.5633 67.4233 70.5054C67.4233 70.4851 67.4046 70.4846 67.382 70.5046C67.3593 70.5248 67.2573 70.5029 67.1552 70.4562C66.9367 70.3563 66.9171 70.3543 66.8673 70.4255ZM66.1597 70.8851C66.2204 70.9193 66.1969 70.9511 66.0739 71.0006C65.9678 71.0433 65.9222 71.0952 65.9526 71.1385C65.9903 71.1924 66.0071 71.1922 66.0276 71.138C66.0422 71.0994 66.0857 71.0852 66.1244 71.1062C66.1691 71.1307 66.1752 71.1167 66.1408 71.0677C66.1012 71.0111 66.1173 71.001 66.2012 71.0295C66.3276 71.0723 66.5687 70.981 66.5687 70.8903C66.5687 70.8522 66.5245 70.8529 66.4412 70.8924C66.3565 70.9324 66.3 70.9331 66.2731 70.8944C66.2506 70.8624 66.1971 70.8366 66.154 70.8371C66.098 70.8377 66.0997 70.8514 66.1597 70.8851ZM65.6788 71.2454C65.5722 71.3495 65.5709 71.3595 65.6686 71.3263C65.7298 71.3056 65.7799 71.2636 65.7799 71.2332C65.7799 71.2027 65.8141 71.1966 65.8558 71.2194C65.9028 71.2451 65.9139 71.2352 65.8848 71.1937C65.8235 71.106 65.8207 71.1067 65.6788 71.2454ZM65.1959 71.382C65.0946 71.4315 65.0655 71.4732 65.1136 71.4995C65.1548 71.5219 65.1883 71.5134 65.1883 71.4805C65.1883 71.4477 65.2376 71.4375 65.2978 71.4579C65.3776 71.485 65.3925 71.474 65.3527 71.4172C65.3125 71.3598 65.3279 71.3495 65.4109 71.3776C65.4781 71.4003 65.5075 71.3925 65.4836 71.3585C65.4321 71.2844 65.3872 71.2881 65.1959 71.382ZM51.4011 73.665C51.4645 73.6795 51.5679 73.6795 51.6313 73.665C51.6945 73.6504 51.6428 73.6384 51.5162 73.6384C51.3896 73.6384 51.3379 73.6504 51.4011 73.665ZM55.1479 73.665C55.2111 73.6795 55.3146 73.6795 55.3778 73.665C55.4412 73.6504 55.3893 73.6384 55.2629 73.6384C55.1364 73.6384 55.0847 73.6504 55.1479 73.665ZM52.8801 73.7256C53.0337 73.7377 53.2851 73.7377 53.4389 73.7256C53.5925 73.7134 53.4668 73.7034 53.1595 73.7034C52.8522 73.7034 52.7266 73.7134 52.8801 73.7256ZM27.3951 80.3298C27.1893 80.3955 27.1814 80.4056 27.3131 80.4362C27.4029 80.4568 27.4429 80.4472 27.4176 80.4108C27.3912 80.3731 27.4559 80.3646 27.5981 80.3871C27.7521 80.4115 27.7798 80.4068 27.6885 80.3721L27.5572 80.3219L27.6885 80.2918C27.7609 80.2752 27.7756 80.2606 27.7215 80.2594C27.6672 80.2581 27.5204 80.2898 27.3951 80.3298ZM33.2717 81.8168C33.2717 82.6955 33.2808 83.055 33.2919 82.6157C33.3032 82.1763 33.3032 81.4573 33.2919 81.0179C33.2808 80.5786 33.2717 80.9381 33.2717 81.8168ZM56.7301 80.5967C56.7301 80.8045 56.742 80.8895 56.7565 80.7857C56.7712 80.6818 56.7712 80.5119 56.7565 80.408C56.742 80.3041 56.7301 80.3891 56.7301 80.5967ZM82.0438 81.5845C82.0438 82.3354 82.0532 82.6427 82.0647 82.2672C82.076 81.8917 82.076 81.2772 82.0647 80.9019C82.0532 80.5264 82.0438 80.8335 82.0438 81.5845ZM20.8526 80.397C20.7441 80.4438 20.7094 80.4688 20.7756 80.4525C20.842 80.436 20.9694 80.4225 21.059 80.4225C21.1508 80.4225 21.204 80.3971 21.1812 80.3645C21.129 80.2898 21.0914 80.2934 20.8526 80.397ZM36.2969 83.0078C36.2969 84.5097 36.3054 85.1325 36.3158 84.3918C36.3262 83.651 36.3262 82.4222 36.3158 81.6611C36.3054 80.9 36.2969 81.506 36.2969 83.0078ZM70.5454 80.3675L70.4139 80.4206L70.5454 80.4085C70.6177 80.4018 70.7158 80.418 70.7635 80.4443C70.811 80.4707 70.8693 80.4752 70.8931 80.4542C70.9167 80.4333 70.8925 80.3918 70.8393 80.3621C70.7254 80.2984 70.7163 80.2986 70.5454 80.3675ZM19.6366 81.0906C19.4768 81.2344 19.3609 81.3521 19.3791 81.3521C19.3972 81.3521 19.5426 81.2344 19.7022 81.0906C19.8618 80.9469 19.9776 80.8292 19.9597 80.8292C19.9416 80.8292 19.7962 80.9469 19.6366 81.0906ZM34.9158 83.066C34.9158 84.1844 34.9247 84.6338 34.9354 84.0645C34.9462 83.4952 34.9462 82.5801 34.9352 82.0311C34.9245 81.4818 34.9156 81.9475 34.9158 83.066ZM76.6682 81.2082C76.7022 81.2864 76.6914 81.3009 76.6256 81.2649C76.562 81.2302 76.5488 81.2425 76.5778 81.3097C76.6001 81.3609 76.5829 81.4148 76.5397 81.4296C76.4965 81.4443 76.5258 81.4536 76.6046 81.4503C76.6835 81.447 76.7314 81.4204 76.7112 81.3916C76.691 81.3627 76.7093 81.3201 76.7518 81.2969C76.808 81.2662 76.801 81.2342 76.7257 81.179C76.6373 81.114 76.6292 81.1181 76.6682 81.2082ZM21.8713 81.2409C21.7338 81.284 21.7441 81.2875 21.9349 81.263C22.148 81.2357 22.1543 81.2394 22.0333 81.3201C21.9143 81.3998 21.9324 81.4059 22.2658 81.3996C22.4806 81.3956 22.5472 81.3824 22.4301 81.3674C22.3216 81.3534 22.2092 81.3051 22.1803 81.2599C22.1218 81.1685 22.1054 81.1675 21.8713 81.2409ZM51.891 81.2744C51.919 81.3391 51.9076 81.3573 51.8567 81.3296C51.8061 81.3019 51.7944 81.3199 51.8218 81.3829C51.855 81.459 51.8742 81.4625 51.9188 81.4004C51.9938 81.2957 51.9906 81.1778 51.9127 81.1778C51.8776 81.1778 51.8678 81.2214 51.891 81.2744ZM60.5453 81.3234C60.7832 81.4329 60.8194 81.4329 60.6951 81.3231C60.641 81.275 60.5427 81.236 60.4768 81.2362C60.3912 81.2365 60.4108 81.2614 60.5453 81.3234ZM28.338 81.3633C28.3201 81.3891 28.477 81.4071 28.687 81.4034C29.0805 81.3964 29.0585 81.3746 28.6212 81.3376C28.4834 81.3261 28.3561 81.3376 28.338 81.3633ZM64.9035 81.3327C64.8429 81.3863 64.848 82.7912 64.909 82.8246C64.9361 82.8394 64.9582 82.5011 64.9582 82.0727C64.9582 81.6444 64.9557 81.2941 64.9527 81.2941C64.9497 81.2941 64.9276 81.3114 64.9035 81.3327ZM67.0799 81.3948C67.2344 81.4069 67.471 81.4068 67.6057 81.3943C67.7404 81.3818 67.6138 81.3718 67.3246 81.3719C67.0354 81.3723 66.9252 81.3824 67.0799 81.3948ZM71.6794 81.3931C71.7607 81.4069 71.8937 81.4069 71.9752 81.3931C72.0565 81.3793 71.9899 81.3679 71.8273 81.3679C71.6645 81.3679 71.5979 81.3793 71.6794 81.3931ZM83.6856 82.2817C83.6856 82.8089 83.6956 83.0245 83.7078 82.7609C83.7199 82.4973 83.7199 82.0659 83.7078 81.8023C83.6956 81.5387 83.6856 81.7544 83.6856 82.2817ZM85.1706 81.4263C85.1706 81.4373 85.2668 81.5087 85.3844 81.5847C85.5164 81.6702 85.5624 81.6842 85.5047 81.6214C85.4172 81.5262 85.1706 81.3821 85.1706 81.4263ZM47.4523 82.2623C47.4461 82.3956 47.4238 82.5525 47.4031 82.611C47.3674 82.711 47.3697 82.7112 47.4397 82.615C47.4806 82.5586 47.5027 82.4017 47.4889 82.2663L47.4638 82.0202L47.4523 82.2623ZM67.1182 83.3855C67.1182 83.6892 67.1294 83.8132 67.1429 83.6615C67.1563 83.5097 67.1563 83.2613 67.1429 83.1096C67.1294 82.9578 67.1182 83.082 67.1182 83.3855ZM32.2779 83.3855C32.2779 83.5933 32.2898 83.6782 32.3045 83.5743C32.3191 83.4706 32.3191 83.3005 32.3045 83.1968C32.2898 83.0929 32.2779 83.1778 32.2779 83.3855ZM42.3948 83.3855C42.3948 83.4974 42.4084 83.5431 42.4248 83.4872C42.4414 83.4312 42.4414 83.3398 42.4248 83.2838C42.4084 83.2279 42.3948 83.2736 42.3948 83.3855ZM18.6658 83.676C18.6658 83.7879 18.6794 83.8336 18.6958 83.7777C18.7124 83.7218 18.7124 83.6303 18.6958 83.5743C18.6794 83.5184 18.6658 83.5643 18.6658 83.676ZM86.7777 83.631C86.7885 83.6718 86.7347 83.7704 86.6583 83.8504C86.5819 83.9303 86.63 83.9054 86.7653 83.7954C87.0003 83.604 87.112 83.4717 86.919 83.6133C86.8551 83.6601 86.8162 83.6618 86.7924 83.619C86.7736 83.5848 86.767 83.5903 86.7777 83.631ZM41.0488 84.0537C41.0316 84.1335 41.043 84.1989 41.0741 84.1989C41.1052 84.1989 41.1307 84.1335 41.1307 84.0537C41.1307 83.9738 41.1194 83.9084 41.1054 83.9084C41.0916 83.9084 41.0662 83.9738 41.0488 84.0537ZM64.9035 83.9471C64.8793 83.9685 64.8601 84.0141 64.8607 84.0488C64.8612 84.0877 64.881 84.0848 64.9123 84.0413C64.9452 83.9956 65.2046 83.9641 65.6507 83.9519L66.3385 83.9329L65.643 83.9206C65.2604 83.9139 64.9276 83.9258 64.9035 83.9471ZM32.0682 84.3246C32.001 84.4197 32.0001 84.4588 32.064 84.5107C32.1251 84.5606 32.1331 84.5582 32.0966 84.5014C32.07 84.46 32.0848 84.3875 32.1291 84.3403C32.1736 84.2929 32.1972 84.2429 32.1815 84.2292C32.1661 84.2154 32.1151 84.2584 32.0682 84.3246ZM45.5785 84.2376C45.5543 84.2589 45.5347 84.7802 45.5347 85.3958C45.5347 86.5108 45.5341 86.5153 45.3868 86.5391C45.2581 86.56 45.2602 86.5625 45.4032 86.5575L45.5675 86.552L45.5852 85.4076L45.6032 84.2633L45.9141 84.2416L46.2248 84.2199L45.9235 84.2094C45.7579 84.2036 45.6026 84.2164 45.5785 84.2376ZM55.4454 84.2314C55.3778 84.2909 55.4671 84.4653 55.6035 84.5405C55.7102 84.5996 55.7542 84.6001 55.8129 84.5437C55.8687 84.4902 55.8678 84.4822 55.8091 84.5112C55.72 84.5556 55.4465 84.3234 55.4991 84.2482C55.5378 84.1929 55.5016 84.1815 55.4454 84.2314ZM80.5612 84.5621C80.5204 84.6324 80.5346 84.828 80.5785 84.804C80.6096 84.787 80.6351 84.8153 80.6351 84.867C80.6351 84.9187 80.6621 84.9464 80.6947 84.9286C80.7276 84.9105 80.7389 84.844 80.7202 84.7805C80.7013 84.717 80.6547 84.6821 80.6166 84.703C80.5732 84.7266 80.563 84.7045 80.5891 84.6443C80.6219 84.5686 80.598 84.4982 80.5612 84.5621ZM82.0411 85.7966C82.0413 86.212 82.0517 86.3744 82.0643 86.1573C82.077 85.9404 82.077 85.6004 82.0641 85.4021C82.0513 85.2037 82.0409 85.3813 82.0411 85.7966ZM80.7666 85.1562C80.7666 85.1713 80.8281 85.2694 80.9032 85.3739C81.0173 85.533 81.032 85.5403 80.9932 85.419C80.9675 85.3391 80.9205 85.265 80.889 85.2542C80.8573 85.2435 80.8483 85.2109 80.8687 85.1817C80.8892 85.1523 80.8745 85.1285 80.8362 85.1285C80.7979 85.1285 80.7666 85.141 80.7666 85.1562ZM33.2668 85.9709C33.267 86.2905 33.2782 86.4137 33.2914 86.245C33.3048 86.0761 33.3046 85.8146 33.2912 85.6639C33.2776 85.5133 33.2666 85.6514 33.2668 85.9709ZM19.6694 85.7676C19.8105 85.8953 19.9409 86.0001 19.959 86.0001C19.9771 86.0001 19.8763 85.8953 19.735 85.7676C19.5939 85.6397 19.4636 85.5352 19.4455 85.5352C19.4273 85.5352 19.5281 85.6397 19.6694 85.7676ZM69.3024 85.7011C69.2833 85.7283 69.3407 85.8113 69.4301 85.8855C69.5193 85.9595 69.5924 85.9959 69.5924 85.966C69.5924 85.9362 69.532 85.8785 69.4582 85.8378C69.3846 85.7971 69.342 85.7384 69.3635 85.7076C69.3852 85.6767 69.388 85.6514 69.3699 85.6514C69.352 85.6514 69.3215 85.6737 69.3024 85.7011ZM34.5904 86.5228L34.2618 86.5626L34.57 86.5718C34.7396 86.5768 34.8968 86.5548 34.919 86.5228C34.9413 86.4909 34.9505 86.4689 34.9394 86.4739C34.9281 86.4789 34.7711 86.501 34.5904 86.5228ZM83.4945 86.5228L83.2973 86.5671L83.4743 86.5742C83.5714 86.5778 83.6693 86.5548 83.6918 86.5228C83.7141 86.4909 83.7231 86.4679 83.712 86.4716C83.7009 86.4754 83.6029 86.4985 83.4945 86.5228ZM41.7732 86.5655C41.9279 86.5778 42.1645 86.5777 42.2992 86.5651C42.4337 86.5526 42.3073 86.5426 42.0181 86.5428C41.7289 86.543 41.6187 86.5531 41.7732 86.5655ZM48.2469 86.5645C48.3469 86.578 48.4948 86.5775 48.5757 86.5638C48.6565 86.55 48.5748 86.539 48.394 86.5395C48.2131 86.54 48.1471 86.5511 48.2469 86.5645ZM60.0776 86.563C60.141 86.5775 60.2444 86.5775 60.3078 86.563C60.371 86.5483 60.3193 86.5363 60.1927 86.5363C60.0661 86.5363 60.0145 86.5483 60.0776 86.563ZM65.4677 86.5663C65.8926 86.5763 66.5876 86.5763 67.0124 86.5663C67.4372 86.5561 67.0896 86.5478 66.2401 86.5478C65.3904 86.5478 65.0429 86.5561 65.4677 86.5663Z" fill="#7B7460"/>
<path fill-rule="evenodd" clip-rule="evenodd" d="M51.9271 22.1891C51.9903 22.2038 52.0938 22.2038 52.157 22.1891C52.2204 22.1744 52.1685 22.1626 52.0421 22.1626C51.9156 22.1626 51.8637 22.1744 51.9271 22.1891ZM33.6604 28.812C33.6851 28.8338 33.6087 28.9451 33.4906 29.0589L33.2757 29.2662L33.5196 29.0681C33.7313 28.8964 33.7881 28.7723 33.6553 28.7723C33.6334 28.7723 33.6356 28.7902 33.6604 28.812ZM52.4864 30.5563C52.5683 30.5703 52.6866 30.5698 52.7494 30.5551C52.8122 30.5406 52.7454 30.5293 52.6007 30.53C52.4562 30.5306 52.4047 30.5425 52.4864 30.5563ZM54.0305 30.5553C54.0937 30.57 54.1973 30.57 54.2605 30.5553C54.3237 30.5406 54.272 30.5288 54.1454 30.5288C54.019 30.5288 53.9671 30.5406 54.0305 30.5553ZM70.2958 32.4597C70.3609 32.5387 70.4413 32.6039 70.4747 32.6051C70.5081 32.6061 70.466 32.5414 70.3811 32.4615C70.184 32.2761 70.144 32.2753 70.2958 32.4597ZM70.7758 32.8682C70.8659 32.9641 70.9472 33.0535 70.9563 33.0668C70.9653 33.0801 70.9872 33.0781 71.005 33.0625C71.0225 33.0469 70.9414 32.9576 70.8244 32.864L70.6116 32.694L70.7758 32.8682ZM35.1441 33.6381L34.9847 33.7978L35.1539 33.6666C35.2471 33.5944 35.3478 33.5552 35.3782 33.5795C35.4084 33.6037 35.4118 33.5909 35.3857 33.5508C35.3235 33.4553 35.328 33.4538 35.1441 33.6381ZM51.9305 38.8668C52.2847 38.8771 52.8467 38.8771 53.1793 38.8666C53.5119 38.8561 53.222 38.8476 52.5351 38.8476C51.8482 38.8476 51.576 38.8563 51.9305 38.8668ZM38.9916 41.3244C38.8378 41.4747 38.7931 41.6534 38.9356 41.549C38.9876 41.5107 39.0148 41.4657 38.9957 41.4488C38.9769 41.432 39.0103 41.3703 39.0701 41.3118C39.1301 41.2534 39.1642 41.2054 39.1463 41.2054C39.1282 41.2054 39.0586 41.2591 38.9916 41.3244ZM38.216 42.0092C38.0542 42.1585 38.0498 42.1732 38.1694 42.1653C38.2421 42.1607 38.3243 42.1346 38.3521 42.1075C38.38 42.0804 38.3658 42.0771 38.3206 42.1001C38.204 42.1595 38.2189 42.0761 38.3472 41.9507C38.5228 41.7795 38.4113 41.829 38.216 42.0092ZM46.4017 43.689C46.8605 43.699 47.6296 43.699 48.1107 43.689C48.5919 43.679 48.2165 43.671 47.2765 43.6708C46.3366 43.6708 45.9429 43.679 46.4017 43.689ZM42.1941 45.2192C42.1492 45.2829 42.0858 45.3204 42.0534 45.3028C42.0207 45.2849 41.977 45.2953 41.9558 45.3254C41.9345 45.3558 41.943 45.3946 41.9745 45.4118C42.0364 45.4457 42.3559 45.174 42.3061 45.13C42.2895 45.1153 42.2392 45.1555 42.1941 45.2192ZM63.6601 45.9546C63.9221 45.9656 64.3511 45.9656 64.6132 45.9546C64.8754 45.9436 64.6609 45.9346 64.1366 45.9346C63.6124 45.9346 63.3981 45.9436 63.6601 45.9546ZM28.9913 47.945C28.9913 48.1526 29.0034 48.2376 29.0179 48.1337C29.0324 48.0299 29.0324 47.8599 29.0179 47.7561C29.0034 47.6522 28.9913 47.7372 28.9913 47.945ZM77.7618 47.8578C77.7624 48.0175 77.775 48.076 77.7901 47.9877C77.8054 47.8993 77.8048 47.7686 77.7894 47.6972C77.7737 47.6257 77.7612 47.698 77.7618 47.8578ZM69.6586 48.961C69.6141 49.0086 69.5533 49.0343 69.5237 49.0181C69.4941 49.002 69.4526 49.0135 69.4314 49.0438C69.3432 49.1702 69.5193 49.1502 69.6599 49.018C69.7438 48.9391 69.7961 48.8744 69.7761 48.8744C69.7563 48.8744 69.7033 48.9134 69.6586 48.961ZM64.1038 50.7918C64.0557 50.8605 64.12 50.8605 64.3009 50.7918C64.4277 50.7436 64.4273 50.7416 64.2885 50.7378C64.2093 50.7354 64.1261 50.7598 64.1038 50.7918ZM35.8064 62.8674C35.8064 62.8942 35.8702 62.9662 35.9481 63.0271L36.0896 63.1378L35.9734 62.9779C35.8534 62.8132 35.8064 62.782 35.8064 62.8674ZM70.6728 63.1231L70.4798 63.3121L70.6933 63.1413C70.8925 62.9823 70.9372 62.9344 70.8863 62.9344C70.8752 62.9344 70.779 63.0194 70.6728 63.1231ZM37.0553 63.9512C37.1779 64.0629 37.293 64.1545 37.3111 64.1545C37.3292 64.1545 37.2437 64.0629 37.1209 63.9512C36.9983 63.8393 36.8832 63.7478 36.8651 63.7478C36.847 63.7478 36.9327 63.8393 37.0553 63.9512ZM69.6869 63.9365L69.4937 64.1254L69.7074 63.9547C69.8248 63.861 69.921 63.776 69.921 63.7659C69.921 63.7211 69.8668 63.7606 69.6869 63.9365ZM68.2752 64.972L68.0477 65.1506L68.2941 64.9942C68.512 64.8561 68.5829 64.7936 68.5218 64.7936C68.5114 64.7936 68.4005 64.874 68.2752 64.972ZM52.9814 65.3595C53.227 65.3708 53.6115 65.3707 53.836 65.3593C54.0605 65.348 53.8596 65.3388 53.3895 65.339C52.9195 65.3392 52.736 65.3483 52.9814 65.3595ZM73.1159 66.9369C73.0105 67.0341 72.9618 67.12 73.0005 67.1412C73.0371 67.1612 73.0856 67.151 73.1082 67.1185C73.131 67.086 73.1278 67.0595 73.1014 67.0595C73.0748 67.0595 73.1227 66.9941 73.2076 66.9142C73.2925 66.8342 73.3476 66.769 73.3299 66.769C73.3123 66.769 73.2159 66.8445 73.1159 66.9369ZM72.5274 67.3983C72.4378 67.4857 72.4353 67.5048 72.5134 67.5048C72.5658 67.5048 72.603 67.4765 72.5958 67.442C72.5889 67.4073 72.6222 67.3861 72.6702 67.395C72.7181 67.4036 72.7385 67.3841 72.7156 67.3513C72.6605 67.2727 72.6543 67.2742 72.5274 67.3983ZM71.5971 68.0834C71.479 68.1723 71.4547 68.2077 71.5368 68.1716C71.6573 68.1188 71.8833 67.9275 71.8188 67.933C71.8054 67.9342 71.7056 68.0017 71.5971 68.0834ZM52.2236 69.4826C52.3053 69.4964 52.4236 69.4959 52.4864 69.4814C52.5494 69.4669 52.4824 69.4554 52.3378 69.4561C52.1932 69.4567 52.1417 69.4686 52.2236 69.4826ZM22.2163 80.1717C22.2797 80.1863 22.3833 80.1863 22.4465 80.1717C22.5097 80.157 22.458 80.1452 22.3314 80.1452C22.2048 80.1452 22.1531 80.157 22.2163 80.1717ZM71.7132 80.1733C71.8129 80.1867 71.9608 80.1863 72.0418 80.1725C72.1225 80.1587 72.0408 80.1478 71.8601 80.1483C71.6794 80.1487 71.6132 80.16 71.7132 80.1733ZM37.6601 80.4054C37.7378 80.4786 37.8314 80.5383 37.8682 80.5383C37.9048 80.5383 37.8804 80.5032 37.8137 80.46C37.7471 80.417 37.7097 80.3571 37.7307 80.3272C37.7516 80.2972 37.7125 80.2727 37.6439 80.2727C37.526 80.2727 37.5267 80.2801 37.6601 80.4054ZM19.6716 81.0011C19.5688 81.0958 19.4553 81.1571 19.419 81.1373C19.3802 81.1161 19.374 81.1309 19.4036 81.1735C19.4455 81.2333 19.8993 80.9339 19.8993 80.8465C19.8993 80.8038 19.8463 80.8398 19.6716 81.0011ZM42.5412 83.9081C42.5412 85.298 42.5497 85.8666 42.5603 85.1716C42.5706 84.4767 42.5706 83.3395 42.5603 82.6445C42.5497 81.9493 42.5412 82.5181 42.5412 83.9081ZM58.6807 82.2695L58.7133 83.1237L58.7318 82.315C58.7422 81.8701 58.7275 81.4858 58.6992 81.4608C58.6711 81.4358 58.6628 81.7996 58.6807 82.2695ZM60.4029 82.5573C60.4159 83.7186 60.4404 83.5838 60.4715 82.1796C60.4808 81.7561 60.4663 81.4096 60.4393 81.4097C60.4121 81.4097 60.3957 81.9262 60.4029 82.5573ZM46.1829 83.1591C46.122 83.1931 46.1618 83.2094 46.307 83.2099C46.4245 83.2104 46.5206 83.2009 46.5206 83.1886C46.5206 83.1357 46.2644 83.1134 46.1829 83.1591ZM30.5658 83.3852C30.5658 83.5289 30.5786 83.5877 30.5942 83.5159C30.6099 83.444 30.6099 83.3263 30.5942 83.2544C30.5786 83.1826 30.5658 83.2414 30.5658 83.3852ZM60.4129 84.3148C60.4129 84.5864 60.4242 84.6974 60.4382 84.5617C60.4519 84.4258 60.4519 84.2037 60.4382 84.0678C60.4242 83.9321 60.4129 84.0431 60.4129 84.3148ZM76.9982 84.0049C76.8716 84.1167 77.0361 84.1393 77.8908 84.1277L78.8277 84.115L77.921 84.097C77.3562 84.0858 77.0295 84.0578 77.054 84.0226C77.0991 83.9583 77.0636 83.9469 76.9982 84.0049ZM52.1734 84.0968C52.1734 84.1208 52.5951 84.1365 53.1103 84.1317C54.171 84.1218 54.0946 84.0928 52.9458 84.0691C52.5209 84.0605 52.1734 84.073 52.1734 84.0968ZM84.364 84.4728C84.4807 84.4857 84.6877 84.486 84.8241 84.4733C84.9605 84.4608 84.865 84.4503 84.612 84.45C84.3589 84.4498 84.2474 84.46 84.364 84.4728ZM52.5843 85.1715C52.9369 85.1818 53.5136 85.1818 53.8662 85.1715C54.2186 85.161 53.9301 85.1525 53.2252 85.1525C52.5202 85.1525 52.2319 85.161 52.5843 85.1715ZM58.7065 85.8543C58.7065 86.2698 58.7171 86.4321 58.7298 86.2151C58.7424 85.998 58.7424 85.6582 58.7296 85.4598C58.7167 85.2614 58.7064 85.4389 58.7065 85.8543ZM76.8393 85.1698C76.9387 85.183 77.1013 85.183 77.2008 85.1698C77.3002 85.1565 77.2189 85.1455 77.02 85.1455C76.8212 85.1455 76.7399 85.1565 76.8393 85.1698ZM78.0223 85.1711C78.2302 85.1827 78.5704 85.1827 78.7782 85.1711C78.9861 85.1595 78.8162 85.1501 78.4004 85.1501C77.9846 85.1501 77.8144 85.1595 78.0223 85.1711ZM19.5356 85.7071C19.7011 85.8596 19.7118 85.891 19.6301 85.983C19.5466 86.0769 19.5485 86.0794 19.65 86.0092C19.7116 85.9665 19.8005 85.9507 19.8473 85.974C19.8941 85.9975 19.8154 85.9083 19.6724 85.7758C19.5296 85.6432 19.3983 85.5348 19.3808 85.5348C19.3632 85.5348 19.433 85.6124 19.5356 85.7071ZM47.666 86.4466C47.6757 86.5043 47.7053 86.5471 47.7319 86.5419C47.8319 86.5219 47.8356 86.4789 47.7436 86.4114C47.6662 86.3547 47.6519 86.3614 47.666 86.4466Z" fill="#2E1D0E"/>
</svg>
