<svg width="157" height="112" viewBox="0 0 157 112" fill="none" xmlns="http://www.w3.org/2000/svg">
<path fill-rule="evenodd" clip-rule="evenodd" d="M72.4857 11.7593C69.468 12.348 67.882 16.1189 69.5371 18.7697C71.6627 22.1744 76.6624 21.5994 77.947 17.8026C79.1048 14.3807 76.0989 11.0544 72.4857 11.7593ZM93.9243 26.2216C90.4721 26.954 89.1463 31.4733 91.6412 34.004C94.8713 37.28 100.232 34.6064 99.5994 30.0349C99.2356 27.4026 96.6249 25.6482 93.9243 26.2216ZM60.5102 27.0124C60.5102 27.0705 60.3861 27.118 60.235 27.118C60.0835 27.118 59.8339 27.244 59.6797 27.3979C59.5258 27.5521 59.3716 27.6781 59.3374 27.6781C59.2005 27.6781 58.6051 28.2852 58.6051 28.425C58.6051 28.5074 58.5545 28.5745 58.4928 28.5745C58.4312 28.5745 58.381 28.7974 58.381 29.0694C58.381 29.3418 58.3323 29.5812 58.2727 29.6016C58.2134 29.6224 58.1302 30.1307 58.0882 30.7315C58.0462 31.3324 57.9689 31.8242 57.9163 31.8242C57.8637 31.8242 57.8205 32.1982 57.8205 32.6551C57.8205 33.1841 57.7734 33.502 57.691 33.5295C57.5093 33.5903 57.5128 42.1612 57.6949 42.222C57.7766 42.2495 57.8205 42.653 57.8205 43.3751C57.8205 43.9866 57.8637 44.4866 57.9159 44.4866C57.9685 44.4866 58.0466 45.1546 58.0898 45.9713C58.1329 46.7877 58.2158 47.5039 58.2746 47.5624C58.3331 47.6209 58.381 47.9109 58.381 48.2069C58.381 48.5024 58.4261 48.7446 58.4815 48.7446C58.5364 48.7446 58.6176 49.1484 58.6612 49.6418C58.7048 50.1351 58.7856 50.5664 58.841 50.6006C58.8959 50.6347 58.941 50.8109 58.941 50.9923C58.941 51.1736 58.9917 51.3219 59.0533 51.3219C59.1149 51.3219 59.1651 51.4982 59.1651 51.714C59.1651 51.9299 59.2111 52.1061 59.2668 52.1061C59.3225 52.1061 59.403 52.3585 59.4454 52.6665C59.4878 52.9746 59.5682 53.2266 59.624 53.2266C59.6801 53.2266 59.7256 53.322 59.7256 53.4382C59.7256 53.5543 59.801 53.7937 59.8932 53.9703C59.985 54.147 60.0608 54.4048 60.0612 54.5434C60.0616 54.6819 60.1122 54.7957 60.1738 54.7957C60.2354 54.7957 60.2861 54.9217 60.2861 55.0756C60.2861 55.2298 60.3359 55.3558 60.3967 55.3558C60.4576 55.3558 60.5396 55.5575 60.5788 55.804C60.6185 56.0505 60.6946 56.2522 60.7484 56.2522C60.8022 56.2522 60.8461 56.3487 60.8461 56.4669C60.8461 56.585 60.9015 56.7004 60.9693 56.7228C61.1389 56.7793 61.1389 59.3108 60.9693 59.3673C60.9015 59.39 60.8461 59.5305 60.8461 59.6793C60.8461 59.8284 60.7978 59.9501 60.7394 59.9501C60.6805 59.9501 60.5993 60.1267 60.5588 60.3422C60.518 60.558 60.4403 60.7346 60.3854 60.7346C60.3308 60.7346 60.2861 60.8606 60.2861 61.0145C60.2861 61.1687 60.2378 61.2947 60.1789 61.2947C60.12 61.2947 60.0388 61.4713 59.9984 61.6868C59.9579 61.9027 59.8798 62.0793 59.8253 62.0793C59.7703 62.0793 59.7256 62.2052 59.7256 62.3595C59.7256 62.5133 59.6793 62.6393 59.6224 62.6393C59.5659 62.6393 59.4862 62.7908 59.4454 62.9757C59.4049 63.1605 59.3253 63.3116 59.2684 63.3116C59.2119 63.3116 59.1651 63.4086 59.1651 63.5267C59.1651 63.6448 59.1275 63.7583 59.0812 63.7787C58.9505 63.8368 58.6051 64.6386 58.6051 64.8843C58.6051 65.0056 58.5545 65.1049 58.4928 65.1049C58.4312 65.1049 58.381 65.1802 58.381 65.2728C58.381 65.3651 58.3327 65.4408 58.2738 65.4408C58.215 65.4408 58.1337 65.6174 58.0933 65.8329C58.0529 66.0488 57.9752 66.2254 57.9202 66.2254C57.8657 66.2254 57.8205 66.3007 57.8205 66.3933C57.8205 66.4856 57.7758 66.5613 57.7212 66.5613C57.6663 66.5613 57.5886 66.7379 57.5478 66.9534C57.5073 67.1693 57.4261 67.3459 57.3672 67.3459C57.3084 67.3459 57.2605 67.4719 57.2605 67.6257C57.2605 67.78 57.2224 67.9059 57.1757 67.9059C57.036 67.9059 56.8295 68.4801 56.7122 69.1948C56.5693 70.0646 55.3111 73.2848 55.0194 73.527C54.8962 73.629 54.7953 73.8182 54.7953 73.9469C54.7953 74.0756 54.7569 74.1812 54.7106 74.1812C54.6003 74.1812 54.3719 74.7012 54.2796 75.1624C54.2396 75.3622 54.1627 75.5258 54.1089 75.5258C54.0547 75.5258 54.0108 75.6518 54.0108 75.8061C54.0108 75.9599 53.9653 76.0863 53.9091 76.0863C53.8534 76.0863 53.7729 76.3383 53.7306 76.6464C53.6882 76.9544 53.6077 77.2068 53.552 77.2068C53.4962 77.2068 53.4503 77.3077 53.4503 77.4309C53.4503 77.5541 53.4048 77.655 53.3491 77.655C53.2929 77.655 53.2129 77.907 53.1705 78.2151C53.1281 78.5232 53.0476 78.7755 52.9919 78.7755C52.9358 78.7755 52.8903 78.9015 52.8903 79.0558C52.8903 79.2096 52.8404 79.3356 52.7796 79.3356C52.7188 79.3356 52.6363 79.5373 52.5971 79.7838C52.5578 80.0303 52.4813 80.232 52.4275 80.232C52.3738 80.232 52.3298 80.3584 52.3298 80.5122C52.3298 80.6665 52.2796 80.7924 52.218 80.7924C52.1563 80.7924 52.1057 80.9157 52.1057 81.066C52.1057 81.2163 52.0598 81.3678 52.0037 81.4028C51.9471 81.4377 51.8671 81.6673 51.8255 81.9138C51.7839 82.1598 51.7038 82.3612 51.6477 82.3612C51.5916 82.3612 51.5457 82.4844 51.5457 82.6347C51.5457 82.785 51.495 82.9393 51.4334 82.9774C51.3718 83.0154 51.3215 83.4723 51.3215 83.9927C51.3215 84.5484 51.3675 84.9386 51.4334 84.9386C51.495 84.9386 51.5457 85.0394 51.5457 85.1627C51.5457 85.2859 51.5959 85.3868 51.6575 85.3868C51.7191 85.3868 51.7698 85.4503 51.7698 85.5281C51.7698 85.7443 52.5516 86.5073 52.7733 86.5073C52.8377 86.5073 52.8903 86.5555 52.8903 86.6144C52.8903 86.6729 53.0669 86.7541 53.2823 86.795C53.4982 86.8354 53.6744 86.9131 53.6744 86.968C53.6744 87.0226 53.8008 87.0677 53.9547 87.0677C54.1089 87.0677 54.2349 87.118 54.2349 87.1796C54.2349 87.2443 54.5897 87.2918 55.0752 87.2918C55.7632 87.2918 55.9159 87.2597 55.9159 87.1164C55.9159 87.0199 56.0611 86.8185 56.2389 86.669C56.6568 86.3173 57.0187 85.4056 57.5925 83.2576C57.9901 81.7701 59.7617 76.2535 60.0576 75.582C60.1118 75.4587 60.2421 75.1055 60.3469 74.7974C60.5859 74.0937 61.0683 72.7404 61.1856 72.4441C61.2343 72.3209 61.4619 71.7161 61.6911 71.0995C62.4517 69.0547 63.993 66.1559 64.3855 66.0331C64.5475 65.982 64.849 66.7175 64.9235 67.3459C64.9863 67.8757 65.214 68.464 65.3564 68.4656C65.4027 68.466 65.4404 68.5217 65.4404 68.5896C65.4404 68.7246 65.7834 69.497 65.8831 69.5869C65.9177 69.6175 66.0417 69.9327 66.1594 70.2871C66.2772 70.6415 66.4153 70.9315 66.4671 70.9315C66.5189 70.9315 66.5609 71.0073 66.5609 71.0995C66.5609 71.1921 66.6057 71.2679 66.6606 71.2679C66.7152 71.2679 66.7933 71.4441 66.8337 71.66C66.8741 71.8754 66.9436 72.052 66.9879 72.052C67.0676 72.052 67.4573 72.8696 67.4573 73.0368C67.4573 73.0843 67.5582 73.1957 67.6811 73.2844C67.8039 73.3731 67.9358 73.611 67.9738 73.8135C68.0115 74.0156 68.0877 74.1812 68.1422 74.1812C68.1972 74.1812 68.2419 74.257 68.2419 74.3492C68.2419 74.4418 68.2921 74.5172 68.3538 74.5172C68.4154 74.5172 68.466 74.618 68.466 74.7413C68.466 74.8645 68.5123 74.9654 68.5692 74.9654C68.6257 74.9654 68.7035 75.1071 68.7411 75.2798C68.7792 75.4528 68.9095 75.6656 69.0304 75.7531C69.1513 75.8402 69.2502 75.9807 69.2502 76.0655C69.2502 76.2394 69.5704 76.8453 69.7828 77.0726C69.8597 77.155 69.9225 77.2947 69.9225 77.3826C69.9225 77.4709 69.9731 77.5428 70.0347 77.5428C70.0963 77.5428 70.1466 77.591 70.1466 77.6499C70.1466 77.7527 70.5826 78.4627 70.8177 78.7426C70.8801 78.8171 70.9311 78.9121 70.9311 78.9541C70.9311 78.9957 71.0571 79.1468 71.2114 79.2897C71.3652 79.4321 71.4916 79.6217 71.4916 79.7104C71.4916 79.7995 71.5669 79.9011 71.6596 79.9365C71.7518 79.9722 71.8276 80.0754 71.8276 80.1665C71.8276 80.2571 71.9159 80.3972 72.0238 80.4781C72.1317 80.5585 72.3197 80.8262 72.4418 81.0727C72.5634 81.3192 72.7777 81.632 72.9178 81.7678C73.058 81.9032 73.1722 82.0892 73.1722 82.1802C73.1722 82.2713 73.273 82.3781 73.3963 82.4173C73.5195 82.4565 73.6204 82.5798 73.6204 82.6912C73.6204 82.8027 73.6961 82.957 73.7887 83.0335C73.881 83.1104 73.9567 83.2242 73.9567 83.2866C73.9567 83.349 74.0827 83.517 74.237 83.6595C74.3908 83.8023 74.5168 83.9974 74.5168 84.0928C74.5168 84.1881 74.5686 84.2662 74.6318 84.2662C74.695 84.2662 74.7951 84.3934 74.8543 84.5492C74.9132 84.7046 75.0384 84.8616 75.1314 84.8973C75.2248 84.9331 75.3013 85.0579 75.3013 85.1744C75.3013 85.2914 75.3484 85.3868 75.4057 85.3868C75.4634 85.3868 75.5404 85.4813 75.5769 85.5967C75.6138 85.7125 75.8186 85.9872 76.0329 86.2074C76.2468 86.428 76.4219 86.6395 76.4219 86.6776C76.4219 86.7161 76.485 86.8162 76.562 86.9005C76.6389 86.9845 76.8532 87.2412 77.038 87.47C77.2229 87.6992 77.5129 88.0285 77.6825 88.2016C77.852 88.3751 77.9906 88.5686 77.9906 88.6317C77.9906 88.6949 78.1421 88.8912 78.3269 89.0678C78.5118 89.2444 78.6633 89.434 78.6637 89.4889C78.6641 89.5439 78.8909 89.828 79.168 90.1208C79.4447 90.4132 79.6716 90.6965 79.6716 90.7507C79.6716 90.8049 79.8482 90.9995 80.0636 91.184C80.2795 91.3681 80.4557 91.571 80.4557 91.6346C80.4557 91.6981 80.6072 91.912 80.7921 92.1102C80.9769 92.3081 81.128 92.5074 81.128 92.553C81.128 92.5985 81.3046 92.8175 81.5205 93.0396C81.736 93.2618 81.9126 93.4965 81.9126 93.5612C81.9126 93.626 81.9503 93.679 81.9966 93.679C82.0429 93.6794 82.1814 93.8309 82.3047 94.0161C82.4279 94.201 82.6147 94.3799 82.7191 94.4137C82.8239 94.447 82.9436 94.5813 82.9848 94.712C83.0264 94.8423 83.3063 95.1951 83.6069 95.4961C83.9075 95.7968 84.1536 96.0813 84.1536 96.1284C84.1536 96.1755 84.4562 96.5232 84.8259 96.9012C85.196 97.2791 85.4982 97.6418 85.4982 97.7077C85.4982 97.7733 85.6874 97.9063 85.9186 98.0036C86.3919 98.203 87.9638 99.9158 87.9638 100.233C87.9638 100.427 90.6612 103.204 90.85 103.204C90.905 103.204 91.0686 103.33 91.213 103.484C91.3579 103.638 91.5247 103.764 91.5839 103.764C91.6428 103.764 91.7727 103.857 91.8724 103.972C91.9721 104.086 92.1672 104.216 92.3057 104.26C92.4442 104.303 92.5581 104.386 92.5581 104.444C92.5581 104.501 92.6334 104.548 92.726 104.548C92.8183 104.548 92.894 104.598 92.894 104.658C92.894 104.718 93.02 104.8 93.1742 104.838C93.3281 104.877 93.4545 104.954 93.4545 105.009C93.4545 105.063 93.5553 105.109 93.6786 105.109C93.8018 105.109 93.9027 105.159 93.9027 105.22C93.9027 105.282 93.978 105.333 94.0707 105.333C94.1629 105.333 94.2386 105.383 94.2386 105.445C94.2386 105.509 94.5934 105.557 95.0793 105.557C95.5648 105.557 95.9196 105.509 95.9196 105.445C95.9196 105.383 96.0205 105.333 96.1437 105.333C96.2669 105.333 96.3678 105.282 96.3678 105.221C96.3678 105.16 96.6885 104.76 97.0805 104.333C98.227 103.083 98.7615 101.808 98.3533 101.295C98.278 101.201 97.5966 100.604 96.8388 99.9688C94.0004 97.588 86.6505 90.2837 84.1399 87.3476C81.5645 84.3361 79.6268 81.7246 76.8147 77.4737C73.7503 72.8417 72.5324 70.7663 70.8044 67.2336C70.1572 65.9106 69.9021 65.3808 68.2682 61.967C67.6281 60.6291 67.3455 59.7421 67.3455 59.0702C67.3455 58.8476 67.8298 58.1066 69.0822 56.4143C70.0371 55.1234 71.1313 53.6387 71.5132 53.1148C74.0238 49.6728 75.6538 47.5652 76.7523 46.3395C78.0322 44.9116 78.3803 44.5372 79.5012 43.381C81.0048 41.8303 84.6532 38.2117 85.0783 37.8502C85.8 37.2356 84.7502 35.8408 82.8635 34.9086C82.4024 34.6806 82.0248 34.4479 82.0248 34.3918C82.0248 34.3356 81.7473 34.2893 81.4082 34.2893C81.0695 34.2893 80.7921 34.34 80.7921 34.4016C80.7921 34.4632 80.7367 34.5134 80.6688 34.5134C80.4534 34.5134 79.7343 34.8867 79.5463 35.0962C79.4467 35.2069 79.3089 35.298 79.2402 35.298C79.0891 35.298 76.0859 38.2953 76.0859 38.446C76.0859 38.5045 75.7327 38.8997 75.3013 39.3244C74.87 39.749 74.5168 40.1282 74.5168 40.167C74.5168 40.2455 74.3154 40.5022 74.0913 40.7098C73.7417 41.034 73.3963 41.4328 73.3963 41.5132C73.3963 41.5509 73.1945 41.7856 72.9481 42.0344C72.7016 42.2836 72.4999 42.5238 72.4999 42.5686C72.4999 42.6133 72.3236 42.8425 72.1078 43.078C71.8919 43.3135 71.7157 43.5556 71.7157 43.6161C71.7157 43.6765 71.5893 43.8249 71.4355 43.9462C71.2812 44.0674 71.1552 44.2601 71.1552 44.3751C71.1552 44.4897 71.0662 44.6118 70.957 44.6463C70.8479 44.6809 70.6635 44.8861 70.5473 45.102C70.4307 45.3182 70.293 45.4949 70.2412 45.4949C70.1894 45.4949 70.1466 45.5584 70.1466 45.6362C70.1466 45.7139 70.0206 45.9132 69.8668 46.0796C69.7125 46.2457 69.5865 46.4341 69.5865 46.4984C69.5865 46.5628 69.5394 46.6154 69.4821 46.6154C69.4244 46.6154 69.3428 46.7249 69.3004 46.8583C69.258 46.9918 69.1034 47.221 68.9566 47.3674C68.8102 47.5141 68.6901 47.6963 68.6901 47.7724C68.6901 47.8485 68.5892 47.9835 68.466 48.0722C68.3428 48.1609 68.2419 48.2983 68.2419 48.3772C68.2419 48.4561 68.1948 48.5205 68.1375 48.5205C68.0798 48.5205 67.9982 48.6296 67.9558 48.763C67.9134 48.8964 67.7588 49.1256 67.612 49.2724C67.4656 49.4192 67.3455 49.5939 67.3455 49.661C67.3455 49.7281 67.2466 49.8682 67.1261 49.973C67.0056 50.0774 66.858 50.3804 66.7984 50.6461C66.6422 51.342 66.4695 51.4785 65.9322 51.3321C64.5295 50.9503 63.6868 48.6111 63.4153 44.3465C63.1366 39.968 63.148 39.3997 63.5895 35.5782C63.6751 34.8384 63.803 33.6786 63.8737 33.0008C63.9447 32.3226 64.0742 31.3269 64.1614 30.7877C64.542 28.434 64.2249 27.6565 62.6951 27.1918C62.0184 26.9865 60.5102 26.8625 60.5102 27.0124ZM107.41 85.6713C102.189 87.1034 103.177 94.8219 108.585 94.8434C111.197 94.854 113.285 92.7869 113.287 90.1871C113.291 87.1553 110.32 84.873 107.41 85.6713ZM51.1999 93.1209C47.4627 93.5757 45.949 98.3663 48.6829 101.087C51.5763 103.966 56.5944 101.831 56.5866 97.7242C56.5823 95.4855 54.9092 93.4399 52.862 93.1707C51.9377 93.049 51.8196 93.0455 51.1999 93.1209Z" fill="#B8C4CE"/>
<path fill-rule="evenodd" clip-rule="evenodd" d="M72.3318 10.0852C72.2938 10.1468 72.1203 10.197 71.9468 10.197C71.5167 10.197 70.3695 10.6558 70.0547 10.9537C69.9731 11.0306 69.8722 11.0938 69.8306 11.0942C69.756 11.095 68.8698 11.9416 68.4828 12.3823C68.3745 12.5056 68.1889 12.7956 68.0704 13.0268C67.9518 13.2576 67.8156 13.4467 67.7682 13.4467C67.7207 13.4467 67.6814 13.5688 67.6814 13.7175C67.6814 13.8667 67.6316 14.0052 67.5707 14.0256C67.5095 14.0464 67.4267 14.3785 67.3867 14.7635C67.3462 15.1485 67.2701 15.4637 67.2175 15.4637C67.1645 15.4637 67.1213 15.842 67.1213 16.3043C67.1213 16.7663 67.1645 17.1446 67.2179 17.1446C67.2709 17.1446 67.3423 17.4531 67.3765 17.8299C67.4106 18.207 67.493 18.5701 67.5601 18.6368C67.6269 18.7035 67.6814 18.8743 67.6814 19.0159C67.6814 19.1576 67.7285 19.2738 67.7862 19.2738C67.8435 19.2738 67.9244 19.3798 67.9656 19.5097C68.0535 19.7868 68.1999 19.974 69.0209 20.8574C69.3569 21.2189 69.6972 21.5148 69.7772 21.5148C69.8573 21.5148 69.9224 21.5564 69.9224 21.6071C69.9224 21.6848 70.5649 22.0035 71.5473 22.4132C72.1847 22.6785 74.558 22.841 74.6894 22.6279C74.7252 22.5702 74.9026 22.5235 75.0839 22.5235C75.2652 22.5235 75.4132 22.4729 75.4132 22.4112C75.4132 22.3496 75.5395 22.2994 75.6934 22.2994C75.8476 22.2994 75.9736 22.2542 75.9736 22.1997C75.9736 22.1447 76.1502 22.067 76.3657 22.0266C76.5816 21.9862 76.7582 21.9045 76.7582 21.8461C76.7582 21.7872 76.8119 21.7389 76.8775 21.7389C77.0376 21.7389 77.7598 21.1914 78.0604 20.8425C79.0279 19.7196 78.938 19.782 79.3505 19.9457C79.5577 20.0277 79.8069 20.1624 79.9042 20.2448C80.0016 20.3268 80.1656 20.3943 80.2685 20.3943C80.3717 20.3943 80.4557 20.4328 80.4557 20.4799C80.4557 20.565 80.5055 20.5956 81.3136 21.0046C81.5507 21.1247 81.7697 21.2546 81.8007 21.2935C81.8313 21.3319 82.0322 21.4607 82.2465 21.5792C82.4612 21.6977 82.7046 21.8578 82.787 21.9352C82.8694 22.0121 82.9981 22.0753 83.0723 22.0753C83.1469 22.0753 83.2803 22.1758 83.3694 22.2994C83.4581 22.4226 83.5833 22.5235 83.6473 22.5235C83.7113 22.5235 83.8996 22.6495 84.066 22.8033C84.2321 22.9576 84.4204 23.0835 84.4848 23.0835C84.5492 23.0835 84.6018 23.1232 84.6018 23.1715C84.6018 23.2197 84.7643 23.3555 84.9628 23.4725C85.1614 23.5898 85.4319 23.8026 85.5641 23.945C85.696 24.0875 85.8385 24.2041 85.8801 24.2041C85.9754 24.2041 86.1772 24.3713 86.7278 24.9046C86.9664 25.1358 87.1929 25.3246 87.231 25.3246C87.4005 25.3246 89.5689 27.5868 89.4665 27.6563C89.2997 27.7697 88.972 28.5154 88.972 28.7807C88.972 28.9063 88.9217 29.0405 88.8601 29.0786C88.7985 29.1167 88.7479 29.4373 88.7479 29.7913C88.7479 30.1493 88.687 30.4954 88.6105 30.5716C88.5022 30.6799 88.5022 30.7552 88.6105 30.9287C88.6863 31.0496 88.7479 31.3895 88.7479 31.6838C88.7479 31.9782 88.8432 32.4802 88.9598 32.7992C89.0768 33.1183 89.1439 33.4076 89.1093 33.4421C89.0748 33.4767 89.096 33.5049 89.1564 33.5049C89.2169 33.5049 89.3358 33.6811 89.4202 33.897C89.505 34.1125 89.6117 34.2891 89.6576 34.2891C89.7035 34.2891 89.7711 34.3829 89.8076 34.4975C89.8872 34.7487 90.8519 35.746 91.0152 35.746C91.0788 35.746 91.2122 35.8343 91.3119 35.9418C91.5482 36.1977 92.1518 36.5301 92.3791 36.5301C92.4776 36.5301 92.558 36.5807 92.558 36.6424C92.558 36.704 92.6487 36.7542 92.7594 36.7542C92.8704 36.7542 93.0243 36.8174 93.1012 36.8943C93.2017 36.9948 93.7472 37.0344 95.0232 37.0344C96.2991 37.0344 96.8446 36.9948 96.9447 36.8943C97.022 36.8174 97.1755 36.7542 97.2866 36.7542C97.3976 36.7542 97.4883 36.704 97.4883 36.6424C97.4883 36.5807 97.5687 36.5301 97.6673 36.5301C97.8945 36.5301 98.4977 36.1977 98.734 35.9418C98.8337 35.8343 98.964 35.746 99.0236 35.746C99.0833 35.746 99.265 35.607 99.4279 35.4379C99.5904 35.2683 99.8176 35.0407 99.933 34.9323C100.048 34.8236 100.239 34.5344 100.356 34.2891C100.474 34.0442 100.605 33.8428 100.649 33.8421C100.692 33.8417 100.761 33.6639 100.802 33.4476C100.842 33.231 100.92 33.0265 100.975 32.9927C101.029 32.959 101.074 32.8083 101.074 32.6576C101.074 32.5072 101.125 32.384 101.186 32.384C101.256 32.384 101.298 31.7886 101.298 30.822C101.298 29.9016 101.252 29.2313 101.186 29.1904C101.125 29.1524 101.074 28.973 101.074 28.7917C101.074 28.6104 101.024 28.4624 100.962 28.4624C100.9 28.4624 100.85 28.3863 100.85 28.2936C100.85 27.0848 97.9753 24.6523 96.5467 24.6523C96.325 24.6523 96.1437 24.602 96.1437 24.5404C96.1437 24.4729 95.6955 24.4282 95.0232 24.4282C94.3508 24.4282 93.9026 24.4729 93.9026 24.5404C93.9026 24.602 93.7135 24.6527 93.4823 24.653C93.2511 24.6534 92.9175 24.7292 92.7413 24.821C92.5647 24.9133 92.3249 24.9886 92.2087 24.9886C92.0925 24.9886 91.9976 25.0357 91.9976 25.093C91.9976 25.1507 91.8841 25.2335 91.7456 25.2771C91.6067 25.321 91.4116 25.4506 91.3119 25.5648C91.0654 25.8477 91.0262 25.8364 90.5238 25.334C90.2824 25.0926 89.9002 24.7523 89.6745 24.5777C89.4488 24.403 89.1349 24.1342 88.9767 23.98C88.8185 23.8261 88.4123 23.4741 88.0744 23.1978C87.7361 22.9215 87.3777 22.6063 87.2781 22.4972C87.1784 22.3885 87.0394 22.2994 86.9692 22.2994C86.8989 22.2994 86.7317 22.173 86.5979 22.0192C86.4641 21.8649 86.2863 21.7389 86.2031 21.7389C86.1199 21.7389 86.0241 21.6671 85.9903 21.5796C85.9566 21.4917 85.7568 21.3382 85.5457 21.2381C85.3349 21.138 85.1622 21.0081 85.1622 20.9493C85.1622 20.8904 85.0814 20.8425 84.9821 20.8425C84.8832 20.8425 84.703 20.7165 84.5818 20.5623C84.4609 20.4084 84.2894 20.2821 84.2014 20.2821C84.1135 20.2821 84.0417 20.2393 84.0417 20.1871C84.0417 20.1349 83.8412 20.0018 83.5966 19.8915C83.3517 19.7809 83.1783 19.6474 83.2108 19.5941C83.2438 19.5411 83.1665 19.4979 83.0397 19.4979C82.913 19.4979 82.809 19.4465 82.809 19.3841C82.809 19.3213 82.6198 19.1827 82.3886 19.076C82.1578 18.9688 81.8949 18.8115 81.805 18.7259C81.7151 18.6403 81.484 18.5045 81.2916 18.4241C81.0997 18.344 80.8811 18.2047 80.8065 18.1144C80.732 18.0245 80.5408 17.9182 80.3815 17.8785C79.8568 17.7467 79.8132 17.614 79.7661 15.9923C79.7367 14.9895 79.6739 14.413 79.5844 14.3231C79.509 14.2482 79.4474 14.0947 79.4474 13.9825C79.4474 13.8702 79.3214 13.579 79.1672 13.3349C79.0129 13.0907 78.8869 12.8506 78.8869 12.8015C78.8869 12.752 78.7861 12.6394 78.6628 12.5503C78.5396 12.4616 78.4387 12.3513 78.4387 12.3054C78.4387 12.2069 77.8033 11.542 77.7091 11.542C77.6734 11.542 77.5184 11.4157 77.3642 11.2618C77.2099 11.1076 77.0105 10.9816 76.921 10.9816C76.8312 10.9816 76.7582 10.9314 76.7582 10.8697C76.7582 10.8077 76.6824 10.7575 76.5898 10.7575C76.4976 10.7575 76.4218 10.7073 76.4218 10.6452C76.4218 10.5836 76.321 10.5334 76.1977 10.5334C76.0745 10.5334 75.9736 10.4828 75.9736 10.4211C75.9736 10.3595 75.9359 10.3179 75.8896 10.3281C75.7381 10.3623 74.9135 10.1872 74.7146 10.0789C74.4543 9.93761 72.4198 9.94271 72.3318 10.0852ZM74.8531 11.7179C75.6078 11.9761 75.9736 12.1472 75.9736 12.2414C75.9736 12.2881 76.045 12.3262 76.1322 12.3262C76.7307 12.3262 78.0341 14.2756 78.2405 15.4793C79.2692 21.4775 70.5826 23.4434 68.8686 17.6007C67.8404 14.0963 71.4464 10.5514 74.8531 11.7179ZM97.0558 26.4282C98.2885 27.0322 99.1328 27.962 99.5896 29.2199C99.8153 29.8404 99.8596 31.7443 99.6587 32.1713C99.5892 32.3193 99.4377 32.667 99.3227 32.9445C98.8298 34.1309 97.1951 35.3091 95.7602 35.5124C91.8908 36.0603 88.9892 32.1878 90.6659 28.714C91.819 26.325 94.7241 25.2861 97.0558 26.4282ZM62.0317 26.4306C61.9988 26.4839 61.7185 26.5613 61.4089 26.6025C60.5965 26.7104 60.7173 26.8933 61.6024 26.8953C63.1589 26.8988 64.2127 27.5833 64.4635 28.7536C64.5149 28.993 64.4368 29.8247 64.2112 31.4319C64.1421 31.9248 64.0106 33.0088 63.9195 33.8409C63.8281 34.6729 63.6935 35.8076 63.6201 36.3621C63.1817 39.6797 63.5985 47.1995 64.3222 49.0245C64.3709 49.1478 64.4949 49.4727 64.5973 49.7463C65.0597 50.983 66.0648 51.6004 66.599 50.9763C66.8168 50.7216 66.6441 50.2687 66.2744 50.127C66.1853 50.0929 66.1127 49.99 66.1127 49.8982C66.1127 49.8064 66.0299 49.5724 65.9286 49.3778C65.6091 48.7643 65.5821 48.6902 65.5004 48.2082C65.4569 47.9492 65.3748 47.7086 65.3187 47.6736C65.2622 47.6391 65.2163 47.4221 65.2163 47.1913C65.2163 46.9609 65.1704 46.7243 65.1142 46.6658C64.8489 46.3887 64.5726 38.3214 64.7924 37.2585C64.8309 37.0737 64.8984 36.2797 64.9427 35.4936C64.9875 34.7079 65.0628 34.065 65.1107 34.065C65.1586 34.065 65.2245 33.7247 65.2567 33.3087C65.4007 31.4574 65.5675 30.0719 65.6676 29.8926C66.1304 29.0652 65.4781 26.8933 64.7673 26.8933C64.7061 26.8933 64.6558 26.8446 64.6558 26.7854C64.6558 26.7257 64.4039 26.6437 64.0958 26.6029C63.7877 26.562 63.5353 26.4843 63.5353 26.431C63.5353 26.3034 62.1106 26.3034 62.0317 26.4306ZM82.3698 34.0948C82.0193 34.2734 81.9388 34.5132 82.2289 34.5132C82.9801 34.5132 84.8993 36.012 85.444 37.0235L85.6516 37.4089L82.6276 40.4152C79.2888 43.7352 76.1989 47.0402 75.5321 48.0061C75.443 48.1348 75.3409 48.2651 75.3048 48.2961C75.2687 48.3267 75.0654 48.5791 74.8531 48.8566C74.6404 49.1337 74.4386 49.386 74.4041 49.4166C74.3696 49.4476 74.1423 49.7498 73.8994 50.0889C73.656 50.428 73.3931 50.7718 73.3146 50.8535C73.2361 50.9347 73.1721 51.0387 73.1721 51.0842C73.1721 51.1298 73.0819 51.2652 72.972 51.3845C72.8617 51.5038 72.2451 52.3327 71.6018 53.2264C70.9586 54.12 70.3683 54.9179 70.2894 54.9996C70.2109 55.0808 70.1465 55.1848 70.1465 55.2304C70.1465 55.2759 70.0586 55.4113 69.9507 55.531C69.8428 55.6511 69.2309 56.4474 68.5908 57.301L67.4267 58.8537L67.6017 59.7407C67.7057 60.2689 67.9785 61.0456 68.2764 61.6614C68.5511 62.2301 68.9393 63.0481 69.1387 63.4798C72.7196 71.2264 78.2755 80.1658 82.9714 85.7358C83.1594 85.9588 83.4899 86.3559 83.7054 86.6189C83.9212 86.8819 84.1732 87.1833 84.2658 87.2892C84.358 87.3952 84.7344 87.8297 85.1022 88.2551C86.7533 90.1657 95.1393 98.3951 97.117 100.045C97.8678 100.672 98.5138 101.235 98.5527 101.298C98.9118 101.879 98.0601 103.7 96.9906 104.639C96.4996 105.07 96.493 105.19 96.9494 105.382C97.3081 105.532 97.8246 105.426 97.8246 105.202C97.8246 105.151 97.9 105.108 97.9926 105.108C98.0848 105.108 98.1606 105.061 98.1606 105.004C98.1606 104.946 98.2669 104.865 98.3969 104.824C98.7226 104.721 100.445 102.995 100.606 102.61C100.849 102.031 100.775 101.133 100.46 100.834C100.307 100.689 100.181 100.534 100.179 100.489C100.176 100.356 97.5609 97.7628 97.3482 97.682C97.0813 97.5807 97.1001 97.3762 97.376 97.3762C97.4997 97.3762 97.6005 97.326 97.6005 97.2644C97.6005 97.2028 97.701 97.1521 97.8246 97.1521C97.9479 97.1521 98.0487 97.1019 98.0487 97.0403C98.0487 96.9787 98.1367 96.928 98.2446 96.9276C98.3525 96.9272 98.5853 96.8515 98.7619 96.7593C98.9381 96.6674 99.1524 96.5921 99.2379 96.5921C99.3235 96.5921 99.3934 96.5414 99.3934 96.4798C99.3934 96.4182 99.4613 96.368 99.5441 96.368C99.6273 96.368 99.8416 96.2985 100.02 96.2137C100.199 96.1289 100.51 95.9908 100.71 95.9064C100.91 95.822 101.074 95.7149 101.074 95.6682C101.074 95.6215 101.124 95.5834 101.185 95.5834C101.377 95.5834 102.194 95.1988 102.194 95.1089C102.194 95.0618 102.275 95.0233 102.373 95.0233C102.571 95.0233 103.238 94.6795 103.297 94.5469C103.398 94.3189 103.888 94.5088 104.368 94.9613C104.658 95.2357 104.994 95.4912 105.114 95.5292C105.234 95.5673 105.332 95.6395 105.332 95.6898C105.332 95.74 105.634 95.8754 106.003 95.9904C106.373 96.1058 106.675 96.2377 106.676 96.284C106.677 96.3303 106.879 96.368 107.125 96.368C107.372 96.368 107.573 96.4182 107.573 96.4798C107.573 96.5458 107.963 96.5921 108.519 96.5921C109.039 96.5921 109.496 96.5414 109.534 96.4798C109.572 96.4182 109.802 96.368 110.045 96.368C110.288 96.368 110.487 96.324 110.487 96.2706C110.487 96.2169 110.655 96.1458 110.861 96.1125C111.228 96.0528 112.258 95.492 112.641 95.1434C113.257 94.5834 113.656 94.1466 113.801 93.8746C113.892 93.705 114.015 93.5665 114.075 93.5665C114.135 93.5665 114.186 93.4782 114.188 93.3702C114.19 93.2627 114.266 93.0763 114.356 92.957C114.447 92.8373 114.521 92.623 114.521 92.4805C114.521 92.3384 114.571 92.2219 114.633 92.2219C114.694 92.2219 114.745 92.0484 114.745 91.8364C114.745 91.6241 114.795 91.4196 114.857 91.3816C114.92 91.3419 114.969 90.7827 114.969 90.086C114.969 89.3435 114.925 88.8603 114.857 88.8603C114.795 88.8603 114.745 88.7336 114.745 88.5785C114.745 88.4235 114.7 88.2092 114.645 88.1025C114.59 87.9953 114.451 87.6939 114.337 87.4329C114.222 87.1715 114.091 86.9572 114.044 86.9564C113.998 86.956 113.96 86.8819 113.96 86.7924C113.96 86.7025 113.845 86.5133 113.703 86.3716C113.561 86.23 113.413 86.029 113.373 85.925C113.333 85.821 113.161 85.6444 112.99 85.5329C112.82 85.4215 112.569 85.2276 112.433 85.1016C112.061 84.7582 110.776 84.1408 110.095 83.9787C109.494 83.8355 107.44 83.7939 107.312 83.9222C107.246 83.9881 107.076 84.0419 106.933 84.0419C106.79 84.0419 106.586 84.0855 106.479 84.1385C106.372 84.1914 105.995 84.3763 105.64 84.5494C105.286 84.7221 104.996 84.9054 104.996 84.9568C104.996 85.0082 104.94 85.0502 104.871 85.0502C104.688 85.0502 103.203 86.6016 103.203 86.7928C103.203 86.8822 103.165 86.9552 103.118 86.9552C103.001 86.9552 102.643 87.8002 102.643 88.0765C102.643 88.1994 102.592 88.2999 102.531 88.2999C102.469 88.2999 102.419 88.4412 102.419 88.6138C102.419 88.7861 102.365 88.9816 102.298 89.0475C102.172 89.1739 102.216 90.9758 102.36 91.6163L102.439 91.9628L100.776 92.7925C99.8616 93.249 99.0962 93.6603 99.0758 93.7066C99.055 93.7529 98.9542 93.791 98.8517 93.7914C98.7489 93.7918 98.5205 93.8675 98.3439 93.9593C98.1673 94.0516 97.953 94.1269 97.8678 94.1269C97.7822 94.1269 97.7124 94.1772 97.7124 94.2388C97.7124 94.3004 97.6241 94.3514 97.5161 94.3514C97.4086 94.3518 97.1759 94.4276 96.9993 94.5198C96.8226 94.6116 96.6084 94.687 96.5232 94.687C96.4376 94.687 96.3678 94.7376 96.3678 94.7992C96.3678 94.8609 96.2543 94.9115 96.1158 94.9119C95.9769 94.9123 95.719 94.988 95.5424 95.0799C94.9749 95.3762 94.7465 95.2949 93.9627 94.519C93.558 94.1183 93.1836 93.7906 93.1299 93.7906C93.0094 93.7906 87.0673 87.847 87.0673 87.7261C87.0673 87.6782 86.7141 87.2771 86.2827 86.8355C85.8514 86.3936 85.4982 86.0109 85.4982 85.9847C85.4982 85.9195 85.2772 85.6562 84.9099 85.2829C84.7407 85.111 84.6018 84.9399 84.6018 84.9034C84.6018 84.8665 84.4883 84.7201 84.3498 84.5784C84.2113 84.4363 83.9463 84.1216 83.7615 83.879C83.5766 83.6361 83.2866 83.2978 83.117 83.1271C82.9475 82.9563 82.809 82.7668 82.809 82.7059C82.809 82.6451 82.683 82.4693 82.5287 82.315C82.3749 82.1612 82.2489 81.9877 82.2489 81.9296C82.2489 81.8719 82.11 81.6741 81.9404 81.49C81.3607 80.8609 81.128 80.5662 81.128 80.4602C81.128 80.4021 81.002 80.2282 80.8481 80.074C80.6939 79.9201 80.5679 79.7412 80.5679 79.6768C80.5679 79.6124 80.5291 79.5595 80.4812 79.5595C80.4337 79.5595 80.2999 79.3832 80.1837 79.1674C80.0675 78.9515 79.9411 78.7753 79.9035 78.7753C79.8654 78.7753 79.7394 78.5987 79.6232 78.3828C79.5071 78.1674 79.3756 77.9907 79.3308 77.9907C79.2861 77.9907 79.2198 77.9024 79.1837 77.7949C79.0957 77.5327 78.8716 77.1917 78.6511 76.984C78.5518 76.8906 78.4352 76.7007 78.3913 76.5621C78.3477 76.4236 78.2645 76.3102 78.2072 76.3102C78.1499 76.3102 78.1028 76.2595 78.1028 76.1983C78.1028 76.1367 77.9336 75.8466 77.7272 75.5539C77.5208 75.2611 77.2558 74.845 77.1389 74.6292C77.0219 74.4133 76.9006 74.2116 76.8692 74.181C76.6714 73.9851 76.1977 73.2791 76.1977 73.1798C76.1977 73.1142 76.1506 73.0605 76.0933 73.0605C76.0356 73.0605 75.9595 72.9682 75.9238 72.856C75.8881 72.7437 75.7715 72.553 75.6643 72.4329C75.5572 72.3124 75.3731 72.0263 75.2558 71.7967C75.138 71.5671 75.0034 71.3795 74.9563 71.3795C74.9092 71.3795 74.839 71.2351 74.8005 71.0585C74.7617 70.8818 74.6443 70.6393 74.5395 70.5196C74.2962 70.2417 73.9567 69.6091 73.9567 69.4344C73.9567 69.3602 73.8578 69.2287 73.7365 69.1412C73.6156 69.0541 73.4857 68.8414 73.4476 68.6683C73.4096 68.4956 73.3323 68.3539 73.2754 68.3539C73.2188 68.3539 73.1721 68.253 73.1721 68.1298C73.1721 68.0066 73.1345 67.9057 73.0881 67.9053C73.0418 67.9053 72.9072 67.6655 72.7883 67.3731C72.6698 67.0807 72.5434 66.8162 72.5077 66.7852C72.3911 66.6843 70.3706 62.572 70.3706 62.4358C70.3706 62.3628 70.3204 62.3031 70.2588 62.3031C70.1972 62.3031 70.1465 62.2023 70.1465 62.079C70.1465 61.9558 70.0963 61.8549 70.0347 61.8549C69.9731 61.8549 69.9224 61.7917 69.922 61.7148C69.9213 61.572 69.8188 61.3604 69.3675 60.5688C69.0252 59.9683 68.9079 58.5154 69.1799 58.2434C69.2804 58.1429 69.3624 58.0299 69.3624 57.9918C69.3624 57.9537 69.4884 57.7967 69.6426 57.6425C69.7965 57.4887 69.9224 57.3183 69.9224 57.2642C69.9224 57.21 70.0614 57.0232 70.2309 56.8489C70.4001 56.6747 70.6399 56.3878 70.7631 56.2115C70.8864 56.0353 71.05 55.8246 71.1273 55.7433C71.2043 55.6621 71.2675 55.5647 71.2675 55.5267C71.2675 55.489 71.3934 55.3218 71.5473 55.1558C71.7015 54.9898 71.8275 54.8175 71.8275 54.7735C71.8275 54.7296 71.9409 54.5698 72.0799 54.4187C72.6333 53.8159 72.948 53.4175 72.948 53.3194C72.948 53.2629 73.0614 53.0949 73.2004 52.9465C73.5846 52.5356 73.7326 52.3468 73.7326 52.2668C73.7326 52.2271 73.8586 52.0953 74.0128 51.974C74.1667 51.8527 74.2926 51.6761 74.2926 51.5819C74.2926 51.4873 74.419 51.3107 74.5729 51.1894C74.7271 51.0682 74.8531 50.9202 74.8531 50.8605C74.8531 50.8005 74.9791 50.6156 75.1333 50.4492C75.2872 50.2832 75.4132 50.1054 75.4132 50.0544C75.4132 50.0038 75.5898 49.7954 75.8056 49.5921C76.0211 49.3884 76.1977 49.1674 76.1977 49.1007C76.1977 49.034 76.3653 48.813 76.5698 48.6097C76.7747 48.4064 77.0141 48.1348 77.1024 48.0065C77.4003 47.5712 78.2668 46.5869 79.1672 45.6603C79.6601 45.1532 80.1696 44.6182 80.2991 44.4718C80.803 43.9024 86.174 38.6593 86.2541 38.6589C86.3004 38.6585 86.5724 38.4187 86.8577 38.1263C87.143 37.8339 87.4833 37.5207 87.614 37.4301C88.2129 37.0144 87.0802 35.3547 85.7223 34.6584C85.5068 34.5477 85.3051 34.4284 85.2741 34.3935C84.9358 34.0081 82.9412 33.8032 82.3698 34.0948ZM63.9835 66.6961C63.2107 67.9917 62.9599 68.4293 62.872 68.6341C62.819 68.7574 62.6471 69.1389 62.4894 69.4819C62.332 69.8253 62.0949 70.405 61.9631 70.7708C61.8308 71.1366 61.6518 71.5946 61.5647 71.7888C61.4776 71.9827 61.4065 72.2123 61.4065 72.2987C61.4065 72.3846 61.3661 72.5032 61.317 72.5616C61.2676 72.6201 61.1373 72.9455 61.0274 73.2846C60.9171 73.6233 60.7809 74.0142 60.7244 74.1527C60.4689 74.7819 60.1761 75.6076 60.0988 75.9177C60.0682 76.0409 59.9999 76.2427 59.9473 76.3659C59.8947 76.4891 59.7209 76.9935 59.5615 77.4864C59.4022 77.9797 59.2259 78.4652 59.1702 78.5653C59.1141 78.6654 59.034 78.9307 58.992 79.1548C58.95 79.3789 58.8711 79.5897 58.8166 79.6234C58.7616 79.6572 58.7169 79.8051 58.7169 79.9519C58.7169 80.0987 58.6733 80.2459 58.6196 80.2789C58.5662 80.3118 58.4897 80.5442 58.4496 80.7946C58.4096 81.0454 58.3323 81.3362 58.2777 81.4414C58.2232 81.5466 58.1172 81.8594 58.0426 82.1368C57.9677 82.4143 57.8366 82.8645 57.7514 83.1373C57.6662 83.4104 57.5964 83.7476 57.5964 83.8873C57.5964 84.0266 57.5461 84.1718 57.4845 84.2099C57.4229 84.248 57.3723 84.3885 57.3723 84.5223C57.3723 84.9481 56.8063 86.2657 56.4672 86.6287C56.0449 87.0804 56.0363 87.0675 56.7561 87.0675C57.0952 87.0675 57.3723 87.0204 57.3723 86.9627C57.3723 86.9054 57.4857 86.8222 57.6242 86.7782C58.0732 86.6358 58.5485 85.7543 58.6698 84.8394C58.7118 84.5239 58.7899 84.266 58.8437 84.266C58.8974 84.266 58.941 84.0925 58.941 83.8802C58.941 83.6683 58.9857 83.4673 59.0403 83.4336C59.0945 83.3998 59.1737 83.0945 59.2161 82.7546C59.2589 82.4147 59.3402 82.1368 59.3975 82.1368C59.4548 82.1368 59.5015 82.0579 59.5015 81.9618C59.5015 81.6941 59.8425 80.6121 60.153 79.8958C60.3692 79.3974 60.622 78.5492 60.622 78.3232C60.622 78.2019 60.6726 78.103 60.7342 78.103C60.7958 78.103 60.8461 77.9797 60.8461 77.8294C60.8461 77.6787 60.89 77.5288 60.9434 77.4958C60.9968 77.4625 61.0741 77.1842 61.1149 76.8773C61.1553 76.5704 61.2378 76.289 61.2974 76.2521C61.3575 76.2148 61.4065 76.0617 61.4065 75.911C61.4065 75.7607 61.4521 75.6375 61.5078 75.6375C61.5639 75.6375 61.644 75.3855 61.6864 75.0774C61.7288 74.7693 61.8092 74.5169 61.8653 74.5169C61.9211 74.5169 61.9666 74.4157 61.9666 74.2913C61.9666 74.1673 62.0172 73.9655 62.0788 73.8431C62.1405 73.721 62.239 73.5244 62.2978 73.4062C62.3563 73.2885 62.4387 72.9353 62.4803 72.6221C62.5219 72.3085 62.5996 72.0518 62.6534 72.0518C62.7072 72.0518 62.7511 71.929 62.7511 71.7783C62.7511 71.6279 62.8014 71.4737 62.863 71.4356C62.9246 71.3976 62.9752 71.2888 62.9752 71.1939C62.9752 71.0989 63.051 70.8497 63.1432 70.6401C63.2358 70.4305 63.3803 70.0949 63.4643 69.8948C63.5487 69.6946 63.6868 69.3669 63.772 69.1663C63.8567 68.9662 63.9623 68.8021 64.0059 68.8021C64.0498 68.8021 64.1185 68.6263 64.159 68.4112C64.1994 68.1958 64.2771 68.0474 64.332 68.0815C64.387 68.1153 64.4317 68.0392 64.4317 67.9124C64.4317 67.7856 64.4702 67.6816 64.5173 67.6816C64.7465 67.6816 64.8211 67.1624 64.6578 66.7012C64.4478 66.1066 64.336 66.1054 63.9835 66.6961ZM109.806 85.5137C113.497 86.6872 114.627 90.9181 111.973 93.6155C111.635 93.9586 111.289 94.2388 111.203 94.2388C111.117 94.2388 111.047 94.2769 111.047 94.3228C111.046 94.4048 110.507 94.6328 109.694 94.8942C105.948 96.1011 102.525 91.67 104.359 87.9871C105.331 86.0321 107.846 84.8904 109.806 85.5137ZM50.369 91.5496C50.3309 91.6112 50.201 91.6614 50.0805 91.6614C49.96 91.6614 49.774 91.7097 49.6672 91.7682C49.5601 91.827 49.2708 91.9636 49.0243 92.0719C48.7779 92.1807 48.5094 92.3345 48.4278 92.4138C48.3465 92.4931 48.2327 92.5582 48.1754 92.5582C48.0169 92.5582 46.6149 94.0367 46.6149 94.2043C46.6149 94.2851 46.5745 94.351 46.5247 94.351C46.4277 94.351 46.0549 95.1297 46.0549 95.3318C46.0549 95.3982 45.9917 95.4739 45.9148 95.4994C45.8092 95.5347 45.7747 96.0791 45.7747 97.7126C45.7747 99.3461 45.8092 99.8904 45.9148 99.9258C45.9917 99.9513 46.0549 100.09 46.0549 100.234C46.0549 100.377 46.0926 100.512 46.1389 100.533C46.1852 100.553 46.3237 100.77 46.447 101.014C46.7127 101.541 48.1056 102.979 48.3497 102.979C48.4435 102.979 48.52 103.025 48.52 103.081C48.52 103.228 49.6366 103.764 49.9427 103.764C50.0848 103.764 50.201 103.814 50.201 103.876C50.201 104.017 53.5237 104.029 53.6108 103.888C53.6446 103.834 53.8506 103.756 54.0688 103.715C54.4668 103.64 55.2667 103.231 55.3369 103.067C55.3573 103.019 55.4417 102.979 55.5241 102.979C55.729 102.979 57.2604 101.453 57.2604 101.249C57.2604 101.159 57.3303 101.045 57.4158 100.996C57.5014 100.947 57.5913 100.805 57.6156 100.682C57.6627 100.442 59.0603 100.4 59.1467 100.636C59.1671 100.692 59.3715 100.738 59.6004 100.738C59.8296 100.738 60.0647 100.783 60.1235 100.839C60.2393 100.948 60.6479 101.016 62.3591 101.21C62.9752 101.28 63.5047 101.374 63.5353 101.419C63.5663 101.464 63.9191 101.529 64.3199 101.564C64.7206 101.599 65.5526 101.675 66.1688 101.732C66.785 101.789 67.9322 101.841 68.7179 101.847C69.5884 101.854 70.1465 101.903 70.1465 101.971C70.1465 102.042 71.0991 102.083 72.78 102.083C74.2283 102.083 75.4132 102.04 75.4132 101.988C75.4132 101.936 76.5101 101.859 77.8504 101.816C79.2425 101.772 80.3038 101.692 80.325 101.631C80.3458 101.571 80.7112 101.522 81.1374 101.522C81.5636 101.522 81.9125 101.48 81.9125 101.427C81.9125 101.375 82.3537 101.299 82.8929 101.258C84.0558 101.17 84.234 101.143 84.3372 101.04C84.38 100.997 84.6084 100.962 84.8447 100.962C85.081 100.962 85.2741 100.912 85.2741 100.85C85.2741 100.788 85.5013 100.738 85.7784 100.738C86.0559 100.738 86.2827 100.694 86.2827 100.64C86.2827 100.587 86.6356 100.508 87.0673 100.466C88.0387 100.37 88.0548 100.277 87.2502 99.4187C86.9193 99.0658 86.5033 98.6168 86.3255 98.421L86.0025 98.065L84.9099 98.1906C84.309 98.2593 83.8176 98.3566 83.8176 98.4065C83.8176 98.4563 83.5652 98.4971 83.2572 98.4971C82.9491 98.4971 82.6971 98.5415 82.6971 98.5956C82.6971 98.6498 82.117 98.7303 81.4082 98.7746C80.6994 98.819 80.0911 98.9006 80.0569 98.9563C80.0224 99.0117 79.573 99.0572 79.0577 99.0572C78.4093 99.0572 78.1071 99.1004 78.0749 99.1969C78.0384 99.306 76.8394 99.3366 72.6121 99.3366C68.3843 99.3366 67.1857 99.306 67.1492 99.1969C67.117 99.1004 66.8148 99.0572 66.1661 99.0572C65.6511 99.0572 65.2014 99.0117 65.1672 98.9563C65.1327 98.9006 64.5247 98.819 63.8159 98.7746C63.1071 98.7303 62.527 98.6498 62.527 98.5956C62.527 98.5415 62.2778 98.4971 61.9733 98.4971C61.6687 98.4971 61.3916 98.452 61.3575 98.3967C61.3233 98.3413 60.892 98.2605 60.3987 98.2169C59.9053 98.1733 59.5015 98.0925 59.5015 98.0372C59.5015 97.9818 59.3374 97.9351 59.1372 97.9332C58.753 97.9292 58.3809 97.7185 58.3809 97.5042C58.3809 97.4339 58.337 97.3762 58.2836 97.3762C58.2302 97.3762 58.1627 97.0108 58.1341 96.5642C58.1054 96.1172 58.0289 95.6509 57.9641 95.5277C57.8998 95.4044 57.7777 95.1521 57.6937 94.9672C57.6093 94.7824 57.4775 94.5645 57.4005 94.4829C57.3232 94.4017 57.2604 94.3008 57.26 94.2588C57.2596 94.0414 55.7082 92.4483 55.4955 92.4471C55.4185 92.4464 55.355 92.4083 55.3546 92.362C55.3538 92.2387 54.6972 91.8855 54.4684 91.8855C54.3604 91.8855 54.2376 91.851 54.1956 91.809C53.8612 91.475 50.5538 91.2505 50.369 91.5496ZM53.5358 93.1728C53.9943 93.3353 54.4531 93.5598 54.5712 93.6791C54.6018 93.7105 54.8181 93.8785 55.0516 94.0524C55.2851 94.2266 55.6124 94.5795 55.7788 94.8361C55.9456 95.0932 56.1109 95.3287 56.1466 95.3593C56.5877 95.7408 56.8884 97.6608 56.6572 98.6192C55.2749 104.345 47.0906 103.518 47.1334 97.6565C47.144 96.1808 48.4007 93.7906 49.166 93.7906C49.2422 93.7906 49.3046 93.7478 49.3046 93.6956C49.3046 93.6434 49.5189 93.5111 49.7806 93.402C50.0424 93.2929 50.3576 93.1611 50.4808 93.1089C51.0711 92.8596 52.7513 92.8946 53.5358 93.1728Z" fill="#B8C4CE"/>
<path fill-rule="evenodd" clip-rule="evenodd" d="M45.7186 45.4946C45.7186 45.6178 45.6684 45.7187 45.6067 45.7187C45.5451 45.7187 45.4945 45.7945 45.4945 45.8867C45.4945 45.9793 45.4443 46.0551 45.3826 46.0551C45.321 46.0551 45.2704 46.1528 45.2704 46.2725C45.2704 46.3922 45.2256 46.5174 45.1711 46.5515C45.1165 46.5853 45.0384 46.7898 44.998 47.006C44.9572 47.2227 44.8881 47.3997 44.8446 47.3997C44.7386 47.3997 44.509 47.9283 44.4187 48.3809C44.3787 48.5806 44.3018 48.7443 44.248 48.7443C44.1938 48.7443 44.1499 48.82 44.1499 48.9123C44.1499 49.0049 44.1024 49.0807 44.0447 49.0807C43.987 49.0807 43.9054 49.3075 43.8638 49.5846C43.8222 49.8621 43.7437 50.0889 43.6891 50.0889C43.6342 50.0889 43.5898 50.1647 43.5898 50.2569C43.5898 50.3495 43.5423 50.4253 43.4846 50.4253C43.4265 50.4253 43.3453 50.6521 43.3037 50.9292C43.2621 51.2067 43.1832 51.4335 43.1287 51.4335C43.0741 51.4335 43.0294 51.5093 43.0294 51.6019C43.0294 51.6941 42.987 51.7699 42.9356 51.7699C42.8838 51.7699 42.7456 52.0599 42.6279 52.4139C42.5101 52.7683 42.3861 53.0835 42.3516 53.1145C42.2142 53.2377 41.9088 54.0035 41.9088 54.224C41.9088 54.3532 41.8582 54.4591 41.7966 54.4591C41.735 54.4591 41.6847 54.5349 41.6847 54.6271C41.6847 54.7197 41.6373 54.7955 41.5796 54.7955C41.5215 54.7955 41.4402 55.0223 41.3986 55.2994C41.357 55.5769 41.2785 55.8037 41.2236 55.8037C41.169 55.8037 41.1243 55.8795 41.1243 55.9717C41.1243 56.0643 41.0823 56.1401 41.0305 56.1401C40.9791 56.1401 40.8405 56.4297 40.7228 56.7841C40.6054 57.1385 40.481 57.4537 40.4469 57.4847C40.3095 57.6079 40.0038 58.3733 40.0038 58.5942C40.0038 58.7234 39.9535 58.8293 39.8919 58.8293C39.8303 58.8293 39.7797 58.9051 39.7797 58.9973C39.7797 59.0899 39.7326 59.1653 39.6745 59.1653C39.6168 59.1653 39.5352 59.3925 39.4936 59.6696C39.4523 59.9471 39.3735 60.1739 39.3189 60.1739C39.2643 60.1739 39.2196 60.2497 39.2196 60.3419C39.2196 60.4345 39.1698 60.5103 39.1085 60.5103C39.0477 60.5103 38.9657 60.712 38.9264 60.9585C38.8868 61.205 38.8106 61.4067 38.7569 61.4067C38.7031 61.4067 38.6592 61.5076 38.6592 61.6308C38.6592 61.754 38.6207 61.8549 38.5736 61.8549C38.4566 61.8549 38.0991 62.6999 38.0991 62.9762C38.0991 63.0991 38.0485 63.1995 37.9868 63.1995C37.9252 63.1995 37.8746 63.2753 37.8746 63.3675C37.8746 63.4601 37.8275 63.5355 37.7694 63.5355C37.7117 63.5355 37.6305 63.7627 37.5889 64.0398C37.5473 64.3173 37.4684 64.5441 37.4138 64.5441C37.3593 64.5441 37.3145 64.6199 37.3145 64.7121C37.3145 64.8048 37.2647 64.8801 37.2039 64.8801C37.143 64.8801 37.0606 65.0818 37.0214 65.3287C36.9821 65.5752 36.9056 65.7769 36.8518 65.7769C36.798 65.7769 36.7541 65.8778 36.7541 66.001C36.7541 66.1243 36.7042 66.2251 36.6434 66.2251C36.5826 66.2251 36.5005 66.4268 36.4613 66.6733C36.4217 66.9198 36.3455 67.1215 36.2917 67.1215C36.238 67.1215 36.194 67.2224 36.194 67.3456C36.194 67.4689 36.1556 67.5697 36.1085 67.5697C35.9915 67.5697 35.6336 68.4147 35.6336 68.691C35.6336 68.8139 35.5833 68.9144 35.5217 68.9144C35.4601 68.9144 35.4095 68.9901 35.4095 69.0823C35.4095 69.175 35.3596 69.2503 35.2988 69.2503C35.238 69.2503 35.1559 69.452 35.1163 69.6985C35.077 69.9454 35.0009 70.1467 34.9471 70.1467C34.8934 70.1467 34.8494 70.2476 34.8494 70.3708C34.8494 70.4945 34.7996 70.5953 34.7387 70.5953C34.6775 70.5953 34.5955 70.7967 34.5562 71.0435C34.5166 71.29 34.4404 71.4917 34.3867 71.4917C34.3329 71.4917 34.2889 71.5926 34.2889 71.7158C34.2889 71.8391 34.2505 71.9399 34.2034 71.9399C34.101 71.9399 33.7289 72.77 33.7289 72.9984C33.7289 73.0867 33.6783 73.1904 33.6166 73.2284C33.0829 73.5581 33.5193 73.6205 36.362 73.6205C39.1446 73.6205 39.2196 73.6146 39.2196 73.3964C39.2196 73.2732 39.2698 73.1723 39.3315 73.1723C39.3931 73.1723 39.4437 73.117 39.4437 73.0495C39.4437 72.9329 39.4983 72.7951 39.9347 71.8108C40.0344 71.5859 40.116 71.2959 40.116 71.1664C40.116 71.0372 40.1545 70.9313 40.2016 70.9313C40.3185 70.9313 40.6761 70.0863 40.6761 69.81C40.6761 69.6871 40.7267 69.5867 40.7883 69.5867C40.8499 69.5867 40.9002 69.5109 40.9002 69.4187C40.9002 69.3261 40.9449 69.2503 40.9995 69.2503C41.0544 69.2503 41.1329 69.0235 41.1745 68.7464L41.2503 68.242H45.5498H49.8498L49.9232 68.494C50.0566 68.9512 50.254 69.3626 50.3404 69.3626C50.3871 69.3626 50.4251 69.4575 50.4251 69.5737C50.4251 69.6899 50.5005 69.9297 50.5923 70.1059C50.6846 70.2825 50.7599 70.5404 50.7603 70.6793C50.7607 70.8179 50.8117 70.9313 50.8734 70.9313C50.935 70.9313 50.9852 71.007 50.9852 71.0993C50.9852 71.1919 51.03 71.2676 51.0845 71.2676C51.1395 71.2676 51.2179 71.4945 51.2596 71.7716C51.3012 72.049 51.3824 72.2759 51.4405 72.2759C51.4982 72.2759 51.5457 72.4019 51.5457 72.5561C51.5457 72.7104 51.5888 72.8364 51.6414 72.8364C51.694 72.8364 51.7843 73 51.8416 73.2006L51.946 73.5648L53.4547 73.595L54.9633 73.6252L55.2824 72.8104C55.4582 72.3622 55.6455 71.8948 55.6984 71.7716C56.4398 70.0494 56.797 68.9144 56.5968 68.9144C56.5305 68.9144 56.4759 68.8135 56.4759 68.6903C56.4759 68.567 56.428 68.4661 56.3692 68.4661C56.3103 68.4661 56.2287 68.2891 56.1882 68.0725C56.1478 67.8562 56.0697 67.6518 56.0152 67.6176C55.9606 67.5839 55.9159 67.4587 55.9159 67.339C55.9159 67.2193 55.8707 67.1215 55.8158 67.1215C55.7608 67.1215 55.6835 66.9826 55.6443 66.8134C55.5689 66.4896 55.1278 65.5367 55.0089 65.4406C54.9708 65.41 54.9049 65.1953 54.8625 64.9645C54.8197 64.7333 54.7369 64.5441 54.678 64.5441C54.6191 64.5441 54.5713 64.4433 54.5713 64.32C54.5713 64.1968 54.5214 64.0959 54.4602 64.0959C54.3993 64.0959 54.3173 63.8942 54.2781 63.6477C54.2384 63.4013 54.1623 63.1995 54.1085 63.1995C54.0548 63.1995 54.0108 63.0987 54.0108 62.9754C54.0108 62.8522 53.9657 62.7513 53.9107 62.7513C53.8558 62.7513 53.7788 62.6124 53.7392 62.4432C53.6638 62.1194 53.2231 61.1665 53.1042 61.0704C53.0657 61.0397 52.9998 60.8255 52.9574 60.5943C52.915 60.3631 52.8318 60.1739 52.7729 60.1739C52.7145 60.1739 52.6662 60.0731 52.6662 59.9498C52.6662 59.8266 52.6163 59.7257 52.5555 59.7257C52.4947 59.7257 52.4122 59.524 52.373 59.2775C52.3337 59.0311 52.2572 58.8293 52.2034 58.8293C52.1497 58.8293 52.1057 58.7285 52.1057 58.6052C52.1057 58.482 52.0594 58.3811 52.0025 58.3811C51.946 58.3811 51.8644 58.2206 51.8212 58.0244C51.778 57.8285 51.6567 57.5134 51.5519 57.3242C51.4468 57.135 51.2662 56.7155 51.1508 56.3921C51.0354 56.0687 50.9004 55.8037 50.851 55.8037C50.8015 55.8037 50.7611 55.7029 50.7611 55.5796C50.7611 55.4564 50.7113 55.3555 50.6504 55.3555C50.5896 55.3555 50.5076 55.1538 50.4679 54.9073C50.4287 54.6609 50.3525 54.4591 50.2988 54.4591C50.245 54.4591 50.201 54.3583 50.201 54.235C50.201 54.1118 50.1543 54.0109 50.0978 54.0109C50.0409 54.0109 49.9616 53.8606 49.9212 53.6773C49.8812 53.4936 49.7258 53.1027 49.5766 52.8088C49.4275 52.5148 49.305 52.2102 49.305 52.1325C49.3046 51.9854 49.0766 51.5317 48.9545 51.4335C48.9157 51.4029 48.849 51.2138 48.8054 51.0136C48.7618 50.813 48.6798 50.6494 48.6233 50.6494C48.5664 50.6494 48.5201 50.523 48.5201 50.3691C48.5201 50.2149 48.4698 50.0889 48.4078 50.0889C48.3462 50.0889 48.296 49.9881 48.296 49.8648C48.296 49.7416 48.2477 49.6407 48.1888 49.6407C48.13 49.6407 48.0471 49.4515 48.0048 49.2204C47.9624 48.9896 47.8945 48.7753 47.8537 48.7443C47.7496 48.665 47.3996 47.8954 47.3996 47.7455C47.3996 47.612 47.1656 47.1563 47.0495 47.0633C47.011 47.0327 46.9439 46.8435 46.9003 46.6434C46.8572 46.4428 46.7751 46.2792 46.7182 46.2792C46.6617 46.2792 46.615 46.1532 46.615 45.9989C46.615 45.8447 46.5648 45.7187 46.5032 45.7187C46.4415 45.7187 46.3909 45.6178 46.3909 45.4946C46.3909 45.3204 46.3163 45.2705 46.0549 45.2705C45.7936 45.2705 45.7186 45.3204 45.7186 45.4946ZM21.9629 46.3749C21.9629 46.4279 21.5469 46.5056 21.0386 46.5476C20.53 46.5896 20.0971 46.6728 20.0767 46.7317C20.0563 46.791 19.9173 46.8392 19.7686 46.8392C19.6194 46.8392 19.4978 46.8855 19.4978 46.9417C19.4978 46.9978 19.2956 47.0779 19.0488 47.1195C18.8019 47.1614 18.5374 47.2835 18.4605 47.3914C18.3839 47.4994 18.181 47.6222 18.0099 47.6646C17.6645 47.7502 15.6876 49.6811 15.6876 49.9331C15.6876 50.0191 15.6374 50.0889 15.5758 50.0889C15.5141 50.0889 15.4635 50.1647 15.4635 50.2569C15.4635 50.3495 15.4156 50.4253 15.3568 50.4253C15.2979 50.4253 15.2166 50.6015 15.1762 50.8174C15.1358 51.0332 15.0577 51.2094 15.0031 51.2094C14.9482 51.2094 14.9035 51.3315 14.9035 51.4802C14.9035 51.6294 14.8403 51.7722 14.7633 51.7978C14.657 51.8331 14.6232 52.4222 14.6232 54.235C14.6232 56.0479 14.657 56.637 14.7633 56.6723C14.8403 56.6978 14.9035 56.8407 14.9035 56.9898C14.9035 57.1385 14.9537 57.2606 15.0153 57.2606C15.0769 57.2606 15.1276 57.3159 15.1276 57.3838C15.1276 57.5722 15.4902 58.2975 15.71 58.5491C15.8175 58.6723 16.0895 58.9875 16.314 59.2497C16.5385 59.5114 16.7693 59.7257 16.8266 59.7257C16.8843 59.7257 17.0479 59.8517 17.1908 60.006C17.3337 60.1598 17.513 60.2862 17.5896 60.2862C17.6661 60.2862 17.8278 60.4122 17.9491 60.566C18.0699 60.7203 18.2414 60.8463 18.3294 60.8463C18.4173 60.8463 18.4891 60.8969 18.4891 60.9585C18.4891 61.0201 18.59 61.0704 18.7132 61.0704C18.8364 61.0704 18.9373 61.1167 18.9373 61.1736C18.9373 61.2305 19.0888 61.3098 19.2737 61.3506C19.4585 61.391 19.6096 61.4707 19.6096 61.5276C19.6096 61.5841 19.7105 61.6308 19.8337 61.6308C19.957 61.6308 20.0578 61.6807 20.0578 61.7415C20.0578 61.8023 20.2596 61.8843 20.506 61.924C20.7529 61.9632 20.9542 62.0394 20.9542 62.0931C20.9542 62.1469 21.0551 62.1909 21.1783 62.1909C21.302 62.1909 21.4024 62.2348 21.4024 62.2886C21.4024 62.3424 21.6042 62.4185 21.851 62.4581C22.0975 62.4974 22.2992 62.5794 22.2992 62.6406C22.2992 62.7015 22.4001 62.7513 22.5233 62.7513C22.6466 62.7513 22.7474 62.8016 22.7474 62.8632C22.7474 62.9248 22.8734 62.9754 23.0273 62.9754C23.1815 62.9754 23.3075 63.0202 23.3075 63.0751C23.3075 63.1301 23.4335 63.207 23.5877 63.2455C23.742 63.2843 23.868 63.3652 23.868 63.4256C23.868 63.486 23.9433 63.5355 24.0359 63.5355C24.1286 63.5355 24.2039 63.5826 24.2039 63.6403C24.2039 63.6976 24.3126 63.7792 24.4457 63.8212C24.7185 63.9079 25.5485 64.6913 25.5485 64.8621C25.5485 64.9237 25.6117 64.9947 25.6887 65.0202C25.7868 65.0528 25.8288 65.3644 25.8288 66.0567C25.8288 66.7487 25.7868 67.0603 25.6887 67.0933C25.6117 67.1192 25.5485 67.2098 25.5485 67.295C25.5485 67.5497 24.9335 68.0996 24.556 68.1824C24.3625 68.2252 24.2039 68.306 24.2039 68.3629C24.2039 68.4198 24.0779 68.4661 23.9237 68.4661C23.7698 68.4661 23.6439 68.5164 23.6439 68.578C23.6439 68.6396 23.4421 68.6903 23.1957 68.6903C22.9492 68.6903 22.7474 68.7405 22.7474 68.8021C22.7474 68.8645 22.4484 68.9144 22.0751 68.9144C21.7015 68.9144 21.4024 68.8645 21.4024 68.8021C21.4024 68.7405 21.1254 68.6903 20.7863 68.6903C20.4476 68.6903 20.1701 68.6396 20.1701 68.578C20.1701 68.5164 20.0468 68.4661 19.8965 68.4661C19.7462 68.4661 19.5935 68.4187 19.5578 68.3606C19.5217 68.3025 19.2666 68.2212 18.9907 68.1796C18.7148 68.1384 18.4891 68.0599 18.4891 68.005C18.4891 67.9504 18.4134 67.9057 18.3211 67.9057C18.2285 67.9057 18.1531 67.861 18.1531 67.8064C18.1531 67.7515 17.9765 67.6733 17.7607 67.6329C17.5452 67.5925 17.3686 67.5234 17.3686 67.4791C17.3686 67.4347 17.1794 67.3107 16.9482 67.2032C16.4474 66.9708 16.1052 66.7636 16.0118 66.636C15.847 66.4115 15.3128 66.6176 15.2033 66.9481C15.1429 67.1302 14.9984 67.3813 14.8823 67.5062C14.7657 67.631 14.6421 67.8476 14.6067 67.9877C14.5718 68.1274 14.498 68.242 14.4431 68.242C14.3881 68.242 14.343 68.3429 14.343 68.4661C14.343 68.5894 14.2935 68.6903 14.2331 68.6903C14.1727 68.6903 14.0918 68.8162 14.053 68.9705C14.0145 69.1243 13.9376 69.2503 13.8826 69.2503C13.8277 69.2503 13.7829 69.3261 13.7829 69.4187C13.7829 69.5109 13.7323 69.5867 13.6707 69.5867C13.6091 69.5867 13.5588 69.6812 13.5588 69.797C13.5588 69.9128 13.4831 70.0702 13.3905 70.1467C13.0941 70.3928 13.1715 71.1181 13.5027 71.2013C13.657 71.2402 13.7829 71.321 13.7829 71.3818C13.7829 71.4423 13.8583 71.4917 13.9509 71.4917C14.0435 71.4917 14.1189 71.5345 14.1189 71.5867C14.1189 71.6389 14.3332 71.7763 14.5954 71.8917C14.8571 72.0071 15.0966 72.1283 15.1276 72.1609C15.2681 72.3093 15.6955 72.4914 16.0664 72.5608C16.2897 72.6028 16.4722 72.6817 16.4722 72.7367C16.4722 72.7916 16.5982 72.8364 16.7524 72.8364C16.9063 72.8364 17.0326 72.8819 17.0326 72.9376C17.0326 72.9937 17.2846 73.0742 17.5927 73.1166C17.9008 73.1586 18.1531 73.239 18.1531 73.2952C18.1531 73.3509 18.3447 73.3964 18.579 73.3964C18.8129 73.3964 19.0676 73.4596 19.1445 73.5365C19.2501 73.6421 20.0594 73.6766 22.4111 73.6766C24.7628 73.6766 25.5721 73.6421 25.6777 73.5365C25.7546 73.4596 25.9336 73.3964 26.0752 73.3964C26.2169 73.3964 26.3331 73.3525 26.3331 73.2987C26.3331 73.2449 26.5348 73.1688 26.7813 73.1295C27.0278 73.0899 27.2295 73.0079 27.2295 72.947C27.2295 72.8862 27.3053 72.8364 27.3975 72.8364C27.4901 72.8364 27.5659 72.7916 27.5659 72.7367C27.5659 72.6817 27.7311 72.606 27.9336 72.5679C28.1357 72.5302 28.374 72.3983 28.4627 72.2755C28.551 72.1527 28.686 72.0518 28.7617 72.0518C28.8379 72.0518 29.0227 71.9203 29.173 71.7594C29.5537 71.3508 29.5902 71.3143 30.031 70.903C30.4914 70.4733 30.8152 70.0007 30.8152 69.7586C30.8152 69.664 30.8658 69.5867 30.9274 69.5867C30.989 69.5867 31.0393 69.5109 31.0393 69.4187C31.0393 69.3261 31.0867 69.2503 31.1444 69.2503C31.2025 69.2503 31.2838 69.0235 31.3254 68.7464C31.367 68.4689 31.4459 68.242 31.5004 68.242C31.555 68.242 31.5997 68.0937 31.5997 67.9124C31.5997 67.731 31.65 67.5517 31.7116 67.5136C31.7783 67.4724 31.8238 66.7656 31.8238 65.7702C31.8238 64.7286 31.7814 64.0959 31.7116 64.0959C31.65 64.0959 31.5997 63.8942 31.5997 63.6477C31.5997 63.4013 31.555 63.1995 31.5004 63.1995C31.4459 63.1995 31.367 62.9727 31.3254 62.6952C31.2838 62.4177 31.2025 62.1909 31.1444 62.1909C31.0867 62.1909 31.0393 62.1155 31.0393 62.0229C31.0393 61.9303 30.989 61.8549 30.9274 61.8549C30.8658 61.8549 30.8152 61.7525 30.8152 61.6273C30.8152 61.5021 30.7398 61.3706 30.6472 61.3349C30.5549 61.2996 30.4792 61.2109 30.4792 61.1379C30.4792 60.9773 29.7382 60.1739 29.5906 60.1739C29.5329 60.1739 29.4576 60.0849 29.4227 59.9757C29.3881 59.8666 29.1832 59.6822 28.967 59.566C28.7511 59.4494 28.5741 59.3117 28.5741 59.2599C28.5741 59.2081 28.5047 59.1653 28.4199 59.1653C28.3351 59.1653 28.2028 59.0899 28.1259 58.9973C28.0494 58.9051 27.8916 58.8293 27.7762 58.8293C27.6604 58.8293 27.5659 58.7913 27.5659 58.7446C27.5659 58.6468 27.089 58.4274 26.6412 58.3191C26.4716 58.2783 26.3331 58.1998 26.3331 58.1449C26.3331 58.0899 26.2071 58.0448 26.0529 58.0448C25.899 58.0448 25.7726 57.9977 25.7726 57.9396C25.7726 57.8819 25.5458 57.8007 25.2687 57.759C24.9912 57.7174 24.7644 57.6386 24.7644 57.584C24.7644 57.5295 24.6886 57.4847 24.5964 57.4847C24.5038 57.4847 24.428 57.4341 24.428 57.3725C24.428 57.3108 24.3303 57.2606 24.2106 57.2606C24.0909 57.2606 23.9657 57.2159 23.9315 57.1613C23.8978 57.1064 23.6933 57.0287 23.4771 56.9878C23.2604 56.9474 23.0834 56.8662 23.0834 56.8073C23.0834 56.7484 22.988 56.7002 22.8715 56.7002C22.7545 56.7002 22.6301 56.6248 22.5948 56.5322C22.5591 56.4395 22.428 56.3642 22.3028 56.3642C22.1776 56.3642 22.0751 56.3136 22.0751 56.2519C22.0751 56.1903 22.0202 56.1401 21.9531 56.1401C21.7729 56.1401 20.6183 54.9242 20.6183 54.7342C20.6183 54.6448 20.5676 54.5714 20.506 54.5714C20.4428 54.5714 20.3942 54.2539 20.3942 53.8429C20.3942 53.432 20.4428 53.1145 20.506 53.1145C20.5676 53.1145 20.6183 53.0136 20.6183 52.8904C20.6183 52.7672 20.663 52.6663 20.718 52.6663C20.7729 52.6663 20.8483 52.5458 20.8852 52.3986C20.926 52.2361 21.0633 52.1031 21.2337 52.0603C21.3883 52.0215 21.5147 51.9402 21.5147 51.8798C21.5147 51.8193 21.6156 51.7699 21.7388 51.7699C21.862 51.7699 21.9629 51.7193 21.9629 51.6576C21.9629 51.596 22.114 51.5458 22.2992 51.5458C22.4841 51.5458 22.6352 51.4952 22.6352 51.4335C22.6352 51.3652 23.1395 51.3217 23.9237 51.3217C24.7083 51.3217 25.2126 51.3652 25.2126 51.4335C25.2126 51.4952 25.3637 51.5458 25.5485 51.5458C25.7334 51.5458 25.8849 51.596 25.8849 51.6576C25.8849 51.7193 26.0081 51.7699 26.1584 51.7699C26.3088 51.7699 26.4603 51.8154 26.4948 51.8715C26.5293 51.9273 26.8096 52.0077 27.1177 52.0501C27.4257 52.0925 27.6777 52.1726 27.6777 52.2287C27.6777 52.2844 27.7535 52.3299 27.8457 52.3299C27.9383 52.3299 28.0141 52.3782 28.0141 52.4371C28.0141 52.496 28.1903 52.5772 28.4061 52.6176C28.6216 52.6581 28.7982 52.7362 28.7982 52.7907C28.7982 52.8457 28.8697 52.8904 28.9572 52.8904C29.0443 52.8904 29.1334 52.9426 29.1546 53.0066C29.2343 53.2452 30.1864 53.1922 30.2359 52.9465C30.2606 52.8233 30.3128 52.6969 30.352 52.6663C30.4925 52.5552 30.8152 51.8994 30.8152 51.7244C30.8152 51.6262 30.854 51.5458 30.9011 51.5458C30.991 51.5458 31.3756 50.7279 31.3756 50.5363C31.3756 50.4751 31.4141 50.4253 31.4612 50.4253C31.551 50.4253 31.9357 49.6074 31.9357 49.4158C31.9357 49.3546 31.9863 49.3048 32.0479 49.3048C32.1095 49.3048 32.1598 49.2545 32.1598 49.1933C32.1598 49.0194 31.688 48.5202 31.5236 48.5202C31.4419 48.5202 31.3756 48.4751 31.3756 48.4201C31.3756 48.3652 31.2453 48.2879 31.086 48.2478C30.9266 48.2078 30.6888 48.0751 30.5577 47.9531C30.4266 47.8306 30.1283 47.7003 29.8952 47.663C29.6617 47.6257 29.4705 47.5512 29.4705 47.4974C29.4705 47.4436 29.3952 47.3997 29.3026 47.3997C29.2099 47.3997 29.1346 47.3498 29.1346 47.289C29.1346 47.2282 28.9317 47.1458 28.6836 47.1061C28.436 47.0665 28.206 46.9903 28.173 46.9366C28.1397 46.8832 27.9685 46.8392 27.7927 46.8392C27.6165 46.8392 27.4552 46.7874 27.434 46.7242C27.4128 46.661 26.879 46.5778 26.2479 46.5394C25.6168 46.5009 25.1003 46.4263 25.1003 46.3741C25.1003 46.3219 24.3947 46.2792 23.5316 46.2792C22.669 46.2792 21.9629 46.3223 21.9629 46.3749ZM79.4475 60.0621V73.6205H89.0282H98.6089V70.8752V68.1298H91.8854H85.1623V65.4406V62.7513H90.821H96.4797V60.006V57.2606H90.821H85.1623V54.6283V51.9956L91.5773 51.9669L97.9927 51.9379L98.0225 49.2204L98.0527 46.5033H88.7499H79.4475V60.0621ZM103.764 60.0621V73.6205H113.344H122.925V70.8752V68.1298H116.09H109.254V65.4406V62.7513H115.025H120.796V60.006V57.2606H115.025H109.254V54.6283V51.9956L115.782 51.9669L122.309 51.9379L122.339 49.2204L122.368 46.5033H113.066H103.764V60.0621ZM127.855 60.0519V73.6205H133.346C136.932 73.6205 138.837 73.5817 138.837 73.5087C138.837 73.4447 139.173 73.3964 139.621 73.3964C140.053 73.3964 140.405 73.3532 140.405 73.3003C140.405 73.2477 140.721 73.1715 141.106 73.1311C141.491 73.0911 141.823 73.0083 141.844 72.947C141.864 72.8862 142.003 72.8364 142.152 72.8364C142.301 72.8364 142.423 72.7916 142.423 72.7371C142.423 72.6821 142.65 72.6036 142.927 72.562C143.204 72.5204 143.431 72.4392 143.431 72.3811C143.431 72.3234 143.557 72.2759 143.711 72.2759C143.865 72.2759 143.991 72.2359 143.991 72.1864C143.991 72.1374 144.171 72.0318 144.391 71.9525C144.611 71.8728 144.818 71.7366 144.851 71.6499C144.884 71.5628 145.007 71.4917 145.124 71.4917C145.241 71.4917 145.336 71.4446 145.336 71.3869C145.336 71.3296 145.45 71.2468 145.588 71.2029C145.727 71.1593 145.922 71.0298 146.021 70.9152C146.121 70.801 146.252 70.7072 146.311 70.7072C146.371 70.7072 146.552 70.5686 146.713 70.3991C146.875 70.2295 147.059 70.0404 147.121 69.9787C147.289 69.8135 147.774 69.328 147.938 69.1608C148.017 69.0808 148.195 68.9081 148.333 68.7766C148.472 68.6451 148.586 68.4697 148.586 68.3865C148.586 68.3029 148.661 68.2059 148.754 68.1706C148.846 68.1349 148.922 68.016 148.922 67.9057C148.922 67.7958 148.997 67.6765 149.09 67.6412C149.182 67.6058 149.258 67.4744 149.258 67.3492C149.258 67.224 149.308 67.1215 149.37 67.1215C149.432 67.1215 149.482 67.0458 149.482 66.9532C149.482 66.8609 149.523 66.7852 149.572 66.7852C149.672 66.7852 150.042 66.0042 150.042 65.795C150.042 65.7235 150.093 65.6647 150.155 65.6647C150.216 65.6647 150.266 65.5669 150.266 65.4472C150.266 65.3275 150.311 65.2023 150.366 65.1686C150.42 65.1348 150.499 64.8295 150.541 64.4896C150.584 64.1497 150.666 63.8718 150.723 63.8718C150.78 63.8718 150.827 63.6199 150.827 63.3114C150.827 63.0033 150.877 62.7513 150.939 62.7513C151.01 62.7513 151.051 61.8922 151.051 60.398C151.051 58.9039 151.01 58.0448 150.939 58.0448C150.877 58.0448 150.827 57.7928 150.827 57.4847C150.827 57.1766 150.783 56.9243 150.729 56.9243C150.676 56.9243 150.597 56.6217 150.556 56.2519C150.514 55.8822 150.432 55.5796 150.373 55.5796C150.314 55.5796 150.266 55.4537 150.266 55.2994C150.266 55.1456 150.216 55.0196 150.155 55.0196C150.093 55.0196 150.042 54.8932 150.042 54.7393C150.042 54.5851 149.998 54.4591 149.943 54.4591C149.888 54.4591 149.81 54.2825 149.769 54.067C149.729 53.8512 149.648 53.6746 149.589 53.6746C149.53 53.6746 149.482 53.5992 149.482 53.5066C149.482 53.4144 149.438 53.3386 149.384 53.3386C149.33 53.3386 149.255 53.1804 149.216 52.9873C149.177 52.7942 149.052 52.5548 148.938 52.4551C148.823 52.3555 148.694 52.1604 148.65 52.0219C148.607 51.8833 148.523 51.7699 148.466 51.7699C148.409 51.7699 148.362 51.7173 148.362 51.6529C148.362 51.5309 148.249 51.3786 147.829 50.9292C147.691 50.7809 147.577 50.6321 147.577 50.5984C147.577 50.47 147.121 50.0889 146.968 50.0889C146.88 50.0889 146.776 49.9881 146.737 49.8648C146.698 49.7416 146.621 49.6407 146.566 49.6407C146.512 49.6407 146.348 49.5273 146.203 49.3887C145.884 49.0834 145.571 48.8722 145.308 48.7839C145.2 48.7478 145.112 48.6737 145.112 48.6191C145.112 48.5645 145.036 48.5202 144.944 48.5202C144.851 48.5202 144.776 48.4707 144.776 48.4103C144.776 48.3499 144.65 48.2686 144.496 48.2302C144.342 48.1913 144.216 48.1148 144.216 48.0598C144.216 48.0049 144.115 47.9597 143.991 47.9597C143.868 47.9597 143.767 47.9099 143.767 47.8491C143.767 47.7882 143.566 47.7062 143.319 47.667C143.073 47.6273 142.871 47.5512 142.871 47.4974C142.871 47.4436 142.745 47.3997 142.591 47.3997C142.436 47.3997 142.311 47.3518 142.311 47.2933C142.311 47.2345 142.008 47.1524 141.638 47.1104C141.268 47.0688 140.966 46.9907 140.966 46.937C140.966 46.8832 140.794 46.8392 140.583 46.8392C140.372 46.8392 140.179 46.7764 140.153 46.6991C140.117 46.59 138.755 46.5508 133.981 46.5213L127.855 46.4836V60.0519ZM138.781 51.9905C139.336 52.065 139.806 52.1722 139.827 52.2283C139.847 52.284 139.983 52.3299 140.128 52.3299C140.274 52.3299 140.42 52.3739 140.453 52.4277C140.486 52.4814 140.666 52.556 140.854 52.5933C141.041 52.631 141.306 52.7652 141.442 52.8924C141.578 53.0191 141.809 53.153 141.955 53.1899C142.239 53.2609 143.767 54.7523 143.767 54.9583C143.767 55.0262 143.868 55.1546 143.991 55.2437C144.115 55.3324 144.216 55.4438 144.216 55.4917C144.216 55.6644 144.607 56.4761 144.69 56.4761C144.737 56.4761 144.776 56.5981 144.776 56.7469C144.776 56.896 144.825 57.0345 144.886 57.0549C144.946 57.0757 145.03 57.6849 145.071 58.409C145.112 59.1331 145.189 59.7257 145.241 59.7257C145.293 59.7257 145.336 59.9023 145.336 60.1178C145.336 60.3337 145.293 60.5103 145.241 60.5103C145.189 60.5103 145.114 61.0017 145.074 61.6022C145.035 62.203 144.951 62.7113 144.889 62.7321C144.827 62.7529 144.776 62.8918 144.776 63.0406C144.776 63.1897 144.725 63.3114 144.664 63.3114C144.602 63.3114 144.55 63.3997 144.548 63.5076C144.546 63.6156 144.471 63.8016 144.38 63.9213C144.289 64.041 144.216 64.218 144.216 64.3146C144.216 64.4111 144.115 64.5532 143.991 64.6301C143.868 64.707 143.767 64.8326 143.766 64.9092C143.764 65.1203 142.305 66.4975 141.89 66.6796C141.69 66.7679 141.526 66.8758 141.526 66.9194C141.526 66.9634 141.35 67.0324 141.134 67.0729C140.918 67.1133 140.742 67.191 140.742 67.2459C140.742 67.3009 140.666 67.3456 140.574 67.3456C140.481 67.3456 140.405 67.3896 140.405 67.443C140.405 67.4967 140.103 67.5748 139.733 67.6168C139.363 67.6584 139.061 67.7409 139.061 67.7993C139.061 67.8578 138.809 67.9057 138.501 67.9057C138.193 67.9057 137.94 67.9563 137.94 68.0179C137.94 68.0886 137.137 68.1298 135.755 68.1298H133.57V59.9451V51.7605L135.671 51.8076C136.827 51.8339 138.226 51.9159 138.781 51.9905ZM45.8308 58.1009C45.8308 58.2551 45.8811 58.3811 45.9427 58.3811C46.0043 58.3811 46.0549 58.482 46.0549 58.6052C46.0549 58.7285 46.0989 58.8293 46.1527 58.8293C46.2064 58.8293 46.2826 59.0311 46.3218 59.2775C46.3615 59.524 46.4435 59.7257 46.5043 59.7257C46.5652 59.7257 46.615 59.8517 46.615 60.006C46.615 60.1598 46.6656 60.2862 46.7273 60.2862C46.7889 60.2862 46.8391 60.3918 46.8391 60.5213C46.8391 60.6504 46.9149 60.9279 47.0075 61.1375C47.0997 61.3471 47.2512 61.6901 47.3434 61.8997C47.4361 62.1092 47.5114 62.3349 47.5114 62.4005C47.5114 62.4664 47.6123 62.6999 47.7355 62.9193C47.8588 63.1387 47.9596 63.3671 47.9596 63.4272C47.9596 63.4935 47.0715 63.5355 45.6625 63.5355C44.206 63.5355 43.3657 63.4947 43.3657 63.4236C43.3657 63.362 43.4097 63.3114 43.4634 63.3114C43.5168 63.3114 43.5933 63.1097 43.6326 62.8632C43.6722 62.6167 43.7543 62.415 43.8151 62.415C43.8759 62.415 43.9258 62.289 43.9258 62.1347C43.9258 61.9809 43.9764 61.8549 44.038 61.8549C44.0996 61.8549 44.1499 61.754 44.1499 61.6308C44.1499 61.5076 44.1997 61.4067 44.2606 61.4067C44.3214 61.4067 44.4038 61.205 44.4431 60.9585C44.4823 60.712 44.5588 60.5103 44.6126 60.5103C44.6664 60.5103 44.7103 60.4094 44.7103 60.2862C44.7103 60.163 44.7543 60.0621 44.8081 60.0621C44.8618 60.0621 44.938 59.8604 44.9772 59.6139C45.0168 59.367 45.0989 59.1653 45.1597 59.1653C45.2205 59.1653 45.2704 59.0393 45.2704 58.8854C45.2704 58.7312 45.3151 58.6052 45.3701 58.6052C45.4246 58.6052 45.5027 58.4286 45.5432 58.2131C45.6275 57.7626 45.8308 57.6833 45.8308 58.1009Z" fill="#CED6DE"/>
<path fill-rule="evenodd" clip-rule="evenodd" d="M72.4245 11.6287C72.3523 11.675 72.806 11.7131 73.4331 11.7139C74.4065 11.7146 74.6749 11.7574 75.2735 12.0074C75.6585 12.1683 75.9736 12.268 75.9736 12.2284C75.9736 12.146 75.578 11.9658 74.8531 11.7178C74.3311 11.5392 72.6615 11.478 72.4245 11.6287ZM71.304 12.0742C67.3274 14.2041 68.0523 19.8499 72.4571 21.0528C74.8147 21.6965 77.8885 19.7843 78.1707 17.4978C78.2092 17.1885 78.1554 17.2725 77.9509 17.84C76.5945 21.6113 71.6521 22.1572 69.5371 18.7694C68.0869 16.4463 69.017 13.325 71.5214 12.1103C71.9056 11.9242 72.1431 11.7704 72.0497 11.7688C71.9559 11.7672 71.6203 11.9046 71.304 12.0742ZM76.5616 12.7728C77.5518 13.6444 78.1903 15.0346 78.2347 16.4161L78.2563 17.0884L78.2979 16.4864C78.3995 15.0169 77.0247 12.3261 76.1722 12.3261C76.1075 12.3261 76.2825 12.5271 76.5616 12.7728ZM93.4545 26.1958C92.4807 26.5698 91.6624 27.1895 91.04 28.0247C89.0289 30.7238 90.9042 35.1995 94.1597 35.47L94.7429 35.5182L94.0294 35.3526C88.3087 34.0245 89.6718 25.6216 95.5216 26.1557C100.765 26.6342 101.097 34.1583 95.9278 35.371L95.3034 35.5178L95.8866 35.4696C97.1147 35.3679 98.8439 34.0975 99.3227 32.9444C99.4377 32.6669 99.5892 32.3192 99.6587 32.1712C99.9903 31.4671 99.7568 29.3105 99.2548 28.4439C98.1288 26.498 95.4109 25.4446 93.4545 26.1958ZM61.7425 27.0098C64.0491 27.2437 64.5974 28.1005 64.1602 30.7873C64.0726 31.3266 63.9415 32.3478 63.8689 33.0566C63.7963 33.765 63.6664 34.8887 63.5801 35.5535C63.4137 36.8385 63.3811 37.5065 63.4902 37.3974C63.5267 37.3605 63.6013 36.8856 63.655 36.342C63.832 34.5629 64.0828 32.3455 64.2112 31.4318C64.4368 29.8246 64.5149 28.9929 64.4635 28.7535C64.2127 27.5836 63.1338 26.8818 61.6307 26.9109L60.9022 26.9246L61.7425 27.0098ZM82.8941 34.9213C84.76 35.8522 85.7945 37.24 85.0783 37.8499C84.6532 38.2114 81.0048 41.83 79.5012 43.3807C78.3803 44.5369 78.0322 44.9113 76.7523 46.3391C75.6538 47.5648 74.0238 49.6724 71.5132 53.1144C71.1313 53.6384 70.0371 55.1231 69.0822 56.414C67.2215 58.9286 67.2403 58.8877 67.4719 59.9678C67.6045 60.5875 68.7705 63.1563 68.8722 63.0546C68.9048 63.0221 68.6713 62.4612 68.3534 61.8085C67.9829 61.0479 67.7124 60.3038 67.601 59.7374L67.4267 58.8536L68.5908 57.301C69.2309 56.4473 69.8428 55.651 69.9507 55.5309C70.0587 55.4112 70.1466 55.2758 70.1466 55.2303C70.1466 55.1847 70.2109 55.0807 70.2894 54.9995C70.3683 54.9179 70.9586 54.12 71.6019 53.2263C72.2451 52.3326 72.8617 51.5037 72.972 51.3844C73.0819 51.2651 73.1722 51.1297 73.1722 51.0842C73.1722 51.0386 73.2361 50.9346 73.3146 50.8534C73.3931 50.7718 73.6561 50.4279 73.8994 50.0888C74.1423 49.7497 74.3696 49.4475 74.4041 49.4165C74.4387 49.3859 74.6404 49.1336 74.8531 48.8565C75.0654 48.579 75.2687 48.3266 75.3049 48.296C75.341 48.265 75.443 48.1347 75.5321 48.006C76.1989 47.0401 79.2889 43.7351 82.6276 40.4151L85.6517 37.4088L85.444 37.0234C84.9138 36.0383 82.9785 34.5104 82.2666 34.5143C82.1641 34.5147 82.4467 34.698 82.8941 34.9213ZM63.2724 38.7432C63.1798 39.7252 63.1982 41.7959 63.3065 42.5812C63.363 42.9874 63.3972 42.3104 63.4078 40.5921C63.4239 37.8833 63.3933 37.4625 63.2724 38.7432ZM63.4867 44.7661C63.5298 46.0365 63.7912 47.9228 63.9431 48.0633C64.0212 48.1359 63.918 47.2666 63.7575 46.5032C63.6994 46.2257 63.604 45.4188 63.5459 44.7104L63.4404 43.4215L63.4867 44.7661ZM63.9855 48.3172C63.9831 48.5719 64.5287 50.0712 64.752 50.4236C65.2599 51.2251 66.2352 51.6399 66.5876 51.2043C66.6995 51.0665 66.7603 50.9232 66.7234 50.8864C66.6865 50.8495 66.6072 50.9068 66.5472 51.0143C66.1665 51.6945 64.9918 50.8836 64.5534 49.6383C64.4451 49.331 64.323 49.0464 64.2822 49.0052C64.2414 48.9644 64.2069 48.8259 64.2061 48.6975C64.2053 48.5692 64.1554 48.3886 64.0958 48.296C64.002 48.1512 63.9871 48.1539 63.9855 48.3172ZM68.9142 63.2709C68.9142 63.4028 71.2522 68.1862 72.0834 69.7546C73.3833 72.2083 75.9046 76.2198 78.7382 80.3439C80.6107 83.0693 83.5892 86.8245 85.7152 89.1401C87.9213 91.5432 94.9431 98.3785 96.8388 99.9684C97.5966 100.604 98.278 101.201 98.3533 101.295C98.7544 101.799 98.2148 103.114 97.1315 104.272C96.376 105.08 96.272 105.309 96.9408 104.693C98.0939 103.63 98.9193 101.892 98.5527 101.298C98.5138 101.235 97.8678 100.672 97.117 100.045C95.1393 98.395 86.7533 90.1656 85.1022 88.255C84.7345 87.8296 84.3581 87.3951 84.2658 87.2892C84.1732 87.1832 83.9212 86.8818 83.7054 86.6188C83.4899 86.3559 83.1595 85.9587 82.9715 85.7357C80.7979 83.1576 77.4917 78.4318 74.6133 73.7888C73.5034 71.998 73.1466 71.4002 72.5403 70.315C72.2173 69.7365 69.572 64.4287 69.2592 63.7317C69.0433 63.2501 68.9142 63.0778 68.9142 63.2709ZM64.1833 66.1968C63.7952 66.6415 62.8175 68.3456 62.9019 68.43C62.9333 68.4614 63.0353 68.3436 63.1287 68.1682C63.2221 67.9931 63.3897 67.6953 63.5012 67.5065C64.3905 65.9986 64.431 65.9707 64.6539 66.7011C64.7339 66.9629 64.8234 67.1101 64.8525 67.0277C64.9106 66.8632 64.5573 66.0009 64.4321 66.0009C64.3894 66.0009 64.2775 66.0889 64.1833 66.1968ZM62.4419 69.2687C62.2621 69.6592 61.9258 70.483 61.6946 71.0992C61.4635 71.7158 61.2343 72.3206 61.1856 72.4438C60.6263 73.8559 60.3406 74.79 60.498 74.6927C60.5663 74.6503 60.622 74.5282 60.622 74.4207C60.622 74.3136 60.662 74.1778 60.7111 74.1193C60.7601 74.0608 60.8952 73.7103 61.0109 73.3406C61.1271 72.9705 61.2633 72.62 61.3143 72.5616C61.365 72.5031 61.4066 72.3845 61.4066 72.2986C61.4066 72.2123 61.4776 71.9827 61.5647 71.7888C61.6519 71.5945 61.832 71.1329 61.9654 70.7632C62.0989 70.3935 62.3571 69.7687 62.5392 69.3751C62.7209 68.9818 62.8473 68.6368 62.8195 68.6093C62.792 68.5815 62.622 68.8782 62.4419 69.2687ZM60.2444 75.0773C60.1977 75.2316 60.1145 75.4584 60.0592 75.5816C59.7715 76.2241 57.9944 81.7541 57.5925 83.2573C57.0124 85.4292 56.658 86.3162 56.2247 86.6808C56.0395 86.8366 55.9198 86.9968 55.959 87.036C56.2153 87.2923 57.3723 85.2342 57.3723 84.5222C57.3723 84.3884 57.4229 84.2479 57.4846 84.2098C57.5462 84.1717 57.5964 84.0265 57.5964 83.8872C57.5964 83.7475 57.6663 83.4103 57.7514 83.1372C57.8366 82.8644 57.9677 82.4142 58.0427 82.1368C58.1172 81.8593 58.2232 81.5465 58.2777 81.4413C58.3323 81.3361 58.4096 81.0453 58.4496 80.7945C58.4897 80.5441 58.5662 80.3117 58.6196 80.2788C58.6734 80.2458 58.7169 80.0986 58.7169 79.9519C58.7169 79.8051 58.7617 79.6571 58.8166 79.6233C58.8712 79.5896 58.9512 79.3722 58.9944 79.1406C59.038 78.9087 59.1106 78.6688 59.1561 78.6072C59.2012 78.5452 59.3826 78.0413 59.5588 77.4863C59.735 76.9318 59.9202 76.4302 59.9705 76.3717C60.0207 76.3128 60.0619 76.1719 60.0619 76.0577C60.0619 75.9439 60.1404 75.6982 60.2366 75.5126C60.3327 75.3265 60.3928 75.0895 60.3704 74.9859C60.3398 74.8458 60.3072 74.8693 60.2444 75.0773ZM107.125 85.6015C106.162 85.9712 105.816 86.1812 105.264 86.7299C102.141 89.8363 104.312 95.0323 108.727 95.0213C109.109 95.0205 109.487 94.9789 109.565 94.9291C109.644 94.8792 109.24 94.8392 108.668 94.84C103.156 94.8478 102.134 87.0808 107.461 85.6651C110.361 84.8943 113.291 87.1675 113.287 90.1868C113.285 92.2022 112.142 93.7791 110.038 94.6657C109.845 94.7474 109.818 94.7862 109.951 94.7913C110.168 94.7999 110.971 94.451 111.028 94.3227C111.049 94.2768 111.132 94.2387 111.212 94.2387C111.678 94.2387 112.929 92.5346 113.275 91.4294C114.351 87.9901 110.473 84.3158 107.125 85.6015ZM51.0413 92.9636C50.8564 92.9914 50.6041 93.0566 50.4808 93.1088C50.3576 93.161 50.0424 93.2928 49.7807 93.402C49.5189 93.5111 49.3046 93.6433 49.3046 93.6955C49.3046 93.7477 49.2422 93.7905 49.1661 93.7905C48.9498 93.7905 47.9227 94.9436 47.6562 95.486C46.1778 98.4951 47.8685 101.853 51.1755 102.476C53.4695 102.907 56.2251 101.132 56.5375 99.021L56.5901 98.665L56.4692 99.001C54.6042 104.177 47.2963 103.143 47.2885 97.7019C47.281 92.4086 55.112 91.312 56.4178 96.424C56.4649 96.6089 56.5281 96.6932 56.5579 96.6116C56.6105 96.4684 56.2855 95.473 56.149 95.3592C56.1121 95.3286 55.9457 95.0931 55.7789 94.8361C55.6124 94.5794 55.2851 94.2265 55.0516 94.0523C54.8181 93.8784 54.6018 93.7104 54.5712 93.679C54.0861 93.1884 52.154 92.7971 51.0413 92.9636ZM56.607 97.7125C56.605 98.3401 56.6368 98.5885 56.7 98.4409C56.8197 98.1627 56.8197 97.4134 56.7 97.0402C56.6399 96.8522 56.6093 97.0732 56.607 97.7125ZM86.3397 98.4123C86.5057 98.6128 86.9088 99.0607 87.2357 99.4068C87.5622 99.7534 87.8538 100.131 87.8837 100.247C87.9363 100.453 87.9378 100.453 87.9508 100.248C87.9633 100.04 86.4786 98.2423 86.1882 98.1144C86.1058 98.0775 86.1737 98.2117 86.3397 98.4123Z" fill="#A49B8B"/>
<path fill-rule="evenodd" clip-rule="evenodd" d="M56.0418 70.8895C55.908 71.2388 55.8177 71.5433 55.8409 71.5665C55.864 71.5892 55.9924 71.3227 56.1258 70.9734C56.2592 70.6241 56.3499 70.3196 56.3268 70.2968C56.3036 70.2737 56.1753 70.5402 56.0418 70.8895ZM55.2667 72.8561C55.1321 73.1752 55.0434 73.4582 55.0701 73.4849C55.1175 73.532 55.3668 72.9939 55.5179 72.5186C55.6584 72.0755 55.5155 72.2678 55.2667 72.8561Z" fill="#447C40"/>
</svg>
