<svg width="515" height="331" viewBox="0 0 515 331" fill="none" xmlns="http://www.w3.org/2000/svg">
<line x1="256.736" y1="80.79" x2="256.736" y2="178.564" stroke="#E2EDF6"/>
<line x1="181.219" y1="253.238" x2="80.0736" y2="253.238" stroke="#E2EDF6"/>
<line x1="332.938" y1="254.767" x2="434.083" y2="254.767" stroke="#E2EDF6"/>
<rect x="217.675" y="1.16847" width="80.0132" height="80.0132" rx="26.4681" fill="white"/>
<path d="M257.681 23.1082C252.948 23.1082 249.1 26.9564 249.1 31.6899C249.1 36.333 252.731 40.0909 257.465 40.2535C257.609 40.2355 257.754 40.2355 257.862 40.2535C257.898 40.2535 257.916 40.2535 257.952 40.2535C257.971 40.2535 257.971 40.2535 257.989 40.2535C262.614 40.0909 266.245 36.333 266.263 31.6899C266.263 26.9564 262.415 23.1082 257.681 23.1082Z" fill="#57CAEB"/>
<path d="M266.859 45.0596C261.819 41.6992 253.598 41.6992 248.522 45.0596C246.227 46.5953 244.962 48.673 244.962 50.8952C244.962 53.1174 246.227 55.177 248.503 56.6946C251.033 58.3929 254.357 59.242 257.681 59.242C261.006 59.242 264.33 58.3929 266.859 56.6946C269.136 55.159 270.4 53.0993 270.4 50.8591C270.382 48.6368 269.136 46.5772 266.859 45.0596Z" fill="#57CAEB"/>
<rect x="217.675" y="1.16847" width="80.0132" height="80.0132" rx="26.4681" stroke="#BCEBFF" stroke-width="0.903339"/>
<rect x="434.535" y="212.732" width="80.0132" height="80.0132" rx="26.4681" fill="white"/>
<path d="M474.542 234.672C469.808 234.672 465.96 238.52 465.96 243.253C465.96 247.897 469.591 251.654 474.325 251.817C474.469 251.799 474.614 251.799 474.722 251.817C474.758 251.817 474.777 251.817 474.813 251.817C474.831 251.817 474.831 251.817 474.849 251.817C479.474 251.654 483.105 247.897 483.123 243.253C483.123 238.52 479.275 234.672 474.542 234.672Z" fill="#B378FF"/>
<path d="M483.72 256.641C478.679 253.28 470.459 253.28 465.382 256.641C463.087 258.158 461.823 260.236 461.823 262.458C461.823 264.68 463.087 266.74 465.364 268.258C467.893 269.956 471.217 270.805 474.542 270.805C477.866 270.805 481.19 269.956 483.72 268.258C485.996 266.722 487.261 264.662 487.261 262.422C487.243 260.218 485.996 258.14 483.72 256.641ZM478.751 260.977L474.199 265.53C473.982 265.746 473.693 265.855 473.404 265.855C473.114 265.855 472.825 265.728 472.609 265.53L470.332 263.253C469.899 262.82 469.899 262.097 470.332 261.663C470.766 261.23 471.488 261.23 471.922 261.663L473.404 263.145L477.161 259.387C477.595 258.953 478.318 258.953 478.751 259.387C479.203 259.82 479.203 260.543 478.751 260.977Z" fill="#B378FF"/>
<rect x="434.535" y="212.732" width="80.0132" height="80.0132" rx="26.4681" stroke="#E5D0FF" stroke-width="0.903339"/>
<rect x="0.45167" y="212.732" width="80.0132" height="80.0132" rx="26.4681" fill="white"/>
<path d="M35.0382 234.672C30.3047 234.672 26.4565 238.52 26.4565 243.253C26.4565 247.897 30.0879 251.654 34.8214 251.817C34.9659 251.799 35.1105 251.799 35.2189 251.817C35.255 251.817 35.2731 251.817 35.3092 251.817C35.3273 251.817 35.3273 251.817 35.3453 251.817C39.9704 251.654 43.6019 247.897 43.6199 243.253C43.6199 238.52 39.7717 234.672 35.0382 234.672Z" fill="#E85E75"/>
<path d="M44.2162 256.623C39.1755 253.262 30.9551 253.262 25.8784 256.623C23.5839 258.158 22.3192 260.236 22.3192 262.458C22.3192 264.68 23.5839 266.74 25.8603 268.258C28.3897 269.956 31.7139 270.805 35.0382 270.805C38.3625 270.805 41.6868 269.956 44.2162 268.258C46.4926 266.722 47.7572 264.662 47.7572 262.422C47.7392 260.2 46.4926 258.14 44.2162 256.623Z" fill="#E85E75"/>
<path d="M54.8936 244.319C55.1827 247.824 52.6894 250.896 49.2387 251.311C49.2206 251.311 49.2206 251.311 49.2026 251.311H49.1484C49.04 251.311 48.9316 251.311 48.8412 251.347C47.0887 251.438 45.4808 250.878 44.2703 249.848C46.1312 248.186 47.1971 245.692 46.9803 242.982C46.8539 241.519 46.348 240.182 45.5892 239.044C46.2757 238.701 47.0707 238.484 47.8837 238.412C51.4248 238.104 54.5865 240.742 54.8936 244.319Z" fill="#E85E75"/>
<path d="M58.507 261.031C58.3624 262.784 57.2423 264.301 55.3633 265.331C53.5567 266.325 51.2802 266.794 49.0219 266.74C50.3227 265.566 51.0815 264.102 51.226 262.549C51.4067 260.308 50.3408 258.159 48.2089 256.442C46.9984 255.485 45.5892 254.726 44.0535 254.166C48.0463 253.009 53.0689 253.786 56.1583 256.28C57.8204 257.617 58.6696 259.297 58.507 261.031Z" fill="#E85E75"/>
<rect x="0.45167" y="212.732" width="80.0132" height="80.0132" rx="26.4681" stroke="#FFCFD1" stroke-width="0.903339"/>
<circle cx="256.657" cy="254.002" r="75.7807" fill="white" stroke="#E2EDF6"/>
<circle cx="256.411" cy="254.599" r="51.5905" fill="#E2EDF6"/>
<g filter="url(#filter0_d_768_13759)">
<circle cx="257.048" cy="254.144" r="41.638" fill="#0C37AA" stroke="white" stroke-width="3.61336"/>
<path d="M256.996 230C252.249 230.001 247.609 231.409 243.663 234.047C239.717 236.685 236.642 240.433 234.826 244.819C233.01 249.204 232.535 254.03 233.462 258.685C234.388 263.34 236.675 267.616 240.031 270.972C243.388 274.328 247.664 276.613 252.32 277.539C256.975 278.465 261.8 277.989 266.186 276.173C270.571 274.356 274.319 271.28 276.956 267.333C279.593 263.387 281 258.747 281 254C281 250.848 280.379 247.727 279.173 244.815C277.966 241.902 276.198 239.256 273.969 237.028C271.74 234.799 269.094 233.031 266.181 231.826C263.269 230.62 260.148 229.999 256.996 230ZM236.911 256.409V251.6H261.367V256.4L236.911 256.409ZM273.592 265.615H249.132V260.83H273.587L273.592 265.615ZM273.592 247.202H249.132V242.394H273.587L273.592 247.202Z" fill="white"/>
</g>
<defs>
<filter id="filter0_d_768_13759" x="196.778" y="202.287" width="120.539" height="120.539" filterUnits="userSpaceOnUse" color-interpolation-filters="sRGB">
<feFlood flood-opacity="0" result="BackgroundImageFix"/>
<feColorMatrix in="SourceAlpha" type="matrix" values="0 0 0 0 0 0 0 0 0 0 0 0 0 0 0 0 0 0 127 0" result="hardAlpha"/>
<feOffset dy="8.41244"/>
<feGaussianBlur stdDeviation="8.41244"/>
<feComposite in2="hardAlpha" operator="out"/>
<feColorMatrix type="matrix" values="0 0 0 0 0.0393513 0 0 0 0 0.203984 0 0 0 0 0.249928 0 0 0 0.1 0"/>
<feBlend mode="normal" in2="BackgroundImageFix" result="effect1_dropShadow_768_13759"/>
<feBlend mode="normal" in="SourceGraphic" in2="effect1_dropShadow_768_13759" result="shape"/>
</filter>
</defs>
</svg>
