<svg width="95" height="94" viewBox="0 0 95 94" fill="none" xmlns="http://www.w3.org/2000/svg">
<rect x="0.5" width="94" height="94" rx="47" fill="#F7FAFC"/>
<path d="M53.5999 27.42C52.7799 26.6 51.3599 27.16 51.3599 28.3V35.28C51.3599 38.2 53.8399 40.62 56.8599 40.62C58.7599 40.64 61.3999 40.64 63.6599 40.64C64.7999 40.64 65.3999 39.3 64.5999 38.5C61.7199 35.6 56.5599 30.38 53.5999 27.42Z" fill="#8895A7"/>
<path d="M63 43.38H57.22C52.48 43.38 48.62 39.52 48.62 34.78V29C48.62 27.9 47.72 27 46.62 27H38.14C31.98 27 27 31 27 38.14V55.86C27 63 31.98 67 38.14 67H53.86C60.02 67 65 63 65 55.86V45.38C65 44.28 64.1 43.38 63 43.38ZM45 58.5H37C36.18 58.5 35.5 57.82 35.5 57C35.5 56.18 36.18 55.5 37 55.5H45C45.82 55.5 46.5 56.18 46.5 57C46.5 57.82 45.82 58.5 45 58.5ZM49 50.5H37C36.18 50.5 35.5 49.82 35.5 49C35.5 48.18 36.18 47.5 37 47.5H49C49.82 47.5 50.5 48.18 50.5 49C50.5 49.82 49.82 50.5 49 50.5Z" fill="#8895A7"/>
<path d="M53.9558 64.1713H53.9887C54.3637 66.0332 55.2768 67.8047 56.7384 69.2481C59.3806 71.8883 63.0944 72.776 66.4425 71.934C67.442 71.6841 68.4115 71.278 69.3093 70.741C70.012 70.3409 70.6592 69.8305 71.2317 69.2366C72.8889 67.5756 73.8648 65.4762 74.1059 63.2768C74.1138 63.2461 74.119 63.2212 74.1225 63.2038C74.1285 63.1739 74.133 63.1458 74.1365 63.1201C74.1763 62.9271 74.1864 62.7445 74.1888 62.6189C74.1975 62.5683 74.2059 62.5035 74.2085 62.4284C74.341 59.6736 73.3381 56.851 71.2209 54.7551C69.1986 52.7341 66.5133 51.7071 63.8431 51.7514C61.2633 51.7755 58.6922 52.8025 56.7391 54.7537C55.363 56.1083 54.4782 57.7953 54.0478 59.5332C53.7989 60.4874 53.7059 61.4654 53.7693 62.4432V62.5013C53.7693 62.7069 53.7963 62.9072 53.812 63.0237C53.8147 63.0439 53.8171 63.0616 53.8189 63.0763L53.9558 64.1713ZM74.1457 62.801L74.1459 62.8005L74.1457 62.801ZM62.7632 61.0974L61.4534 59.7876C61.3388 59.6644 61.3605 59.5078 61.4432 59.4252C61.5067 59.3616 61.573 59.3413 61.6293 59.3413C61.685 59.3413 61.7503 59.3611 61.8132 59.423L63.1087 60.7384L63.9995 61.6429L64.8901 60.7382L66.1351 59.4734C66.2452 59.3732 66.4023 59.3706 66.5148 59.4658C66.6099 59.5783 66.6074 59.7353 66.5072 59.8454L65.2424 61.0905L64.3376 61.9811L65.2422 62.8719L66.5576 64.1674C66.6194 64.2303 66.6393 64.2956 66.6393 64.3513C66.6393 64.4076 66.619 64.4738 66.5554 64.5374C66.4728 64.62 66.3161 64.6417 66.193 64.5272L64.8832 63.2174L63.9993 62.3335L63.1154 63.2174L61.7554 64.5774C61.6911 64.6417 61.6245 64.6613 61.5718 64.6613C61.5199 64.6613 61.4668 64.643 61.418 64.5925L61.4033 64.5773L61.3881 64.5625C61.3376 64.5137 61.3193 64.4606 61.3193 64.4088C61.3193 64.3561 61.3388 64.2895 61.4032 64.2252L62.7632 62.8652L63.6471 61.9813L62.7632 61.0974Z" fill="#E85E75" stroke="#F7FAFC" stroke-width="2.5"/>
</svg>
