<svg width="602" height="401" viewBox="0 0 602 401" fill="none" xmlns="http://www.w3.org/2000/svg">
<g opacity="0.05">
<path d="M146.482 100.55H144.438V315.347H146.482V100.55Z" fill="#E0E0E0"/>
</g>
<g opacity="0.05">
<path d="M291.935 100.55H289.891V315.347H291.935V100.55Z" fill="#E0E0E0"/>
</g>
<g opacity="0.05">
<path d="M437.388 100.55H435.344V315.347H437.388V100.55Z" fill="#E0E0E0"/>
</g>
<path d="M184.793 74.0833H143.892V79.6813H184.793V74.0833Z" fill="#D9D9D9"/>
<path d="M170.044 84.4376H143.892V90.0356H170.044V84.4376Z" fill="#D9D9D9"/>
<path d="M317.282 74.0833H291.935V79.6813H317.282V74.0833Z" fill="#D9D9D9"/>
<path d="M321.475 84.4376H291.935V90.0356H321.475V84.4376Z" fill="#D9D9D9"/>
<path d="M468.918 75H432V80.598H468.918V75Z" fill="#D9D9D9"/>
<path d="M461.54 85.3542H432V90.9523H461.54V85.3542Z" fill="#D9D9D9"/>
<path d="M168.602 328.076H145.46V335.544H168.602V328.076Z" fill="#B8B8B8"/>
<path d="M315.077 328.076H291.935V335.544H315.077V328.076Z" fill="#B8B8B8"/>
<path d="M460.53 328.076H437.388V335.544H460.53V328.076Z" fill="#B8B8B8"/>
<g opacity="0.43">
<path opacity="0.43" d="M531.419 251.526C486.052 251.526 446.614 231.897 405.496 211.441C354.739 186.179 302.253 160.062 232.323 167.215C187.67 171.782 159.642 189.983 134.911 206.039C112.518 220.576 91.35 233.361 62.678 234.454C16.345 236.219 0.266 216.442 0 215.231V202.544C0.056 202.761 10.171 224.961 62.629 224.695C88.459 224.562 107.527 212.183 129.605 197.85C155.26 181.191 184.338 162.311 231.329 157.505C304.066 150.065 357.833 176.826 409.836 202.705C464.247 229.781 516.173 255.176 581.826 233.144V243.575C563.108 249.859 548.142 251.526 531.419 251.526Z" fill="#01AAF0"/>
</g>
<g opacity="0.22">
<path opacity="0.22" d="M259.091 249.095C225.603 249.095 199.045 226.558 173.04 204.491C153.321 187.762 132.867 170.654 109.256 162.22C37.198 136.474 0.329 183.489 0 183.902V169.597C0.392 169.106 6.965 160.559 25.991 152.405C43.316 144.979 72.373 139.053 112.462 153.007C137.858 161.848 158.949 179.748 179.347 197.051C220.724 232.163 256.459 262.476 318.514 214.985C365.519 179.012 409.822 144.734 453.418 132.215C496.062 119.969 540.512 128.937 582.127 170.577L581.819 183.566C493.43 94.7146 418.166 151.011 324.436 222.74C299.614 241.739 278.222 249.095 259.091 249.095Z" fill="url(#paint0_linear_764_13826)"/>
</g>
<path opacity="0.32" d="M430.528 120.341H152.271C141.561 120.341 132.874 111.647 132.874 100.929V19.4123C132.874 8.69387 141.561 0 152.271 0H430.528C441.238 0 449.925 8.69387 449.925 19.4123V100.936C449.925 111.654 441.238 120.341 430.528 120.341Z" fill="url(#paint1_linear_764_13826)"/>
<path d="M380.919 102.442C358.596 102.442 340.431 84.2624 340.431 61.9218C340.431 39.5812 358.596 21.4019 380.919 21.4019C403.242 21.4019 421.407 39.5812 421.407 61.9218C421.407 84.2624 403.249 102.442 380.919 102.442ZM380.919 29.5072C363.062 29.5072 348.53 44.0437 348.53 61.9218C348.53 79.7929 363.062 94.3363 380.919 94.3363C398.776 94.3363 413.308 79.7929 413.308 61.9218C413.308 44.0507 398.776 29.5072 380.919 29.5072Z" fill="#01AAF0"/>
<path d="M328.488 225.04C306.165 225.04 288 206.861 288 184.52C288 162.179 306.165 144 328.488 144C350.811 144 368.976 162.179 368.976 184.52C368.976 206.861 350.818 225.04 328.488 225.04ZM328.488 152.105C310.631 152.105 296.099 166.642 296.099 184.52C296.099 202.391 310.631 216.934 328.488 216.934C346.345 216.934 360.877 202.391 360.877 184.52C360.877 166.649 346.345 152.105 328.488 152.105Z" fill="#01AAF0"/>
<path opacity="0.1" d="M314.23 31.9591H203.539V41.6968H314.23V31.9591Z" fill="white"/>
<path opacity="0.1" d="M314.23 57.0529H219.863V66.7905H314.23V57.0529Z" fill="white"/>
<path opacity="0.1" d="M314.23 82.1467H162.491V91.8844H314.23V82.1467Z" fill="white"/>
<g opacity="0.74">
<path opacity="0.74" d="M411.985 271.611H282.443C276.927 271.611 272.454 267.134 272.454 261.614V143.585C272.454 138.065 276.927 133.588 282.443 133.588H411.985C417.501 133.588 421.974 138.065 421.974 143.585V261.607C421.974 267.134 417.501 271.611 411.985 271.611Z" fill="url(#paint2_linear_764_13826)"/>
</g>
<path d="M340.984 236.513H290.185V242.294H340.984V236.513Z" fill="white"/>
<path d="M321.44 236.513H290.185V242.294H321.44V236.513Z" fill="#5BB1F7"/>
<path d="M369.418 248.752H290.185V254.532H369.418V248.752Z" fill="white"/>
<path d="M334.53 248.752H290.185V254.532H334.53V248.752Z" fill="#5BB1F7"/>
<path d="M404.096 245.522C404.096 252.129 398.741 257.488 392.14 257.488C385.539 257.488 380.184 252.129 380.184 245.522C380.184 238.916 385.539 233.557 392.14 233.557C398.748 233.557 404.096 238.916 404.096 245.522Z" fill="#5BB1F7"/>
<path d="M390.978 251.092L385.686 245.796L388.017 243.463L390.978 246.419L396.27 241.123L398.601 243.456L390.978 251.092Z" fill="white"/>
<path d="M381.021 372.168C381.021 372.168 370.428 376.946 365.693 378.599C360.958 380.259 343.63 378.396 341.701 379.881C339.779 381.366 339.695 386.978 342.48 387.966C345.265 388.946 365.974 394.046 373.192 393.325C380.411 392.596 393.115 397.465 396.146 396.828C399.177 396.197 399.443 379.195 398.805 375.272C398.159 371.348 381.021 372.168 381.021 372.168Z" fill="#484E7D"/>
<path d="M383.455 365.359L381.021 372.175C381.021 372.175 393.796 376.722 398.805 375.279L400.481 368.329L383.455 365.359Z" fill="#EEA886"/>
<path d="M409.587 378.235C409.587 378.235 399.591 384.323 395.08 386.565C390.562 388.813 373.143 389.164 371.397 390.88C369.65 392.603 370.19 398.187 373.066 398.81C375.942 399.434 397.065 401.872 404.151 400.232C411.236 398.593 424.389 401.809 427.329 400.8C430.268 399.791 428.655 382.873 427.581 379.062C426.515 375.244 409.587 378.235 409.587 378.235Z" fill="#5B639E"/>
<path d="M411.081 371.146L409.587 378.229C409.587 378.229 422.769 381.123 427.588 379.049L428.479 371.937L411.081 371.146Z" fill="#EEA886"/>
<path d="M511.244 243.638C511.244 243.638 465.674 244.037 460.09 244.829C454.035 245.684 430.324 246.447 427.462 250.784C398.566 294.582 379.702 366.291 379.702 366.291L402.544 370.781C402.544 370.781 424.628 328.034 433.881 305.833C442.187 285.895 449.293 280.774 466.74 281.216C484.187 281.657 539.972 277.818 572.136 273.839L511.244 243.638Z" fill="#292C47"/>
<path d="M516.064 138.149C516.064 138.149 502.545 167.208 503.64 178.003C504.734 188.799 516.365 218.719 517.186 224.73C518.007 230.741 512.121 242.629 512.121 242.629L573.006 270.777C573.006 270.777 575.461 252.983 573.006 232.492C570.551 212.001 568.748 189.969 566.04 178.389C556.808 138.87 532.374 122.492 532.374 122.492L516.064 138.149Z" fill="#01AAF0"/>
<path d="M512.121 242.629C512.121 242.629 466.551 243.029 460.966 243.82C454.912 244.675 430.661 245.088 428.339 249.782C411.783 283.177 408.058 372.309 408.058 372.309L429.363 374.88C429.363 374.88 439.83 329.645 443.113 308.096C446.396 286.547 450.5 283.416 467.947 283.857C485.393 284.298 553.707 301.735 573.006 270.778L512.121 242.629Z" fill="#323657"/>
<path d="M551.477 165.597C551.343 159.971 548.074 135.683 534.352 137.343C520.638 139.004 522.223 155.439 523.493 167.838C524.819 180.806 531.56 212.611 529.414 214.243C527.267 215.875 510.992 220.758 507.498 221.459C503.998 222.159 482.903 227.329 481.17 227.813C479.473 228.282 482.868 236.478 482.868 236.478C482.868 236.478 541.297 234.769 551.077 230.145C560.849 225.522 551.477 165.597 551.477 165.597Z" fill="#EEA886"/>
<path d="M481.163 227.812C481.163 227.812 476.821 228.905 474.73 229.073C472.64 229.242 462.727 225.312 459.648 225.879C456.568 226.446 436.743 236.002 435.852 236.674C434.961 237.347 436.378 238.664 436.378 238.664L482.868 236.983L481.163 227.812Z" fill="#EEA886"/>
<path d="M422.959 238.917L500.267 235.796L500.554 242.867L423.245 245.988L422.959 238.917Z" fill="#807066"/>
<path d="M403.702 170.84L429.854 243.561L423.185 245.952L397.034 173.232L403.702 170.84Z" fill="#807066"/>
<path d="M480.609 92.3818C480.609 92.3818 479.15 104.312 482.391 104.817C485.064 105.23 484.124 116.747 484.124 118.568C484.124 120.39 489.139 119.752 490.507 120.39C491.875 121.027 499.655 132.411 503.563 131.319C507.47 130.226 522.111 117.714 524.847 111.122C527.583 104.529 522.883 81.4042 516.225 73.481C509.568 65.5577 483.254 71.4984 480.609 92.3818Z" fill="#EEA886"/>
<path d="M511.097 122.877C511.097 122.877 511.49 123.921 512.072 125.546C512.5 126.744 513.033 128.25 513.581 129.889C515.068 134.331 516.695 139.718 516.822 142.352C517.053 147.27 532.374 122.499 532.374 122.499C532.374 122.499 526.86 107.577 523.423 90.126C519.992 72.6613 511.097 122.877 511.097 122.877Z" fill="#EEA886"/>
<path d="M480.385 94.9318C480.385 94.9318 470.781 86.4131 477.557 74.6648C484.327 62.9166 507.954 69.6559 510.213 69.3826C512.472 69.1094 524.258 65.3755 526.537 88.0524C528.824 110.736 527.379 107.332 527.379 107.332C527.379 107.332 521.592 97.5939 517.46 99.1631C513.328 100.732 506.102 101.489 506.102 101.489C506.102 101.489 505.962 90.9036 500.013 91.7232C494.064 92.5429 485.085 90.7425 480.385 94.9318Z" fill="#434343"/>
<path d="M552.515 166.654L521.192 167.782C521.192 167.782 516.33 135.235 534.331 135.865C552.339 136.488 552.515 166.654 552.515 166.654Z" fill="#01AAF0"/>
<path d="M509.827 93.944C509.813 92.4869 509.231 86.4481 515.159 87.8142C521.087 89.1802 517.516 102.4 516.758 102.855C515.987 103.296 509.968 106.169 509.827 93.944Z" fill="#EEA886"/>
<path d="M477.869 282.652H594C598.418 282.652 602 286.233 602 290.652V390.908C602 395.327 598.418 398.908 594 398.908H477.869C473.45 398.908 469.869 395.327 469.869 390.908V290.652C469.869 286.233 473.45 282.652 477.869 282.652Z" fill="#3788CC"/>
<path d="M532.374 122.484C532.374 122.484 505.499 170.984 506.194 164.111C506.741 158.738 518.379 132.776 518.379 132.776L532.374 122.484Z" fill="#EEA886"/>
<path d="M512.072 125.539C512.5 126.737 513.033 128.243 513.58 129.882C519.003 123.15 522.756 115.528 523.865 113.16C521.655 117.181 512.072 125.539 512.072 125.539Z" fill="#A77860"/>
<defs>
<linearGradient id="paint0_linear_764_13826" x1="0.00287" y1="188.129" x2="582.131" y2="188.129" gradientUnits="userSpaceOnUse">
<stop stop-color="#40D5E6"/>
<stop offset="1" stop-color="#5577FF"/>
</linearGradient>
<linearGradient id="paint1_linear_764_13826" x1="132.873" y1="60.1717" x2="449.923" y2="60.1717" gradientUnits="userSpaceOnUse">
<stop stop-color="#40A9E6"/>
<stop offset="1" stop-color="#1FA9FF"/>
</linearGradient>
<linearGradient id="paint2_linear_764_13826" x1="347.215" y1="281.28" x2="347.215" y2="47.7252" gradientUnits="userSpaceOnUse">
<stop stop-color="#8EC3F9"/>
<stop offset="1" stop-color="#B8EBFF"/>
</linearGradient>
</defs>
</svg>
