<svg id="Layer_1" data-name="Layer 1" xmlns="http://www.w3.org/2000/svg" viewBox="0 0 504 288"><defs><style>.cls-1{fill:#0c37aa;}</style></defs><path class="cls-1" d="M149.27,147.51c0,2.38,1.93,3.47,9.27,3.47,6.08,0,7.92-.67,7.92-2.44s-1.29-2.19-8.6-2.54c-9.81-.46-13.71-2-13.71-7.05s5-6.54,13.49-6.54,13.64,2.13,13.64,7.7h-5.79c0-2.48-2.48-3.09-8.5-3.09-5.69,0-7.05.54-7.05,2.22s1.36,2.06,7.92,2.44c8.89.49,14.39,1,14.39,6.66,0,6-5.7,7.25-14,7.25-9.24,0-14.74-1.58-14.74-8.08Z"/><path class="cls-1" d="M173.7,144c0-7.47,4.25-11.56,14.16-11.56S202,136.53,202,144s-4.28,11.62-14.16,11.62S173.7,151.47,173.7,144Zm22.53,0c0-4.57-2.32-6.7-8.37-6.7s-8.37,2.1-8.37,6.7,2.35,6.76,8.37,6.76S196.23,148.57,196.23,144Z"/><path class="cls-1" d="M233.15,132.74v22.52h-7.88l-15.36-16.89v16.89h-5.79V132.74H212l15.39,16.92V132.74Z"/><path class="cls-1" d="M295.86,148.57l4.15,6.69h-6.82l-3.64-6h-9.33v6h-5.8V132.74h17.7c5.12,0,8.63,3.25,8.63,8.27A7.68,7.68,0,0,1,295.86,148.57Zm-15.64-4.18h10.3c1.73,0,4.44,0,4.44-3.38s-2.71-3.42-4.44-3.42h-10.3Z"/><path class="cls-1" d="M316.27,143.2h14.29v12.06h-4.28l-.26-3.54c-2.13,2.32-5.51,3.87-10.3,3.87-8.3,0-13.39-4.12-13.39-11.59s5.09-11.59,14.36-11.59c9,0,13.51,3.51,13.87,9.11h-5.89c-.32-1.7-1.87-4.25-8-4.25-7.54,0-8.57,4.16-8.57,6.86s1.07,7,8.57,7c5.6,0,7.85-2.44,8-4.15h-8.4Z"/><path class="cls-1" d="M329.24,132.74h7L344.88,143l8.66-10.26h7l-12.74,15.12v7.4H342v-7.4Z"/><rect class="cls-1" x="247.45" y="132.74" width="23.73" height="4.65"/><rect class="cls-1" x="235.59" y="141.67" width="23.73" height="4.65"/><rect class="cls-1" x="247.45" y="150.61" width="23.73" height="4.65"/></svg>