<svg id="Layer_1" data-name="Layer 1" xmlns="http://www.w3.org/2000/svg" viewBox="0 0 504 288"><defs><style>.cls-1{fill:#0c37aa;}</style></defs><path class="cls-1" d="M114.25,119.67v49.42h49.43V119.67Zm4,22.24h25.18v4.94H118.28Zm37.77,14.42H130.87V151.4h25.18Zm0-19H130.87v-4.94h25.18Z"/><path class="cls-1" d="M178.83,147.54c0,2.52,2,3.68,9.81,3.68,6.44,0,8.39-.72,8.39-2.59s-1.37-2.32-9.1-2.69c-10.39-.48-14.52-2.12-14.52-7.47s5.35-6.91,14.28-6.91,14.45,2.25,14.45,8.14H196c0-2.62-2.62-3.27-9-3.27-6,0-7.46.58-7.46,2.35s1.43,2.18,8.38,2.59c9.4.51,15.23,1,15.23,7,0,6.37-6,7.67-14.86,7.67-9.78,0-15.6-1.67-15.6-8.55Z"/><path class="cls-1" d="M204.69,143.79c0-7.91,4.5-12.23,15-12.23s15,4.36,15,12.23-4.53,12.3-15,12.3S204.69,151.73,204.69,143.79Zm23.85,0c0-4.84-2.45-7.09-8.85-7.09s-8.86,2.22-8.86,7.09,2.48,7.15,8.86,7.15S228.54,148.66,228.54,143.79Z"/><path class="cls-1" d="M267.63,131.9v23.85h-8.35L243,137.86v17.89h-6.14V131.9h8.32l16.28,17.92V131.9Z"/><path class="cls-1" d="M276.49,136.77v4.84h19.08V146H276.49v4.84h19.08v4.87H270.35V131.9h25.22v4.87Z"/><path class="cls-1" d="M320.48,148.66l4.39,7.09h-7.22l-3.85-6.37h-9.88v6.37h-6.14V131.9h18.74c5.42,0,9.13,3.44,9.13,8.75A8.13,8.13,0,0,1,320.48,148.66Zm-16.56-4.43h10.9c1.84,0,4.7,0,4.7-3.58s-2.86-3.61-4.7-3.61h-10.9Z"/><path class="cls-1" d="M342.08,143h15.13v12.78h-4.54L352.4,152c-2.25,2.45-5.82,4.09-10.9,4.09-8.79,0-14.18-4.36-14.18-12.27s5.39-12.26,15.2-12.26c9.54,0,14.31,3.71,14.69,9.64H351c-.34-1.81-2-4.5-8.45-4.5-8,0-9.06,4.4-9.06,7.26s1.12,7.39,9.06,7.39c5.93,0,8.31-2.59,8.45-4.39h-8.89Z"/><path class="cls-1" d="M355.81,131.9h7.39l9.17,10.87,9.17-10.87h7.39l-13.49,16v7.84H369.3v-7.84Z"/></svg>