<svg id="Layer_1" data-name="Layer 1" xmlns="http://www.w3.org/2000/svg" viewBox="0 0 504 288"><defs><style>.cls-1{fill:#0c37aa;}</style></defs><path d="M178.49,147.51c0,2.38,1.93,3.47,9.27,3.47,6.08,0,7.92-.67,7.92-2.44s-1.29-2.19-8.59-2.54c-9.82-.46-13.72-2-13.72-7.05s5.06-6.54,13.49-6.54,13.65,2.13,13.65,7.7h-5.8c0-2.48-2.47-3.09-8.49-3.09-5.7,0-7.05.54-7.05,2.22s1.35,2.06,7.92,2.44c8.88.49,14.38,1,14.38,6.66,0,6-5.69,7.25-14,7.25-9.24,0-14.74-1.58-14.74-8.08Z"/><path d="M202.92,144c0-7.47,4.25-11.56,14.17-11.56s14.16,4.12,14.16,11.56-4.28,11.62-14.16,11.62S202.92,151.47,202.92,144Zm22.53,0c0-4.57-2.31-6.7-8.36-6.7s-8.37,2.1-8.37,6.7,2.35,6.76,8.37,6.76S225.45,148.57,225.45,144Z"/><path d="M262.37,132.74v22.52h-7.88l-15.35-16.89v16.89h-5.8V132.74h7.86l15.38,16.92V132.74Z"/><path d="M325.08,148.57l4.15,6.69h-6.82l-3.64-6h-9.33v6h-5.79V132.74h17.7c5.11,0,8.62,3.25,8.62,8.27A7.67,7.67,0,0,1,325.08,148.57Zm-15.64-4.18h10.3c1.74,0,4.44,0,4.44-3.38s-2.7-3.42-4.44-3.42h-10.3Z"/><path d="M345.49,143.2h14.29v12.06H355.5l-.26-3.54c-2.12,2.32-5.5,3.87-10.3,3.87-8.3,0-13.39-4.12-13.39-11.59s5.09-11.59,14.36-11.59c9,0,13.52,3.51,13.87,9.11h-5.89c-.32-1.7-1.87-4.25-8-4.25-7.53,0-8.56,4.16-8.56,6.86s1.06,7,8.56,7c5.6,0,7.85-2.44,8-4.15h-8.4Z"/><path d="M358.46,132.74h7L374.11,143l8.65-10.26h7L377,147.86v7.4h-5.79v-7.4Z"/><path class="cls-1" d="M114.25,119.29v49.42h49.43V119.29Zm4,22.24h25.18v4.94H118.28ZM156.05,156H130.87V151h25.18Zm0-19H130.87v-4.94h25.18Z"/><rect class="cls-1" x="276.68" y="132.74" width="23.73" height="4.65"/><rect class="cls-1" x="264.81" y="141.67" width="23.73" height="4.65"/><rect class="cls-1" x="276.68" y="150.61" width="23.73" height="4.65"/></svg>