<svg width="24" height="24" viewBox="0 0 24 24" fill="none" xmlns="http://www.w3.org/2000/svg">
<path d="M21.5302 15.9294C21.3702 15.6594 20.9202 15.2394 19.8002 15.4394C19.1802 15.5494 18.5502 15.5994 17.9202 15.5694C15.5902 15.4694 13.4802 14.3994 12.0102 12.7494C10.7102 11.2994 9.9102 9.40938 9.9002 7.36938C9.9002 6.22938 10.1202 5.12938 10.5702 4.08938C11.0102 3.07938 10.7002 2.54938 10.4802 2.32938C10.2502 2.09938 9.7102 1.77938 8.6502 2.21938C4.5602 3.93938 2.0302 8.03938 2.3302 12.4294C2.6302 16.5594 5.5302 20.0894 9.3702 21.4194C10.2902 21.7394 11.2602 21.9294 12.2602 21.9694C12.4202 21.9794 12.5802 21.9894 12.7402 21.9894C16.0902 21.9894 19.2302 20.4094 21.2102 17.7194C21.8802 16.7894 21.7002 16.1994 21.5302 15.9294Z" fill="#8895A7"/>
</svg>
